G04 #@! TF.FileFunction,Soldermask,Top*
%FSLAX46Y46*%
G04 Gerber Fmt 4.6, Leading zero omitted, Abs format (unit mm)*
G04 Created by KiCad (PCBNEW 4.0.5) date 2017 June 13, Tuesday 07:26:24*
%MOMM*%
%LPD*%
G01*
G04 APERTURE LIST*
%ADD10C,0.100000*%
%ADD11R,3.900000X2.200000*%
%ADD12R,1.050000X1.960000*%
%ADD13R,1.900000X1.700000*%
%ADD14R,1.400000X2.400000*%
%ADD15R,3.400000X0.900000*%
%ADD16R,2.050000X1.000000*%
G04 APERTURE END LIST*
D10*
D11*
X117500000Y-76250000D03*
X122500000Y-76250000D03*
D12*
X111800000Y-78600000D03*
X112750000Y-78600000D03*
X113700000Y-78600000D03*
X113700000Y-75900000D03*
X111800000Y-75900000D03*
X112750000Y-75900000D03*
D13*
X121350000Y-79250000D03*
X118650000Y-79250000D03*
D14*
X132500000Y-82500000D03*
X118750000Y-73250000D03*
X115750000Y-73250000D03*
X117250000Y-73250000D03*
X108000000Y-66500000D03*
X109500000Y-66500000D03*
X106750000Y-77500000D03*
X108750000Y-77500000D03*
X112000000Y-82500000D03*
X114250000Y-73250000D03*
X112750000Y-73250000D03*
X121550000Y-82500000D03*
X123000000Y-82500000D03*
X134000000Y-82500000D03*
X135500000Y-82500000D03*
X111250000Y-73250000D03*
X109750000Y-73250000D03*
X103250000Y-66500000D03*
X120250000Y-73250000D03*
X124000000Y-72500000D03*
X122500000Y-72500000D03*
X137000000Y-82500000D03*
X116250000Y-79500000D03*
X113750000Y-82500000D03*
D15*
X154000000Y-82250000D03*
X149730000Y-82250000D03*
X154000000Y-80980000D03*
X149730000Y-80980000D03*
X154000000Y-79710000D03*
X149730000Y-79710000D03*
X154000000Y-78440000D03*
X149730000Y-78440000D03*
X154000000Y-77170000D03*
X149730000Y-77170000D03*
X154000000Y-75900000D03*
X149730000Y-75900000D03*
X154000000Y-74630000D03*
X149730000Y-74630000D03*
X154000000Y-73360000D03*
X149730000Y-73360000D03*
X154000000Y-72090000D03*
X149730000Y-72090000D03*
X154000000Y-70820000D03*
X149730000Y-70820000D03*
X149730000Y-69550000D03*
D16*
X97450000Y-71800000D03*
X101100000Y-72800000D03*
X97450000Y-73800000D03*
X101100000Y-74800000D03*
X97450000Y-75800000D03*
X101100000Y-76800000D03*
X97450000Y-77800000D03*
X101100000Y-78800000D03*
X97450000Y-79800000D03*
X101100000Y-80800000D03*
M02*
