G04 #@! TF.FileFunction,Copper,L1,Top,Signal*
%FSLAX46Y46*%
G04 Gerber Fmt 4.6, Leading zero omitted, Abs format (unit mm)*
G04 Created by KiCad (PCBNEW 4.0.5) date 2017 June 13, Tuesday 07:26:24*
%MOMM*%
%LPD*%
G01*
G04 APERTURE LIST*
%ADD10C,0.100000*%
%ADD11R,3.500000X1.800000*%
%ADD12R,0.650000X1.560000*%
%ADD13R,1.500000X1.300000*%
%ADD14R,1.000000X2.000000*%
%ADD15R,3.000000X0.500000*%
%ADD16R,1.650000X0.600000*%
%ADD17C,0.460000*%
%ADD18C,0.370000*%
%ADD19C,0.203200*%
%ADD20C,0.152400*%
G04 APERTURE END LIST*
D10*
D11*
X117500000Y-76250000D03*
X122500000Y-76250000D03*
D12*
X111800000Y-78600000D03*
X112750000Y-78600000D03*
X113700000Y-78600000D03*
X113700000Y-75900000D03*
X111800000Y-75900000D03*
X112750000Y-75900000D03*
D13*
X121350000Y-79250000D03*
X118650000Y-79250000D03*
D14*
X132500000Y-82500000D03*
X118750000Y-73250000D03*
X115750000Y-73250000D03*
X117250000Y-73250000D03*
X108000000Y-66500000D03*
X109500000Y-66500000D03*
X106750000Y-77500000D03*
X108750000Y-77500000D03*
X112000000Y-82500000D03*
X114250000Y-73250000D03*
X112750000Y-73250000D03*
X121550000Y-82500000D03*
X123000000Y-82500000D03*
X134000000Y-82500000D03*
X135500000Y-82500000D03*
X111250000Y-73250000D03*
X109750000Y-73250000D03*
X103250000Y-66500000D03*
X120250000Y-73250000D03*
X124000000Y-72500000D03*
X122500000Y-72500000D03*
X137000000Y-82500000D03*
X116250000Y-79500000D03*
X113750000Y-82500000D03*
D15*
X154000000Y-82250000D03*
X149730000Y-82250000D03*
X154000000Y-80980000D03*
X149730000Y-80980000D03*
X154000000Y-79710000D03*
X149730000Y-79710000D03*
X154000000Y-78440000D03*
X149730000Y-78440000D03*
X154000000Y-77170000D03*
X149730000Y-77170000D03*
X154000000Y-75900000D03*
X149730000Y-75900000D03*
X154000000Y-74630000D03*
X149730000Y-74630000D03*
X154000000Y-73360000D03*
X149730000Y-73360000D03*
X154000000Y-72090000D03*
X149730000Y-72090000D03*
X154000000Y-70820000D03*
X149730000Y-70820000D03*
X149730000Y-69550000D03*
D16*
X97450000Y-71800000D03*
X101100000Y-72800000D03*
X97450000Y-73800000D03*
X101100000Y-74800000D03*
X97450000Y-75800000D03*
X101100000Y-76800000D03*
X97450000Y-77800000D03*
X101100000Y-78800000D03*
X97450000Y-79800000D03*
X101100000Y-80800000D03*
D17*
X119850000Y-78950000D03*
X125450000Y-78900000D03*
X115000000Y-76286410D03*
X103500000Y-68500000D03*
D18*
X137580379Y-71753622D03*
X142550000Y-81600000D03*
X151900000Y-80750000D03*
X138150000Y-72400000D03*
X142450000Y-80336390D03*
X138900000Y-74313610D03*
X114806723Y-75058590D03*
X109750000Y-73250000D03*
X144300000Y-74050000D03*
X154000000Y-74630000D03*
X114390568Y-74742791D03*
X144318726Y-73355585D03*
X111250000Y-73250000D03*
X154000000Y-73360000D03*
D17*
X110050000Y-79163590D03*
X140852003Y-82354173D03*
X111444168Y-80113590D03*
X141431815Y-81814381D03*
X127825010Y-77425010D03*
X146028527Y-78372011D03*
X141032396Y-77482417D03*
X109550000Y-68450000D03*
X146150000Y-77150000D03*
X141100000Y-76650000D03*
X129350000Y-76750000D03*
X108000000Y-68450000D03*
D18*
X121716340Y-73686390D03*
X144350000Y-72772413D03*
X117250000Y-73250000D03*
X147300000Y-73000000D03*
X125850000Y-72086390D03*
X147600000Y-72250000D03*
X144350000Y-72250000D03*
X115750000Y-73250000D03*
X145050000Y-76050000D03*
X138850000Y-73650000D03*
X137550000Y-71050000D03*
X135550000Y-79900000D03*
X112061361Y-79743182D03*
X121244186Y-81058590D03*
X154000000Y-78440000D03*
X140500000Y-78600000D03*
X119867687Y-80753779D03*
X117769403Y-80753779D03*
D19*
X103250000Y-66500000D02*
X102750000Y-66500000D01*
X102750000Y-66500000D02*
X97450000Y-71800000D01*
X119850000Y-78950000D02*
X118950000Y-78950000D01*
X118950000Y-78950000D02*
X118650000Y-79250000D01*
X143100000Y-75950000D02*
X128400000Y-75950000D01*
X128400000Y-75950000D02*
X125450000Y-78900000D01*
X144050000Y-75000000D02*
X143100000Y-75950000D01*
X147656800Y-75000000D02*
X144050000Y-75000000D01*
X148026800Y-74630000D02*
X147656800Y-75000000D01*
X149730000Y-74630000D02*
X148026800Y-74630000D01*
X115036410Y-76250000D02*
X115000000Y-76286410D01*
X117500000Y-76250000D02*
X115036410Y-76250000D01*
X103500000Y-68500000D02*
X103500000Y-66750000D01*
X117500000Y-76250000D02*
X117500000Y-78200000D01*
X117500000Y-78200000D02*
X118550000Y-79250000D01*
X118550000Y-79250000D02*
X118650000Y-79250000D01*
X117500000Y-76250000D02*
X117500000Y-78953200D01*
X117500000Y-78953200D02*
X116953200Y-79500000D01*
X116953200Y-79500000D02*
X116250000Y-79500000D01*
X103500000Y-66750000D02*
X103250000Y-66500000D01*
D20*
X120447600Y-80052400D02*
X119956936Y-80052400D01*
X121250000Y-79250000D02*
X120447600Y-80052400D01*
X119956936Y-80052400D02*
X117509336Y-82500000D01*
X121350000Y-79250000D02*
X121250000Y-79250000D01*
X117509336Y-82500000D02*
X114402400Y-82500000D01*
X114402400Y-82500000D02*
X113750000Y-82500000D01*
X122500000Y-76250000D02*
X122500000Y-78200000D01*
X121450000Y-79250000D02*
X121350000Y-79250000D01*
X122500000Y-78200000D02*
X121450000Y-79250000D01*
D19*
X100200000Y-81600000D02*
X99868599Y-81268599D01*
X99868599Y-81268599D02*
X99868599Y-79506401D01*
X99868599Y-79506401D02*
X100575000Y-78800000D01*
X100575000Y-78800000D02*
X101100000Y-78800000D01*
X102150000Y-81600000D02*
X100200000Y-81600000D01*
X103128400Y-80621600D02*
X102150000Y-81600000D01*
X111010304Y-80621600D02*
X103128400Y-80621600D01*
X112000000Y-81296800D02*
X111453191Y-80749991D01*
X111453191Y-80749991D02*
X111138695Y-80749991D01*
X111138695Y-80749991D02*
X111010304Y-80621600D01*
X112000000Y-82500000D02*
X112000000Y-82000000D01*
X142127847Y-79710000D02*
X148026800Y-79710000D01*
X148026800Y-79710000D02*
X149730000Y-79710000D01*
X139337847Y-82500000D02*
X142127847Y-79710000D01*
X137000000Y-82500000D02*
X139337847Y-82500000D01*
X112000000Y-82500000D02*
X112000000Y-83703200D01*
X112000000Y-83703200D02*
X112203201Y-83906401D01*
X112203201Y-83906401D02*
X136796799Y-83906401D01*
X136796799Y-83906401D02*
X137000000Y-83703200D01*
X137000000Y-83703200D02*
X137000000Y-82500000D01*
X112750000Y-78600000D02*
X112750000Y-75900000D01*
X112000000Y-82500000D02*
X112000000Y-81296800D01*
X112000000Y-81296800D02*
X112750000Y-80546800D01*
X112750000Y-80546800D02*
X112750000Y-79583200D01*
X112750000Y-79583200D02*
X112750000Y-78600000D01*
D20*
X123450000Y-71050000D02*
X136876757Y-71050000D01*
X122500000Y-72000000D02*
X123450000Y-71050000D01*
X136876757Y-71050000D02*
X137395380Y-71568623D01*
X137395380Y-71568623D02*
X137580379Y-71753622D01*
X122500000Y-72500000D02*
X122500000Y-72000000D01*
X154000000Y-82250000D02*
X152347600Y-82250000D01*
X152347600Y-82250000D02*
X151716599Y-81618999D01*
X151716599Y-81618999D02*
X142568999Y-81618999D01*
X142568999Y-81618999D02*
X142550000Y-81600000D01*
X151900000Y-80750000D02*
X153770000Y-80750000D01*
X153770000Y-80750000D02*
X154000000Y-80980000D01*
X138050000Y-72500000D02*
X138150000Y-72400000D01*
X124000000Y-72500000D02*
X138050000Y-72500000D01*
X142711629Y-80336390D02*
X142450000Y-80336390D01*
X151534801Y-80341001D02*
X142716240Y-80341001D01*
X142716240Y-80341001D02*
X142711629Y-80336390D01*
X152165802Y-79710000D02*
X151534801Y-80341001D01*
X154000000Y-79710000D02*
X152165802Y-79710000D01*
X121323744Y-74404811D02*
X125176256Y-74404811D01*
X120250000Y-73331066D02*
X121323744Y-74404811D01*
X120250000Y-73250000D02*
X120250000Y-73331066D01*
X138800000Y-74213610D02*
X138900000Y-74313610D01*
X125367457Y-74213610D02*
X138800000Y-74213610D01*
X125176256Y-74404811D02*
X125367457Y-74213610D01*
X106873617Y-73250000D02*
X109097600Y-73250000D01*
X109097600Y-73250000D02*
X109750000Y-73250000D01*
X101100000Y-76800000D02*
X103323617Y-76800000D01*
X103323617Y-76800000D02*
X106873617Y-73250000D01*
X139224786Y-75032023D02*
X138575214Y-75032023D01*
X125428768Y-75014433D02*
X121071232Y-75014433D01*
X121071232Y-75014433D02*
X120930390Y-74873591D01*
X138575214Y-75032023D02*
X138492150Y-74948959D01*
X144300000Y-74050000D02*
X140206809Y-74050000D01*
X140206809Y-74050000D02*
X139224786Y-75032023D01*
X138492150Y-74948959D02*
X125494242Y-74948959D01*
X125494242Y-74948959D02*
X125428768Y-75014433D01*
X114991722Y-74873591D02*
X114806723Y-75058590D01*
X120930390Y-74873591D02*
X114991722Y-74873591D01*
X98427400Y-77800000D02*
X97450000Y-77800000D01*
X100160329Y-77309378D02*
X98918022Y-77309378D01*
X100198551Y-77347600D02*
X100160329Y-77309378D01*
X111250000Y-73250000D02*
X111250000Y-73750000D01*
X98918022Y-77309378D02*
X98427400Y-77800000D01*
X109389012Y-75610988D02*
X104943695Y-75610988D01*
X103207084Y-77347600D02*
X100198551Y-77347600D01*
X111250000Y-73750000D02*
X109389012Y-75610988D01*
X104943695Y-75610988D02*
X103207084Y-77347600D01*
X138701470Y-74727212D02*
X138535032Y-74560774D01*
X140470157Y-73355585D02*
X139098530Y-74727212D01*
X138535032Y-74560774D02*
X125451360Y-74560774D01*
X125451360Y-74560774D02*
X125302512Y-74709622D01*
X114575567Y-74557792D02*
X114390568Y-74742791D01*
X144318726Y-73355585D02*
X140470157Y-73355585D01*
X121197488Y-74709622D02*
X121045658Y-74557792D01*
X121045658Y-74557792D02*
X114575567Y-74557792D01*
X125302512Y-74709622D02*
X121197488Y-74709622D01*
X139098530Y-74727212D02*
X138701470Y-74727212D01*
X151878999Y-78041001D02*
X152750000Y-77170000D01*
X135500000Y-82500000D02*
X135500000Y-81814198D01*
X136195199Y-81118999D02*
X140036334Y-81118999D01*
X140036334Y-81118999D02*
X142084332Y-79071001D01*
X142084332Y-79071001D02*
X151878999Y-79071001D01*
X135500000Y-81814198D02*
X136195199Y-81118999D01*
X151878999Y-79071001D02*
X151878999Y-78041001D01*
X152750000Y-77170000D02*
X154000000Y-77170000D01*
X151526803Y-77808999D02*
X152271399Y-77064403D01*
X152271399Y-77064403D02*
X152271399Y-76378601D01*
X152271399Y-76378601D02*
X152750000Y-75900000D01*
X146463283Y-77808999D02*
X151526803Y-77808999D01*
X141101042Y-79623224D02*
X142963265Y-77761001D01*
X146415285Y-77761001D02*
X146463283Y-77808999D01*
X142963265Y-77761001D02*
X146415285Y-77761001D01*
X134000000Y-82000000D02*
X135686398Y-80313602D01*
X136438908Y-79623224D02*
X141101042Y-79623224D01*
X134000000Y-82500000D02*
X134000000Y-82000000D01*
X135686398Y-80313602D02*
X135748530Y-80313602D01*
X135748530Y-80313602D02*
X136438908Y-79623224D01*
X152750000Y-75900000D02*
X154000000Y-75900000D01*
X152750000Y-72090000D02*
X154000000Y-72090000D01*
X152271399Y-75520083D02*
X152271399Y-72568601D01*
X123652400Y-82500000D02*
X126833987Y-79318413D01*
X126833987Y-79318413D02*
X140974786Y-79318413D01*
X123000000Y-82500000D02*
X123652400Y-82500000D01*
X151252483Y-76538999D02*
X152271399Y-75520083D01*
X143754200Y-76538999D02*
X151252483Y-76538999D01*
X140974786Y-79318413D02*
X143754200Y-76538999D01*
X152271399Y-72568601D02*
X152750000Y-72090000D01*
X152750000Y-70820000D02*
X154000000Y-70820000D01*
X151800000Y-71770000D02*
X152750000Y-70820000D01*
X151495802Y-75300000D02*
X151800000Y-74995802D01*
X143349904Y-76382610D02*
X144249903Y-75482611D01*
X148039315Y-75300000D02*
X151495802Y-75300000D01*
X144249903Y-75482611D02*
X147856704Y-75482611D01*
X124449935Y-81271399D02*
X126707732Y-79013602D01*
X143348457Y-76382610D02*
X143349904Y-76382610D01*
X126707732Y-79013602D02*
X140717465Y-79013602D01*
X151800000Y-74995802D02*
X151800000Y-71770000D01*
X122278601Y-81271399D02*
X124449935Y-81271399D01*
X121550000Y-82500000D02*
X121550000Y-82000000D01*
X121550000Y-82000000D02*
X122278601Y-81271399D01*
X140717465Y-79013602D02*
X143348457Y-76382610D01*
X147856704Y-75482611D02*
X148039315Y-75300000D01*
D19*
X109913590Y-79163590D02*
X110050000Y-79163590D01*
X108750000Y-78000000D02*
X109913590Y-79163590D01*
X108750000Y-77500000D02*
X108750000Y-78000000D01*
X103143599Y-78093599D02*
X105143599Y-76093599D01*
X98478200Y-78771800D02*
X99458011Y-77791989D01*
X108750000Y-77000000D02*
X108750000Y-77500000D01*
X107778322Y-76296800D02*
X108046800Y-76296800D01*
X99960425Y-77791989D02*
X100262035Y-78093599D01*
X100262035Y-78093599D02*
X103143599Y-78093599D01*
X99458011Y-77791989D02*
X99960425Y-77791989D01*
X107575121Y-76093599D02*
X107778322Y-76296800D01*
X108046800Y-76296800D02*
X108750000Y-77000000D01*
X98478200Y-79296800D02*
X98478200Y-78771800D01*
X97975000Y-79800000D02*
X98478200Y-79296800D01*
X105143599Y-76093599D02*
X107575121Y-76093599D01*
X97450000Y-79800000D02*
X97975000Y-79800000D01*
X141938072Y-82250000D02*
X141603900Y-82584172D01*
X149730000Y-82250000D02*
X141938072Y-82250000D01*
X141082002Y-82584172D02*
X140852003Y-82354173D01*
X141603900Y-82584172D02*
X141082002Y-82584172D01*
X101100000Y-80800000D02*
X101625000Y-80800000D01*
X101625000Y-80800000D02*
X104925000Y-77500000D01*
X104925000Y-77500000D02*
X106046800Y-77500000D01*
X106046800Y-77500000D02*
X106750000Y-77500000D01*
X106750000Y-77500000D02*
X106750000Y-78000000D01*
X106750000Y-78000000D02*
X108863590Y-80113590D01*
X108863590Y-80113590D02*
X111118899Y-80113590D01*
X111118899Y-80113590D02*
X111444168Y-80113590D01*
X101100000Y-80800000D02*
X100575000Y-80800000D01*
X149730000Y-80980000D02*
X142266196Y-80980000D01*
X142266196Y-80980000D02*
X141661814Y-81584382D01*
X141661814Y-81584382D02*
X141431815Y-81814381D01*
X141032396Y-77482417D02*
X127882417Y-77482417D01*
X127882417Y-77482417D02*
X127825010Y-77425010D01*
X146096516Y-78440000D02*
X146028527Y-78372011D01*
X149730000Y-78440000D02*
X146096516Y-78440000D01*
X109550000Y-68450000D02*
X109550000Y-66550000D01*
X109550000Y-66550000D02*
X109500000Y-66500000D01*
X146150000Y-77150000D02*
X149710000Y-77150000D01*
X149710000Y-77150000D02*
X149730000Y-77170000D01*
X129350000Y-76750000D02*
X141000000Y-76750000D01*
X141000000Y-76750000D02*
X141100000Y-76650000D01*
X108000000Y-66500000D02*
X108000000Y-68450000D01*
D20*
X117250000Y-72750000D02*
X117250000Y-73250000D01*
X103782211Y-71095189D02*
X115595189Y-71095189D01*
X102077400Y-72800000D02*
X103782211Y-71095189D01*
X101100000Y-72800000D02*
X102077400Y-72800000D01*
X115595189Y-71095189D02*
X117250000Y-72750000D01*
X138389719Y-72772413D02*
X138348530Y-72813602D01*
X144350000Y-72772413D02*
X138389719Y-72772413D01*
X138348530Y-72813602D02*
X125555332Y-72813602D01*
X124640333Y-73728601D02*
X123500000Y-73728601D01*
X125555332Y-72813602D02*
X124640333Y-73728601D01*
X123496544Y-73732057D02*
X121762007Y-73732057D01*
X121762007Y-73732057D02*
X121716340Y-73686390D01*
X123500000Y-73728601D02*
X123496544Y-73732057D01*
X123500000Y-73728601D02*
X123317119Y-73728601D01*
X149730000Y-73360000D02*
X147660000Y-73360000D01*
X147660000Y-73360000D02*
X147300000Y-73000000D01*
X98427400Y-73800000D02*
X97450000Y-73800000D01*
X106126089Y-71411777D02*
X106087866Y-71450000D01*
X106087866Y-71450000D02*
X104200000Y-71450000D01*
X104200000Y-71450000D02*
X101850000Y-73800000D01*
X115750000Y-73250000D02*
X115750000Y-72750000D01*
X112523910Y-71411777D02*
X106126089Y-71411777D01*
X114450000Y-71450000D02*
X112562133Y-71450000D01*
X101850000Y-73800000D02*
X98427400Y-73800000D01*
X112562133Y-71450000D02*
X112523910Y-71411777D01*
X115750000Y-72750000D02*
X114450000Y-71450000D01*
X138351470Y-71486398D02*
X137986398Y-71851470D01*
X144350000Y-72250000D02*
X143586398Y-71486398D01*
X137723745Y-72195189D02*
X126220428Y-72195189D01*
X137986398Y-71851470D02*
X137986398Y-71932536D01*
X126111629Y-72086390D02*
X125850000Y-72086390D01*
X126220428Y-72195189D02*
X126111629Y-72086390D01*
X137986398Y-71932536D02*
X137723745Y-72195189D01*
X143586398Y-71486398D02*
X138351470Y-71486398D01*
X147600000Y-72250000D02*
X149570000Y-72250000D01*
X149570000Y-72250000D02*
X149730000Y-72090000D01*
X145050000Y-76050000D02*
X149580000Y-76050000D01*
X149580000Y-76050000D02*
X149730000Y-75900000D01*
X125100000Y-73900000D02*
X138600000Y-73900000D01*
X138600000Y-73900000D02*
X138850000Y-73650000D01*
X124950000Y-74050000D02*
X125100000Y-73900000D01*
X121964860Y-74050000D02*
X124950000Y-74050000D01*
X121150000Y-73800000D02*
X121449991Y-74099991D01*
X121449991Y-74099991D02*
X121914869Y-74099991D01*
X121914869Y-74099991D02*
X121964860Y-74050000D01*
X121150000Y-72238518D02*
X121150000Y-73800000D01*
X119147600Y-71700000D02*
X120611482Y-71700000D01*
X120611482Y-71700000D02*
X121150000Y-72238518D01*
X118750000Y-73250000D02*
X118750000Y-72097600D01*
X118750000Y-72097600D02*
X119147600Y-71700000D01*
X137550000Y-71050000D02*
X139050000Y-69550000D01*
X139050000Y-69550000D02*
X149730000Y-69550000D01*
X132500000Y-82000000D02*
X134600000Y-79900000D01*
X134600000Y-79900000D02*
X135550000Y-79900000D01*
X132500000Y-82500000D02*
X132500000Y-82000000D01*
X111800000Y-79532400D02*
X112010782Y-79743182D01*
X111800000Y-78600000D02*
X111800000Y-79532400D01*
X112010782Y-79743182D02*
X112061361Y-79743182D01*
X126690267Y-78600000D02*
X124416676Y-80873591D01*
X124416676Y-80873591D02*
X121429185Y-80873591D01*
X121429185Y-80873591D02*
X121244186Y-81058590D01*
X140500000Y-78600000D02*
X126690267Y-78600000D01*
X120052686Y-80568780D02*
X119867687Y-80753779D01*
X120220237Y-80401229D02*
X120052686Y-80568780D01*
X122717705Y-80401229D02*
X120220237Y-80401229D01*
X127864123Y-75254811D02*
X122717705Y-80401229D01*
X139433065Y-75254811D02*
X139351042Y-75336834D01*
X143062675Y-75254811D02*
X139433065Y-75254811D01*
X143800096Y-74517389D02*
X143062675Y-75254811D01*
X139351042Y-75336834D02*
X138448958Y-75336834D01*
X147186399Y-72113601D02*
X144782611Y-74517389D01*
X138448958Y-75336834D02*
X138366935Y-75254811D01*
X138366935Y-75254811D02*
X127864123Y-75254811D01*
X149730000Y-70820000D02*
X148077600Y-70820000D01*
X147186399Y-71711201D02*
X147186399Y-72113601D01*
X144782611Y-74517389D02*
X143800096Y-74517389D01*
X148077600Y-70820000D02*
X147186399Y-71711201D01*
X117431772Y-81091410D02*
X117584404Y-80938778D01*
X115736410Y-81091410D02*
X117431772Y-81091410D01*
X113700000Y-79055000D02*
X115736410Y-81091410D01*
X113700000Y-78600000D02*
X113700000Y-79055000D01*
X117584404Y-80938778D02*
X117769403Y-80753779D01*
X103892550Y-75800000D02*
X98427400Y-75800000D01*
X105250000Y-73150000D02*
X105250000Y-74442550D01*
X112021399Y-72021399D02*
X106378601Y-72021399D01*
X112750000Y-72750000D02*
X112021399Y-72021399D01*
X112750000Y-73250000D02*
X112750000Y-72750000D01*
X98427400Y-75800000D02*
X97450000Y-75800000D01*
X105250000Y-74442550D02*
X103892550Y-75800000D01*
X106378601Y-72021399D02*
X105250000Y-73150000D01*
X111800000Y-75900000D02*
X111800000Y-74700000D01*
X111800000Y-74700000D02*
X112750000Y-73750000D01*
X112750000Y-73750000D02*
X112750000Y-73250000D01*
X112397654Y-71716588D02*
X112476257Y-71795191D01*
X104550000Y-73418933D02*
X106252345Y-71716588D01*
X112476257Y-71795191D02*
X113295191Y-71795191D01*
X113295191Y-71795191D02*
X114250000Y-72750000D01*
X102077400Y-74800000D02*
X102477400Y-75200000D01*
X104550000Y-74550000D02*
X104550000Y-73418933D01*
X102477400Y-75200000D02*
X103900000Y-75200000D01*
X101100000Y-74800000D02*
X102077400Y-74800000D01*
X114250000Y-72750000D02*
X114250000Y-73250000D01*
X106252345Y-71716588D02*
X112397654Y-71716588D01*
X103900000Y-75200000D02*
X104550000Y-74550000D01*
X113700000Y-75900000D02*
X113700000Y-73800000D01*
X113700000Y-73800000D02*
X114250000Y-73250000D01*
X114250000Y-73250000D02*
X114250000Y-73750000D01*
M02*
