M48
;DRILL file {KiCad 4.0.5} date 2017 June 13, Tuesday 07:26:28
;FORMAT={-:-/ absolute / inch / decimal}
FMAT,2
INCH,TZ
T1C0.008
T2C0.012
%
G90
G05
M72
T1
X4.3209Y-2.8839
X4.3799Y-2.8839
X4.4119Y-3.1395
X4.5036Y-2.9426
X4.5199Y-2.9551
X4.5571Y-2.8839
X4.6161Y-2.8839
X4.6366Y-3.1793
X4.7192Y-3.1793
X4.7734Y-3.1913
X4.792Y-2.901
X4.9547Y-2.838
X5.3366Y-3.1457
X5.4154Y-2.7972
X5.4166Y-2.8249
X5.439Y-2.8504
X5.4665Y-2.8996
X5.4685Y-2.9257
X5.5315Y-3.0945
X5.6083Y-3.1628
X5.6122Y-3.2126
X5.6811Y-2.9154
X5.6818Y-2.888
X5.6831Y-2.8445
X5.6831Y-2.8651
X5.7106Y-2.9941
X5.7992Y-2.874
X5.811Y-2.8445
X5.9803Y-3.1791
X6.063Y-2.8882
X6.063Y-2.9382
X6.063Y-3.0882
T2
X4.0748Y-2.6969
X4.252Y-2.6949
X4.313Y-2.6949
X4.3327Y-3.1167
X4.3876Y-3.1541
X4.5276Y-3.0034
X4.7185Y-3.1083
X4.939Y-3.1063
X5.0325Y-3.0482
X5.0925Y-3.0217
X5.5454Y-3.2423
X5.5525Y-3.0505
X5.5551Y-3.0177
X5.5682Y-3.221
X5.7492Y-3.0855
X5.7539Y-3.0374
T0
M30
