G04 #@! TF.FileFunction,Soldermask,Bot*
%FSLAX46Y46*%
G04 Gerber Fmt 4.6, Leading zero omitted, Abs format (unit mm)*
G04 Created by KiCad (PCBNEW (2015-08-02 BZR 6038)-product) date 2015 November 19, Thursday 21:17:08*
%MOMM*%
G01*
G04 APERTURE LIST*
%ADD10C,0.100000*%
%ADD11C,0.150000*%
%ADD12C,1.924000*%
%ADD13C,3.650000*%
%ADD14C,3.399740*%
%ADD15R,1.200100X1.200100*%
%ADD16R,1.700000X1.900000*%
%ADD17R,1.900000X1.700000*%
%ADD18R,2.432000X1.924000*%
%ADD19R,1.200100X2.200860*%
%ADD20R,2.432000X2.127200*%
%ADD21O,2.432000X2.127200*%
%ADD22R,1.200000X2.000000*%
%ADD23R,3.650000X2.550000*%
%ADD24R,1.400000X2.550000*%
%ADD25C,1.400000*%
G04 APERTURE END LIST*
D10*
D11*
X182000000Y-86400000D02*
X182000000Y-85650000D01*
X186200000Y-86600000D02*
X186200000Y-85850000D01*
X191000000Y-87000000D02*
X191750000Y-87000000D01*
D12*
X214988000Y-113110000D03*
X212448000Y-113110000D03*
X217528000Y-113110000D03*
X213718000Y-115650000D03*
X216258000Y-115650000D03*
X218798000Y-115650000D03*
D13*
X220830000Y-122000000D03*
X210670000Y-122000000D03*
D12*
X217310000Y-88040000D03*
X219850000Y-88040000D03*
X214770000Y-88040000D03*
X218580000Y-85500000D03*
X216040000Y-85500000D03*
X213500000Y-85500000D03*
D13*
X211468000Y-79150000D03*
X221628000Y-79150000D03*
D14*
X194500000Y-78750000D03*
X189501280Y-78750000D03*
D15*
X188700000Y-120250760D03*
X186800000Y-120250760D03*
X187750000Y-118251780D03*
D16*
X187000000Y-115850000D03*
X187000000Y-113150000D03*
X199850000Y-96750000D03*
X199850000Y-99450000D03*
X192750000Y-107500000D03*
X192750000Y-110200000D03*
D17*
X195450000Y-88000000D03*
X198150000Y-88000000D03*
D18*
X193610000Y-91390000D03*
X193610000Y-93930000D03*
X193610000Y-96470000D03*
X193610000Y-99010000D03*
X185990000Y-99010000D03*
X185990000Y-96470000D03*
X185990000Y-93930000D03*
X185990000Y-91390000D03*
D12*
X196870000Y-120820000D03*
X196870000Y-118280000D03*
X196870000Y-115740000D03*
X196870000Y-113200000D03*
X196870000Y-110660000D03*
X196870000Y-108120000D03*
X196870000Y-105580000D03*
X196870000Y-103040000D03*
X196870000Y-100500000D03*
X196870000Y-97960000D03*
X196870000Y-95420000D03*
X196870000Y-92880000D03*
X181630000Y-92880000D03*
X181630000Y-95420000D03*
X181630000Y-97960000D03*
X181630000Y-100500000D03*
X181630000Y-103040000D03*
X181630000Y-105580000D03*
X181630000Y-108120000D03*
X181630000Y-110660000D03*
X181630000Y-113200000D03*
X181630000Y-115740000D03*
X181630000Y-118280000D03*
X181630000Y-120820000D03*
D19*
X184800000Y-105498860D03*
X186700000Y-105498860D03*
X185750000Y-108501140D03*
X188750000Y-105500000D03*
X190650000Y-105500000D03*
X189700000Y-108502280D03*
D10*
G36*
X198501540Y-81650650D02*
X198501540Y-84349350D01*
X194499820Y-83749910D01*
X194499820Y-82250090D01*
X198501540Y-81650650D01*
X198501540Y-81650650D01*
G37*
G36*
X188698460Y-84349350D02*
X188698460Y-81650650D01*
X192700180Y-82250090D01*
X192700180Y-83749910D01*
X188698460Y-84349350D01*
X188698460Y-84349350D01*
G37*
G36*
X201650650Y-93898460D02*
X204349350Y-93898460D01*
X203749910Y-97900180D01*
X202250090Y-97900180D01*
X201650650Y-93898460D01*
X201650650Y-93898460D01*
G37*
G36*
X204349350Y-103701540D02*
X201650650Y-103701540D01*
X202250090Y-99699820D01*
X203749910Y-99699820D01*
X204349350Y-103701540D01*
X204349350Y-103701540D01*
G37*
G36*
X180300000Y-86000000D02*
X183700000Y-86000000D01*
X182700000Y-88400000D01*
X181300000Y-88400000D01*
X180300000Y-86000000D01*
X180300000Y-86000000D01*
G37*
G36*
X183700000Y-86000000D02*
X180300000Y-86000000D01*
X181300000Y-83600000D01*
X182700000Y-83600000D01*
X183700000Y-86000000D01*
X183700000Y-86000000D01*
G37*
G36*
X184500000Y-86200000D02*
X187900000Y-86200000D01*
X186900000Y-88600000D01*
X185500000Y-88600000D01*
X184500000Y-86200000D01*
X184500000Y-86200000D01*
G37*
G36*
X187900000Y-86200000D02*
X184500000Y-86200000D01*
X185500000Y-83800000D01*
X186900000Y-83800000D01*
X187900000Y-86200000D01*
X187900000Y-86200000D01*
G37*
G36*
X191400000Y-85300000D02*
X191400000Y-88700000D01*
X189000000Y-87700000D01*
X189000000Y-86300000D01*
X191400000Y-85300000D01*
X191400000Y-85300000D01*
G37*
G36*
X191400000Y-88700000D02*
X191400000Y-85300000D01*
X193800000Y-86300000D01*
X193800000Y-87700000D01*
X191400000Y-88700000D01*
X191400000Y-88700000D01*
G37*
D20*
X226000000Y-114500000D03*
D21*
X226000000Y-111960000D03*
X226000000Y-109420000D03*
X226000000Y-106880000D03*
D22*
X190480000Y-112950000D03*
X193020000Y-112950000D03*
X193020000Y-120050000D03*
X190480000Y-120050000D03*
D23*
X201900000Y-90900000D03*
D24*
X199600000Y-85100000D03*
X201900000Y-85100000D03*
X204200000Y-85100000D03*
D25*
X206000000Y-122800000D03*
X206000000Y-121200000D03*
X206000000Y-119600000D03*
X206000000Y-82200000D03*
X206000000Y-80600000D03*
X206000000Y-79000000D03*
M02*
