G04 #@! TF.FileFunction,Copper,L1,Top,Signal*
%FSLAX46Y46*%
G04 Gerber Fmt 4.6, Leading zero omitted, Abs format (unit mm)*
G04 Created by KiCad (PCBNEW (2015-08-02 BZR 6038)-product) date 2015 November 19, Thursday 21:17:08*
%MOMM*%
G01*
G04 APERTURE LIST*
%ADD10C,0.100000*%
%ADD11C,1.524000*%
%ADD12R,2.999740X1.600200*%
%ADD13C,2.999740*%
%ADD14R,1.500000X1.300000*%
%ADD15R,1.300000X1.500000*%
%ADD16R,2.032000X1.727200*%
%ADD17O,2.032000X1.727200*%
%ADD18R,0.800100X0.800100*%
%ADD19R,1.300000X0.900000*%
%ADD20R,1.524000X2.032000*%
%ADD21R,1.600000X1.600000*%
%ADD22C,0.600000*%
%ADD23C,0.250000*%
%ADD24C,0.254000*%
G04 APERTURE END LIST*
D10*
D11*
X214988000Y-113110000D03*
X212448000Y-113110000D03*
X217528000Y-113110000D03*
X213718000Y-115650000D03*
X216258000Y-115650000D03*
X218798000Y-115650000D03*
X217310000Y-88040000D03*
X219850000Y-88040000D03*
X214770000Y-88040000D03*
X218580000Y-85500000D03*
X216040000Y-85500000D03*
X213500000Y-85500000D03*
D12*
X195250000Y-85750000D03*
X199649280Y-85750000D03*
D13*
X194500000Y-78750000D03*
X189501280Y-78750000D03*
D14*
X184400000Y-105500000D03*
X187100000Y-105500000D03*
D15*
X184750000Y-112100000D03*
X184750000Y-109400000D03*
X184750000Y-117350000D03*
X184750000Y-114650000D03*
D14*
X184650000Y-119750000D03*
X187350000Y-119750000D03*
D11*
X196870000Y-120820000D03*
X196870000Y-118280000D03*
X196870000Y-115740000D03*
X196870000Y-113200000D03*
X196870000Y-110660000D03*
X196870000Y-108120000D03*
X196870000Y-105580000D03*
X196870000Y-103040000D03*
X196870000Y-100500000D03*
X196870000Y-97960000D03*
X196870000Y-95420000D03*
X196870000Y-92880000D03*
X181630000Y-92880000D03*
X181630000Y-95420000D03*
X181630000Y-97960000D03*
X181630000Y-100500000D03*
X181630000Y-103040000D03*
X181630000Y-105580000D03*
X181630000Y-108120000D03*
X181630000Y-110660000D03*
X181630000Y-113200000D03*
X181630000Y-115740000D03*
X181630000Y-118280000D03*
X181630000Y-120820000D03*
D10*
G36*
X180500000Y-86200000D02*
X183500000Y-86200000D01*
X182500000Y-88200000D01*
X181500000Y-88200000D01*
X180500000Y-86200000D01*
X180500000Y-86200000D01*
G37*
G36*
X184700000Y-86400000D02*
X187700000Y-86400000D01*
X186700000Y-88400000D01*
X185700000Y-88400000D01*
X184700000Y-86400000D01*
X184700000Y-86400000D01*
G37*
G36*
X191200000Y-85500000D02*
X191200000Y-88500000D01*
X189200000Y-87500000D01*
X189200000Y-86500000D01*
X191200000Y-85500000D01*
X191200000Y-85500000D01*
G37*
D16*
X226000000Y-114500000D03*
D17*
X226000000Y-111960000D03*
X226000000Y-109420000D03*
X226000000Y-106880000D03*
D18*
X215050000Y-102000760D03*
X216950000Y-102000760D03*
X216000000Y-100001780D03*
D15*
X216500000Y-108100000D03*
X216500000Y-105400000D03*
X214000000Y-93600000D03*
X214000000Y-90900000D03*
D14*
X222100000Y-103000000D03*
X219400000Y-103000000D03*
X213900000Y-96500000D03*
X216600000Y-96500000D03*
X224650000Y-103000000D03*
X227350000Y-103000000D03*
D15*
X216750000Y-90900000D03*
X216750000Y-93600000D03*
D19*
X187575000Y-108805000D03*
X187575000Y-110075000D03*
X187575000Y-111345000D03*
X187575000Y-112615000D03*
X187575000Y-113885000D03*
X187575000Y-115155000D03*
X187575000Y-116425000D03*
X187575000Y-117695000D03*
X193925000Y-117695000D03*
X193925000Y-116425000D03*
X193925000Y-115155000D03*
X193925000Y-113885000D03*
X193925000Y-112615000D03*
X193925000Y-111345000D03*
X193925000Y-110075000D03*
X193925000Y-108805000D03*
D20*
X219440000Y-99060000D03*
X221980000Y-99060000D03*
X224520000Y-99060000D03*
X227060000Y-99060000D03*
X227060000Y-91440000D03*
X224520000Y-91440000D03*
X221980000Y-91440000D03*
X219440000Y-91440000D03*
D21*
X190000000Y-124000000D03*
X192540000Y-124000000D03*
X195080000Y-124000000D03*
X187460000Y-124000000D03*
X184920000Y-124000000D03*
D22*
X193850000Y-83350000D03*
X199250000Y-91750000D03*
X199500000Y-92500000D03*
X200500000Y-92750000D03*
X201500000Y-92750000D03*
X202500000Y-92750000D03*
X204250000Y-90750000D03*
X204250000Y-89750000D03*
X204000000Y-89000000D03*
X203000000Y-89000000D03*
X202000000Y-89000000D03*
X201000000Y-89000000D03*
X200000000Y-89000000D03*
X199250000Y-89750000D03*
X199250000Y-90750000D03*
X204800000Y-87000000D03*
X190500000Y-110500000D03*
X214000000Y-95250000D03*
X219250000Y-93500000D03*
X186000000Y-89800000D03*
X208700000Y-82100000D03*
X195200000Y-96400000D03*
X201400000Y-101600000D03*
X195400000Y-94800000D03*
X198150000Y-96800000D03*
X191549588Y-90016500D03*
X187800000Y-93850000D03*
D23*
X195250000Y-85750000D02*
X195250000Y-84699900D01*
X195250000Y-84699900D02*
X193900100Y-83350000D01*
X193900100Y-83350000D02*
X193850000Y-83350000D01*
X217528000Y-113110000D02*
X217528000Y-115988762D01*
X214805001Y-116737001D02*
X213718000Y-115650000D01*
X217528000Y-115988762D02*
X216779761Y-116737001D01*
X216779761Y-116737001D02*
X214805001Y-116737001D01*
X199500000Y-92500000D02*
X199500000Y-92000000D01*
X199500000Y-92000000D02*
X199250000Y-91750000D01*
X201500000Y-92750000D02*
X200500000Y-92750000D01*
X204250000Y-90750000D02*
X202500000Y-92500000D01*
X202500000Y-92500000D02*
X202500000Y-92750000D01*
X204000000Y-89000000D02*
X204000000Y-89500000D01*
X204000000Y-89500000D02*
X204250000Y-89750000D01*
X202000000Y-89000000D02*
X203000000Y-89000000D01*
X200000000Y-89000000D02*
X201000000Y-89000000D01*
X199250000Y-90750000D02*
X199250000Y-89750000D01*
X204800000Y-87000000D02*
X199849180Y-87000000D01*
X199849180Y-87000000D02*
X199649280Y-86800100D01*
X199649280Y-86800100D02*
X199649280Y-85750000D01*
X204800000Y-91107630D02*
X204800000Y-87000000D01*
X196870000Y-97960000D02*
X197947630Y-97960000D01*
X197947630Y-97960000D02*
X204800000Y-91107630D01*
X190500000Y-110500000D02*
X190799999Y-110200001D01*
X190799999Y-110200001D02*
X190799999Y-106570001D01*
X190799999Y-106570001D02*
X196870000Y-100500000D01*
X190500000Y-110500000D02*
X190075000Y-110075000D01*
X190075000Y-110075000D02*
X187575000Y-110075000D01*
X219440000Y-99060000D02*
X219440000Y-102960000D01*
X219440000Y-102960000D02*
X219400000Y-103000000D01*
X219440000Y-99060000D02*
X218428000Y-99060000D01*
X218428000Y-99060000D02*
X216950000Y-100538000D01*
X216950000Y-100538000D02*
X216950000Y-102000760D01*
X227350000Y-103000000D02*
X227271412Y-103000000D01*
X227271412Y-103000000D02*
X225846401Y-104425011D01*
X225846401Y-104425011D02*
X221540007Y-104425009D01*
X221540007Y-104425009D02*
X220114998Y-103000000D01*
X220114998Y-103000000D02*
X219400000Y-103000000D01*
X227350000Y-103000000D02*
X227350000Y-105682400D01*
X227350000Y-105682400D02*
X226152400Y-106880000D01*
X226152400Y-106880000D02*
X226000000Y-106880000D01*
X227350000Y-103000000D02*
X227350000Y-99350000D01*
X227350000Y-99350000D02*
X227060000Y-99060000D01*
X187575000Y-117695000D02*
X188475000Y-117695000D01*
X188475000Y-117695000D02*
X188550001Y-117619999D01*
X188550001Y-117619999D02*
X188550001Y-110150001D01*
X188550001Y-110150001D02*
X188475000Y-110075000D01*
X188475000Y-110075000D02*
X187575000Y-110075000D01*
X188550001Y-117619999D02*
X188550001Y-112690001D01*
X188550001Y-112690001D02*
X188475000Y-112615000D01*
X188475000Y-112615000D02*
X187575000Y-112615000D01*
X188550001Y-117619999D02*
X188550001Y-115230001D01*
X188550001Y-115230001D02*
X188475000Y-115155000D01*
X188475000Y-115155000D02*
X187575000Y-115155000D01*
X219250000Y-93500000D02*
X219250000Y-91630000D01*
X219250000Y-91630000D02*
X219440000Y-91440000D01*
X213900000Y-96500000D02*
X213900000Y-95350000D01*
X213900000Y-95350000D02*
X214000000Y-95250000D01*
X213750000Y-96650000D02*
X213900000Y-96500000D01*
X213900000Y-96500000D02*
X211500000Y-96500000D01*
X211500000Y-96500000D02*
X208700000Y-93700000D01*
X208700000Y-93700000D02*
X208700000Y-82100000D01*
X183600000Y-91775736D02*
X183600000Y-98530000D01*
X183600000Y-98530000D02*
X181630000Y-100500000D01*
X186000000Y-89800000D02*
X185575736Y-89800000D01*
X185575736Y-89800000D02*
X183600000Y-91775736D01*
X186000000Y-89800000D02*
X188800000Y-87000000D01*
X188800000Y-87000000D02*
X190200000Y-87000000D01*
X213702000Y-85350000D02*
X213702000Y-84272370D01*
X213702000Y-84272370D02*
X213452000Y-84022370D01*
X213452000Y-84022370D02*
X213452000Y-83390000D01*
X198800000Y-83050000D02*
X194500000Y-78750000D01*
X206600000Y-83050000D02*
X198800000Y-83050000D01*
X208175001Y-81474999D02*
X206600000Y-83050000D01*
X195847001Y-99047001D02*
X195200000Y-98400000D01*
X195200000Y-98400000D02*
X195200000Y-96400000D01*
X201400000Y-101600000D02*
X198847001Y-99047001D01*
X198847001Y-99047001D02*
X195847001Y-99047001D01*
X211536999Y-81474999D02*
X208175001Y-81474999D01*
X213452000Y-83390000D02*
X211536999Y-81474999D01*
X219850000Y-88040000D02*
X219850000Y-80898000D01*
X215945129Y-76993129D02*
X208543129Y-76993129D01*
X219850000Y-80898000D02*
X215945129Y-76993129D01*
X208543129Y-76993129D02*
X207386258Y-78150000D01*
X207386258Y-78150000D02*
X205450000Y-78150000D01*
X205450000Y-78150000D02*
X203150000Y-75850000D01*
X203150000Y-75850000D02*
X192401280Y-75850000D01*
X192401280Y-75850000D02*
X189501280Y-78750000D01*
X198150000Y-96800000D02*
X196641238Y-96800000D01*
X196641238Y-96800000D02*
X195400000Y-95558762D01*
X195400000Y-95558762D02*
X195400000Y-94800000D01*
X181630000Y-103040000D02*
X184090000Y-105500000D01*
X184090000Y-105500000D02*
X184400000Y-105500000D01*
X187100000Y-105500000D02*
X187100000Y-108330000D01*
X187100000Y-108330000D02*
X187575000Y-108805000D01*
X181630000Y-105580000D02*
X183774999Y-107724999D01*
X183774999Y-107724999D02*
X183774999Y-111024999D01*
X183774999Y-111024999D02*
X184750000Y-112000000D01*
X184750000Y-112000000D02*
X184750000Y-112100000D01*
X184750000Y-109400000D02*
X184750000Y-109500000D01*
X184750000Y-109500000D02*
X186595000Y-111345000D01*
X186595000Y-111345000D02*
X187575000Y-111345000D01*
X181630000Y-108120000D02*
X181630000Y-109051238D01*
X181630000Y-109051238D02*
X183324989Y-110746227D01*
X183324989Y-110746227D02*
X183324989Y-115824989D01*
X183324989Y-115824989D02*
X184750000Y-117250000D01*
X184750000Y-117250000D02*
X184750000Y-117350000D01*
X184750000Y-114650000D02*
X185650000Y-114650000D01*
X185650000Y-114650000D02*
X186415000Y-113885000D01*
X186415000Y-113885000D02*
X187575000Y-113885000D01*
X181630000Y-110660000D02*
X182717001Y-111747001D01*
X182717001Y-111747001D02*
X182717001Y-117917001D01*
X182717001Y-117917001D02*
X184550000Y-119750000D01*
X184550000Y-119750000D02*
X184650000Y-119750000D01*
X187350000Y-119750000D02*
X187250000Y-119750000D01*
X186599999Y-116500001D02*
X186675000Y-116425000D01*
X187250000Y-119750000D02*
X186599999Y-119099999D01*
X186599999Y-119099999D02*
X186599999Y-116500001D01*
X186675000Y-116425000D02*
X187575000Y-116425000D01*
X189049996Y-112875006D02*
X193120002Y-108805000D01*
X189049996Y-120035006D02*
X189049996Y-112875006D01*
X184920000Y-124000000D02*
X185085002Y-124000000D01*
X193120002Y-108805000D02*
X193925000Y-108805000D01*
X185085002Y-124000000D02*
X189049996Y-120035006D01*
X193025000Y-111345000D02*
X189500006Y-114869994D01*
X193925000Y-111345000D02*
X193025000Y-111345000D01*
X187460000Y-122261412D02*
X187460000Y-124000000D01*
X189500006Y-114869994D02*
X189500005Y-120221407D01*
X189500005Y-120221407D02*
X187460000Y-122261412D01*
X195080000Y-112603063D02*
X195080000Y-114867673D01*
X195080000Y-114867673D02*
X195080000Y-117514621D01*
X193925000Y-115155000D02*
X194825000Y-115155000D01*
X194825000Y-115155000D02*
X195080000Y-114900000D01*
X195080000Y-114900000D02*
X195080000Y-114867673D01*
X195080000Y-117514621D02*
X195080000Y-124000000D01*
X193925000Y-117695000D02*
X194825000Y-117695000D01*
X194825000Y-117695000D02*
X195005379Y-117514621D01*
X195005379Y-117514621D02*
X195080000Y-117514621D01*
X195080000Y-110330000D02*
X195080000Y-112603063D01*
X193925000Y-112615000D02*
X194825000Y-112615000D01*
X194836937Y-112603063D02*
X195080000Y-112603063D01*
X194825000Y-112615000D02*
X194836937Y-112603063D01*
X193925000Y-110075000D02*
X194825000Y-110075000D01*
X194825000Y-110075000D02*
X195080000Y-110330000D01*
X193925000Y-113885000D02*
X193025000Y-113885000D01*
X193025000Y-113885000D02*
X190000000Y-116910000D01*
X190000000Y-116910000D02*
X190000000Y-124000000D01*
X193925000Y-116425000D02*
X193025000Y-116425000D01*
X193025000Y-116425000D02*
X192540000Y-116910000D01*
X192540000Y-116910000D02*
X192540000Y-124000000D01*
X187800000Y-93850000D02*
X191549588Y-90100412D01*
X191549588Y-90100412D02*
X191549588Y-90016500D01*
X213787997Y-89127001D02*
X216222999Y-89127001D01*
X216222999Y-89127001D02*
X217310000Y-88040000D01*
X217512000Y-87890000D02*
X217512000Y-86620000D01*
X217512000Y-86620000D02*
X216242000Y-85350000D01*
X217100009Y-88436401D02*
X217100009Y-88301991D01*
X217100009Y-88301991D02*
X217512000Y-87890000D01*
X217512000Y-87697630D02*
X217512000Y-87799990D01*
X214000000Y-93600000D02*
X214975001Y-94575001D01*
X212500000Y-93000000D02*
X212500000Y-90414998D01*
X212500000Y-90414998D02*
X213787997Y-89127001D01*
X214000000Y-93600000D02*
X213100000Y-93600000D01*
X213100000Y-93600000D02*
X212500000Y-93000000D01*
X216258000Y-115650000D02*
X216258000Y-114380000D01*
X216258000Y-114380000D02*
X214324949Y-112446949D01*
X214324949Y-112446949D02*
X214324949Y-101026781D01*
X214324949Y-101026781D02*
X215349950Y-100001780D01*
X215349950Y-100001780D02*
X216000000Y-100001780D01*
X214000000Y-93600000D02*
X214000000Y-93500000D01*
X216000000Y-100001780D02*
X216000000Y-99351730D01*
X216000000Y-99351730D02*
X214975001Y-98326731D01*
X214975001Y-98326731D02*
X214975001Y-94575001D01*
X226000000Y-111960000D02*
X225847600Y-111960000D01*
X225847600Y-111960000D02*
X219032601Y-118774999D01*
X219032601Y-118774999D02*
X204984999Y-118774999D01*
X204984999Y-118774999D02*
X196870000Y-110660000D01*
X216500000Y-108100000D02*
X222140000Y-108100000D01*
X222140000Y-108100000D02*
X224734000Y-110694000D01*
X224734000Y-110694000D02*
X224734000Y-110846400D01*
X224734000Y-110846400D02*
X225847600Y-111960000D01*
X220892999Y-90098999D02*
X218451001Y-90098999D01*
X218451001Y-90098999D02*
X217650000Y-90900000D01*
X207042871Y-120357129D02*
X209183859Y-120357129D01*
X221250000Y-119500000D02*
X210040988Y-119500000D01*
X210040988Y-119500000D02*
X209183859Y-120357129D01*
X223750000Y-117000000D02*
X221250000Y-119500000D01*
X225964602Y-117000000D02*
X223750000Y-117000000D01*
X226152400Y-109420000D02*
X227341001Y-110608601D01*
X227341001Y-110608601D02*
X227341001Y-115623601D01*
X227341001Y-115623601D02*
X225964602Y-117000000D01*
X221980000Y-91440000D02*
X221980000Y-91186000D01*
X221980000Y-91186000D02*
X220892999Y-90098999D01*
X217650000Y-90900000D02*
X216750000Y-90900000D01*
X221980000Y-91440000D02*
X221980000Y-91694000D01*
X221980000Y-91694000D02*
X228425001Y-98139001D01*
X207000000Y-120400000D02*
X207042871Y-120357129D01*
X207000000Y-120400000D02*
X205400000Y-120400000D01*
X197631999Y-117518001D02*
X202518001Y-117518001D01*
X197631999Y-117518001D02*
X196870000Y-118280000D01*
X202518001Y-117518001D02*
X205400000Y-120400000D01*
X228425001Y-98139001D02*
X228425001Y-107147399D01*
X228425001Y-107147399D02*
X226152400Y-109420000D01*
X226152400Y-109420000D02*
X226000000Y-109420000D01*
X196870000Y-108120000D02*
X195782999Y-109207001D01*
X195782999Y-109207001D02*
X195782999Y-117192999D01*
X195782999Y-117192999D02*
X196870000Y-118280000D01*
X216500000Y-91200000D02*
X216500000Y-91100000D01*
X215050000Y-102000760D02*
X215050000Y-104850000D01*
X215050000Y-104850000D02*
X215600000Y-105400000D01*
X215600000Y-105400000D02*
X216500000Y-105400000D01*
X216750000Y-93600000D02*
X216750000Y-93500000D01*
X216750000Y-93500000D02*
X214150000Y-90900000D01*
X214150000Y-90900000D02*
X214000000Y-90900000D01*
X221980000Y-99060000D02*
X221980000Y-98806000D01*
X215524999Y-94925001D02*
X216750000Y-93700000D01*
X221980000Y-98806000D02*
X220649001Y-97475001D01*
X220649001Y-97475001D02*
X215589999Y-97475001D01*
X215589999Y-97475001D02*
X215524999Y-97410001D01*
X215524999Y-97410001D02*
X215524999Y-94925001D01*
X216750000Y-93700000D02*
X216750000Y-93600000D01*
X217234000Y-93900000D02*
X216500000Y-93900000D01*
X222200000Y-103000000D02*
X222100000Y-103000000D01*
X221980000Y-99060000D02*
X221980000Y-102880000D01*
X221980000Y-102880000D02*
X222100000Y-103000000D01*
X224520000Y-99060000D02*
X224520000Y-98806000D01*
X224520000Y-98806000D02*
X222214000Y-96500000D01*
X222214000Y-96500000D02*
X216600000Y-96500000D01*
X224650000Y-103000000D02*
X224650000Y-99366998D01*
X224650000Y-103000000D02*
X224650000Y-99190000D01*
X224650000Y-99190000D02*
X224520000Y-99060000D01*
D24*
G36*
X193057808Y-82819673D02*
X192915162Y-83163201D01*
X192914838Y-83535167D01*
X193056883Y-83878943D01*
X193319673Y-84142192D01*
X193663201Y-84284838D01*
X193760221Y-84284923D01*
X193777758Y-84302460D01*
X193750130Y-84302460D01*
X193514813Y-84346738D01*
X193298689Y-84485810D01*
X193153699Y-84698010D01*
X193102690Y-84949900D01*
X193102690Y-86550100D01*
X193146968Y-86785417D01*
X193286040Y-87001541D01*
X193498240Y-87146531D01*
X193750130Y-87197540D01*
X196749870Y-87197540D01*
X196985187Y-87153262D01*
X197201311Y-87014190D01*
X197346301Y-86801990D01*
X197397310Y-86550100D01*
X197397310Y-86035750D01*
X197514410Y-86035750D01*
X197514410Y-86676410D01*
X197611083Y-86909799D01*
X197789712Y-87088427D01*
X198023101Y-87185100D01*
X199363530Y-87185100D01*
X199522280Y-87026350D01*
X199522280Y-85877000D01*
X199776280Y-85877000D01*
X199776280Y-87026350D01*
X199935030Y-87185100D01*
X201275459Y-87185100D01*
X201508848Y-87088427D01*
X201687477Y-86909799D01*
X201784150Y-86676410D01*
X201784150Y-86035750D01*
X201625400Y-85877000D01*
X199776280Y-85877000D01*
X199522280Y-85877000D01*
X197673160Y-85877000D01*
X197514410Y-86035750D01*
X197397310Y-86035750D01*
X197397310Y-84949900D01*
X197373544Y-84823590D01*
X197514410Y-84823590D01*
X197514410Y-85464250D01*
X197673160Y-85623000D01*
X199522280Y-85623000D01*
X199522280Y-84473650D01*
X199776280Y-84473650D01*
X199776280Y-85623000D01*
X201625400Y-85623000D01*
X201784150Y-85464250D01*
X201784150Y-84823590D01*
X201687477Y-84590201D01*
X201508848Y-84411573D01*
X201275459Y-84314900D01*
X199935030Y-84314900D01*
X199776280Y-84473650D01*
X199522280Y-84473650D01*
X199363530Y-84314900D01*
X198023101Y-84314900D01*
X197789712Y-84411573D01*
X197611083Y-84590201D01*
X197514410Y-84823590D01*
X197373544Y-84823590D01*
X197353032Y-84714583D01*
X197213960Y-84498459D01*
X197001760Y-84353469D01*
X196749870Y-84302460D01*
X195880920Y-84302460D01*
X195787401Y-84162499D01*
X194781942Y-83157040D01*
X194643117Y-82821057D01*
X194449398Y-82627000D01*
X197302198Y-82627000D01*
X198262599Y-83587401D01*
X198509160Y-83752148D01*
X198800000Y-83810000D01*
X204539373Y-83810000D01*
X204528162Y-83866364D01*
X204528162Y-83933830D01*
X204515000Y-84000000D01*
X204515000Y-107373000D01*
X198072902Y-107373000D01*
X198055010Y-107329697D01*
X197662370Y-106936371D01*
X197454488Y-106850051D01*
X197660303Y-106765010D01*
X198053629Y-106372370D01*
X198266757Y-105859100D01*
X198267242Y-105303339D01*
X198055010Y-104789697D01*
X197662370Y-104396371D01*
X197454488Y-104310051D01*
X197660303Y-104225010D01*
X198053629Y-103832370D01*
X198266757Y-103319100D01*
X198267242Y-102763339D01*
X198055010Y-102249697D01*
X197662370Y-101856371D01*
X197470273Y-101776605D01*
X197601143Y-101722397D01*
X197670608Y-101480213D01*
X196870000Y-100679605D01*
X196069392Y-101480213D01*
X196138857Y-101722397D01*
X196279318Y-101772509D01*
X196079697Y-101854990D01*
X195686371Y-102247630D01*
X195473243Y-102760900D01*
X195472758Y-103316661D01*
X195684990Y-103830303D01*
X196077630Y-104223629D01*
X196285512Y-104309949D01*
X196079697Y-104394990D01*
X195686371Y-104787630D01*
X195473243Y-105300900D01*
X195472758Y-105856661D01*
X195684990Y-106370303D01*
X196077630Y-106763629D01*
X196285512Y-106849949D01*
X196079697Y-106934990D01*
X195686371Y-107327630D01*
X195667532Y-107373000D01*
X192500000Y-107373000D01*
X192450590Y-107383006D01*
X192408965Y-107411447D01*
X192381685Y-107453841D01*
X192373000Y-107500000D01*
X192373000Y-108477200D01*
X188845798Y-112004402D01*
X188835211Y-111978844D01*
X188872440Y-111795000D01*
X188872440Y-110895000D01*
X188837024Y-110706779D01*
X188860000Y-110651310D01*
X188860000Y-110360750D01*
X188701250Y-110202000D01*
X187702000Y-110202000D01*
X187702000Y-110222000D01*
X187448000Y-110222000D01*
X187448000Y-110202000D01*
X187428000Y-110202000D01*
X187428000Y-109948000D01*
X187448000Y-109948000D01*
X187448000Y-109928000D01*
X187702000Y-109928000D01*
X187702000Y-109948000D01*
X188701250Y-109948000D01*
X188860000Y-109789250D01*
X188860000Y-109498690D01*
X188835211Y-109438844D01*
X188872440Y-109255000D01*
X188872440Y-108355000D01*
X188828162Y-108119683D01*
X188689090Y-107903559D01*
X188476890Y-107758569D01*
X188225000Y-107707560D01*
X187860000Y-107707560D01*
X187860000Y-106795558D01*
X188085317Y-106753162D01*
X188301441Y-106614090D01*
X188446431Y-106401890D01*
X188497440Y-106150000D01*
X188497440Y-104850000D01*
X188453162Y-104614683D01*
X188314090Y-104398559D01*
X188101890Y-104253569D01*
X187850000Y-104202560D01*
X186350000Y-104202560D01*
X186114683Y-104246838D01*
X185898559Y-104385910D01*
X185753569Y-104598110D01*
X185750919Y-104611197D01*
X185614090Y-104398559D01*
X185401890Y-104253569D01*
X185150000Y-104202560D01*
X183867362Y-104202560D01*
X183014183Y-103349381D01*
X183026757Y-103319100D01*
X183027242Y-102763339D01*
X182815010Y-102249697D01*
X182422370Y-101856371D01*
X182214488Y-101770051D01*
X182420303Y-101685010D01*
X182813629Y-101292370D01*
X183026757Y-100779100D01*
X183027242Y-100223339D01*
X183013857Y-100190945D01*
X184137401Y-99067401D01*
X184302148Y-98820839D01*
X184360000Y-98530000D01*
X184360000Y-96585167D01*
X194264838Y-96585167D01*
X194406883Y-96928943D01*
X194440000Y-96962118D01*
X194440000Y-98400000D01*
X194497852Y-98690839D01*
X194662599Y-98937401D01*
X195309600Y-99584402D01*
X195556162Y-99749149D01*
X195650730Y-99767960D01*
X195647603Y-99768857D01*
X195460856Y-100292302D01*
X195488638Y-100847368D01*
X195647603Y-101231143D01*
X195889787Y-101300608D01*
X196690395Y-100500000D01*
X196676253Y-100485858D01*
X196855858Y-100306253D01*
X196870000Y-100320395D01*
X196884143Y-100306253D01*
X197063748Y-100485858D01*
X197049605Y-100500000D01*
X197850213Y-101300608D01*
X198092397Y-101231143D01*
X198279144Y-100707698D01*
X198251362Y-100152632D01*
X198108197Y-99807001D01*
X198532199Y-99807001D01*
X200464878Y-101739680D01*
X200464838Y-101785167D01*
X200606883Y-102128943D01*
X200869673Y-102392192D01*
X201213201Y-102534838D01*
X201585167Y-102535162D01*
X201928943Y-102393117D01*
X202192192Y-102130327D01*
X202334838Y-101786799D01*
X202335162Y-101414833D01*
X202193117Y-101071057D01*
X201930327Y-100807808D01*
X201586799Y-100665162D01*
X201539923Y-100665121D01*
X199384402Y-98509600D01*
X199137840Y-98344853D01*
X198847001Y-98287001D01*
X198236581Y-98287001D01*
X198279144Y-98167698D01*
X198257491Y-97735094D01*
X198335167Y-97735162D01*
X198678943Y-97593117D01*
X198942192Y-97330327D01*
X199084838Y-96986799D01*
X199085162Y-96614833D01*
X198943117Y-96271057D01*
X198680327Y-96007808D01*
X198336799Y-95865162D01*
X198197852Y-95865041D01*
X198266757Y-95699100D01*
X198267242Y-95143339D01*
X198055010Y-94629697D01*
X197662370Y-94236371D01*
X197454488Y-94150051D01*
X197660303Y-94065010D01*
X198053629Y-93672370D01*
X198266757Y-93159100D01*
X198267242Y-92603339D01*
X198055010Y-92089697D01*
X197662370Y-91696371D01*
X197149100Y-91483243D01*
X196593339Y-91482758D01*
X196079697Y-91694990D01*
X195686371Y-92087630D01*
X195473243Y-92600900D01*
X195472758Y-93156661D01*
X195684990Y-93670303D01*
X196077630Y-94063629D01*
X196285512Y-94149949D01*
X196134506Y-94212343D01*
X195930327Y-94007808D01*
X195586799Y-93865162D01*
X195214833Y-93864838D01*
X194871057Y-94006883D01*
X194607808Y-94269673D01*
X194465162Y-94613201D01*
X194464838Y-94985167D01*
X194606883Y-95328943D01*
X194640000Y-95362118D01*
X194640000Y-95558762D01*
X194653131Y-95624777D01*
X194407808Y-95869673D01*
X194265162Y-96213201D01*
X194264838Y-96585167D01*
X184360000Y-96585167D01*
X184360000Y-92090538D01*
X185744307Y-90706231D01*
X185813201Y-90734838D01*
X186185167Y-90735162D01*
X186528943Y-90593117D01*
X186792192Y-90330327D01*
X186934838Y-89986799D01*
X186934879Y-89939923D01*
X188846054Y-88028748D01*
X188910456Y-88079088D01*
X190910456Y-89079088D01*
X191182113Y-89147193D01*
X191221700Y-89140309D01*
X191020645Y-89223383D01*
X190757396Y-89486173D01*
X190614750Y-89829701D01*
X190614636Y-89960562D01*
X187660320Y-92914878D01*
X187614833Y-92914838D01*
X187271057Y-93056883D01*
X187007808Y-93319673D01*
X186865162Y-93663201D01*
X186864838Y-94035167D01*
X187006883Y-94378943D01*
X187269673Y-94642192D01*
X187613201Y-94784838D01*
X187985167Y-94785162D01*
X188328943Y-94643117D01*
X188592192Y-94380327D01*
X188734838Y-94036799D01*
X188734879Y-93989923D01*
X191800168Y-90924634D01*
X192078531Y-90809617D01*
X192341780Y-90546827D01*
X192484426Y-90203299D01*
X192484750Y-89831333D01*
X192342705Y-89487557D01*
X192079915Y-89224308D01*
X191736387Y-89081662D01*
X191469091Y-89081429D01*
X191651441Y-88964090D01*
X191796431Y-88751890D01*
X191847440Y-88500000D01*
X191847440Y-85500000D01*
X191786866Y-85226565D01*
X191634248Y-85019784D01*
X191413204Y-84888671D01*
X191158566Y-84853887D01*
X190910456Y-84920912D01*
X188910456Y-85920912D01*
X188748559Y-86035910D01*
X188603569Y-86248110D01*
X188597036Y-86280372D01*
X188509161Y-86297852D01*
X188345353Y-86407305D01*
X188303162Y-86164683D01*
X188164090Y-85948559D01*
X187951890Y-85803569D01*
X187700000Y-85752560D01*
X186327000Y-85752560D01*
X186327000Y-87273000D01*
X186347000Y-87273000D01*
X186347000Y-87527000D01*
X186327000Y-87527000D01*
X186327000Y-87547000D01*
X186073000Y-87547000D01*
X186073000Y-87527000D01*
X184539640Y-87527000D01*
X185120912Y-88689544D01*
X185235910Y-88851441D01*
X185448110Y-88996431D01*
X185480486Y-89002987D01*
X185471057Y-89006883D01*
X185403578Y-89074245D01*
X185284897Y-89097852D01*
X185038335Y-89262599D01*
X183062599Y-91238335D01*
X182897852Y-91484897D01*
X182840000Y-91775736D01*
X182840000Y-92150178D01*
X182815010Y-92089697D01*
X182422370Y-91696371D01*
X181909100Y-91483243D01*
X181353339Y-91482758D01*
X180839697Y-91694990D01*
X180446371Y-92087630D01*
X180233243Y-92600900D01*
X180232758Y-93156661D01*
X180444990Y-93670303D01*
X180837630Y-94063629D01*
X181029727Y-94143395D01*
X180898857Y-94197603D01*
X180829392Y-94439787D01*
X181630000Y-95240395D01*
X182430608Y-94439787D01*
X182361143Y-94197603D01*
X182220682Y-94147491D01*
X182420303Y-94065010D01*
X182813629Y-93672370D01*
X182840000Y-93608861D01*
X182840000Y-94685301D01*
X182610213Y-94619392D01*
X181809605Y-95420000D01*
X182610213Y-96220608D01*
X182840000Y-96154699D01*
X182840000Y-97230178D01*
X182815010Y-97169697D01*
X182422370Y-96776371D01*
X182230273Y-96696605D01*
X182361143Y-96642397D01*
X182430608Y-96400213D01*
X181630000Y-95599605D01*
X180829392Y-96400213D01*
X180898857Y-96642397D01*
X181039318Y-96692509D01*
X180839697Y-96774990D01*
X180446371Y-97167630D01*
X180233243Y-97680900D01*
X180232758Y-98236661D01*
X180444990Y-98750303D01*
X180837630Y-99143629D01*
X181045512Y-99229949D01*
X180839697Y-99314990D01*
X180446371Y-99707630D01*
X180233243Y-100220900D01*
X180232758Y-100776661D01*
X180444990Y-101290303D01*
X180837630Y-101683629D01*
X181045512Y-101769949D01*
X180839697Y-101854990D01*
X180446371Y-102247630D01*
X180233243Y-102760900D01*
X180232758Y-103316661D01*
X180444990Y-103830303D01*
X180837630Y-104223629D01*
X181045512Y-104309949D01*
X180839697Y-104394990D01*
X180446371Y-104787630D01*
X180233243Y-105300900D01*
X180232758Y-105856661D01*
X180444990Y-106370303D01*
X180837630Y-106763629D01*
X181045512Y-106849949D01*
X180839697Y-106934990D01*
X180446371Y-107327630D01*
X180233243Y-107840900D01*
X180232758Y-108396661D01*
X180444990Y-108910303D01*
X180837630Y-109303629D01*
X180927639Y-109341004D01*
X180927852Y-109342077D01*
X180978375Y-109417690D01*
X180839697Y-109474990D01*
X180446371Y-109867630D01*
X180233243Y-110380900D01*
X180232758Y-110936661D01*
X180444990Y-111450303D01*
X180837630Y-111843629D01*
X181045512Y-111929949D01*
X180839697Y-112014990D01*
X180446371Y-112407630D01*
X180233243Y-112920900D01*
X180232758Y-113476661D01*
X180444990Y-113990303D01*
X180837630Y-114383629D01*
X181045512Y-114469949D01*
X180839697Y-114554990D01*
X180446371Y-114947630D01*
X180233243Y-115460900D01*
X180232758Y-116016661D01*
X180444990Y-116530303D01*
X180837630Y-116923629D01*
X181045512Y-117009949D01*
X180839697Y-117094990D01*
X180446371Y-117487630D01*
X180233243Y-118000900D01*
X180232758Y-118556661D01*
X180444990Y-119070303D01*
X180837630Y-119463629D01*
X181045512Y-119549949D01*
X180839697Y-119634990D01*
X180446371Y-120027630D01*
X180233243Y-120540900D01*
X180232758Y-121096661D01*
X180444990Y-121610303D01*
X180837630Y-122003629D01*
X181350900Y-122216757D01*
X181906661Y-122217242D01*
X182420303Y-122005010D01*
X182813629Y-121612370D01*
X183026757Y-121099100D01*
X183027242Y-120543339D01*
X182815010Y-120029697D01*
X182422370Y-119636371D01*
X182214488Y-119550051D01*
X182420303Y-119465010D01*
X182805591Y-119080393D01*
X183252560Y-119527362D01*
X183252560Y-120400000D01*
X183296838Y-120635317D01*
X183435910Y-120851441D01*
X183648110Y-120996431D01*
X183900000Y-121047440D01*
X185400000Y-121047440D01*
X185635317Y-121003162D01*
X185851441Y-120864090D01*
X185996431Y-120651890D01*
X185999081Y-120638803D01*
X186135910Y-120851441D01*
X186348110Y-120996431D01*
X186600000Y-121047440D01*
X186962760Y-121047440D01*
X185637200Y-122373000D01*
X180244257Y-122373000D01*
X180127000Y-122197512D01*
X180127000Y-95212302D01*
X180220856Y-95212302D01*
X180248638Y-95767368D01*
X180407603Y-96151143D01*
X180649787Y-96220608D01*
X181450395Y-95420000D01*
X180649787Y-94619392D01*
X180407603Y-94688857D01*
X180220856Y-95212302D01*
X180127000Y-95212302D01*
X180127000Y-86901720D01*
X180920912Y-88489544D01*
X181035910Y-88651441D01*
X181248110Y-88796431D01*
X181500000Y-88847440D01*
X182500000Y-88847440D01*
X182696234Y-88816985D01*
X182920815Y-88692030D01*
X183079088Y-88489544D01*
X184071164Y-86505391D01*
X184120912Y-86689544D01*
X184412640Y-87273000D01*
X186073000Y-87273000D01*
X186073000Y-85752560D01*
X184700000Y-85752560D01*
X184426565Y-85813134D01*
X184219784Y-85965752D01*
X184129745Y-86117550D01*
X184103162Y-85964683D01*
X183964090Y-85748559D01*
X183751890Y-85603569D01*
X183500000Y-85552560D01*
X180500000Y-85552560D01*
X180226565Y-85613134D01*
X180127000Y-85686620D01*
X180127000Y-82627000D01*
X193250818Y-82627000D01*
X193057808Y-82819673D01*
X193057808Y-82819673D01*
G37*
X193057808Y-82819673D02*
X192915162Y-83163201D01*
X192914838Y-83535167D01*
X193056883Y-83878943D01*
X193319673Y-84142192D01*
X193663201Y-84284838D01*
X193760221Y-84284923D01*
X193777758Y-84302460D01*
X193750130Y-84302460D01*
X193514813Y-84346738D01*
X193298689Y-84485810D01*
X193153699Y-84698010D01*
X193102690Y-84949900D01*
X193102690Y-86550100D01*
X193146968Y-86785417D01*
X193286040Y-87001541D01*
X193498240Y-87146531D01*
X193750130Y-87197540D01*
X196749870Y-87197540D01*
X196985187Y-87153262D01*
X197201311Y-87014190D01*
X197346301Y-86801990D01*
X197397310Y-86550100D01*
X197397310Y-86035750D01*
X197514410Y-86035750D01*
X197514410Y-86676410D01*
X197611083Y-86909799D01*
X197789712Y-87088427D01*
X198023101Y-87185100D01*
X199363530Y-87185100D01*
X199522280Y-87026350D01*
X199522280Y-85877000D01*
X199776280Y-85877000D01*
X199776280Y-87026350D01*
X199935030Y-87185100D01*
X201275459Y-87185100D01*
X201508848Y-87088427D01*
X201687477Y-86909799D01*
X201784150Y-86676410D01*
X201784150Y-86035750D01*
X201625400Y-85877000D01*
X199776280Y-85877000D01*
X199522280Y-85877000D01*
X197673160Y-85877000D01*
X197514410Y-86035750D01*
X197397310Y-86035750D01*
X197397310Y-84949900D01*
X197373544Y-84823590D01*
X197514410Y-84823590D01*
X197514410Y-85464250D01*
X197673160Y-85623000D01*
X199522280Y-85623000D01*
X199522280Y-84473650D01*
X199776280Y-84473650D01*
X199776280Y-85623000D01*
X201625400Y-85623000D01*
X201784150Y-85464250D01*
X201784150Y-84823590D01*
X201687477Y-84590201D01*
X201508848Y-84411573D01*
X201275459Y-84314900D01*
X199935030Y-84314900D01*
X199776280Y-84473650D01*
X199522280Y-84473650D01*
X199363530Y-84314900D01*
X198023101Y-84314900D01*
X197789712Y-84411573D01*
X197611083Y-84590201D01*
X197514410Y-84823590D01*
X197373544Y-84823590D01*
X197353032Y-84714583D01*
X197213960Y-84498459D01*
X197001760Y-84353469D01*
X196749870Y-84302460D01*
X195880920Y-84302460D01*
X195787401Y-84162499D01*
X194781942Y-83157040D01*
X194643117Y-82821057D01*
X194449398Y-82627000D01*
X197302198Y-82627000D01*
X198262599Y-83587401D01*
X198509160Y-83752148D01*
X198800000Y-83810000D01*
X204539373Y-83810000D01*
X204528162Y-83866364D01*
X204528162Y-83933830D01*
X204515000Y-84000000D01*
X204515000Y-107373000D01*
X198072902Y-107373000D01*
X198055010Y-107329697D01*
X197662370Y-106936371D01*
X197454488Y-106850051D01*
X197660303Y-106765010D01*
X198053629Y-106372370D01*
X198266757Y-105859100D01*
X198267242Y-105303339D01*
X198055010Y-104789697D01*
X197662370Y-104396371D01*
X197454488Y-104310051D01*
X197660303Y-104225010D01*
X198053629Y-103832370D01*
X198266757Y-103319100D01*
X198267242Y-102763339D01*
X198055010Y-102249697D01*
X197662370Y-101856371D01*
X197470273Y-101776605D01*
X197601143Y-101722397D01*
X197670608Y-101480213D01*
X196870000Y-100679605D01*
X196069392Y-101480213D01*
X196138857Y-101722397D01*
X196279318Y-101772509D01*
X196079697Y-101854990D01*
X195686371Y-102247630D01*
X195473243Y-102760900D01*
X195472758Y-103316661D01*
X195684990Y-103830303D01*
X196077630Y-104223629D01*
X196285512Y-104309949D01*
X196079697Y-104394990D01*
X195686371Y-104787630D01*
X195473243Y-105300900D01*
X195472758Y-105856661D01*
X195684990Y-106370303D01*
X196077630Y-106763629D01*
X196285512Y-106849949D01*
X196079697Y-106934990D01*
X195686371Y-107327630D01*
X195667532Y-107373000D01*
X192500000Y-107373000D01*
X192450590Y-107383006D01*
X192408965Y-107411447D01*
X192381685Y-107453841D01*
X192373000Y-107500000D01*
X192373000Y-108477200D01*
X188845798Y-112004402D01*
X188835211Y-111978844D01*
X188872440Y-111795000D01*
X188872440Y-110895000D01*
X188837024Y-110706779D01*
X188860000Y-110651310D01*
X188860000Y-110360750D01*
X188701250Y-110202000D01*
X187702000Y-110202000D01*
X187702000Y-110222000D01*
X187448000Y-110222000D01*
X187448000Y-110202000D01*
X187428000Y-110202000D01*
X187428000Y-109948000D01*
X187448000Y-109948000D01*
X187448000Y-109928000D01*
X187702000Y-109928000D01*
X187702000Y-109948000D01*
X188701250Y-109948000D01*
X188860000Y-109789250D01*
X188860000Y-109498690D01*
X188835211Y-109438844D01*
X188872440Y-109255000D01*
X188872440Y-108355000D01*
X188828162Y-108119683D01*
X188689090Y-107903559D01*
X188476890Y-107758569D01*
X188225000Y-107707560D01*
X187860000Y-107707560D01*
X187860000Y-106795558D01*
X188085317Y-106753162D01*
X188301441Y-106614090D01*
X188446431Y-106401890D01*
X188497440Y-106150000D01*
X188497440Y-104850000D01*
X188453162Y-104614683D01*
X188314090Y-104398559D01*
X188101890Y-104253569D01*
X187850000Y-104202560D01*
X186350000Y-104202560D01*
X186114683Y-104246838D01*
X185898559Y-104385910D01*
X185753569Y-104598110D01*
X185750919Y-104611197D01*
X185614090Y-104398559D01*
X185401890Y-104253569D01*
X185150000Y-104202560D01*
X183867362Y-104202560D01*
X183014183Y-103349381D01*
X183026757Y-103319100D01*
X183027242Y-102763339D01*
X182815010Y-102249697D01*
X182422370Y-101856371D01*
X182214488Y-101770051D01*
X182420303Y-101685010D01*
X182813629Y-101292370D01*
X183026757Y-100779100D01*
X183027242Y-100223339D01*
X183013857Y-100190945D01*
X184137401Y-99067401D01*
X184302148Y-98820839D01*
X184360000Y-98530000D01*
X184360000Y-96585167D01*
X194264838Y-96585167D01*
X194406883Y-96928943D01*
X194440000Y-96962118D01*
X194440000Y-98400000D01*
X194497852Y-98690839D01*
X194662599Y-98937401D01*
X195309600Y-99584402D01*
X195556162Y-99749149D01*
X195650730Y-99767960D01*
X195647603Y-99768857D01*
X195460856Y-100292302D01*
X195488638Y-100847368D01*
X195647603Y-101231143D01*
X195889787Y-101300608D01*
X196690395Y-100500000D01*
X196676253Y-100485858D01*
X196855858Y-100306253D01*
X196870000Y-100320395D01*
X196884143Y-100306253D01*
X197063748Y-100485858D01*
X197049605Y-100500000D01*
X197850213Y-101300608D01*
X198092397Y-101231143D01*
X198279144Y-100707698D01*
X198251362Y-100152632D01*
X198108197Y-99807001D01*
X198532199Y-99807001D01*
X200464878Y-101739680D01*
X200464838Y-101785167D01*
X200606883Y-102128943D01*
X200869673Y-102392192D01*
X201213201Y-102534838D01*
X201585167Y-102535162D01*
X201928943Y-102393117D01*
X202192192Y-102130327D01*
X202334838Y-101786799D01*
X202335162Y-101414833D01*
X202193117Y-101071057D01*
X201930327Y-100807808D01*
X201586799Y-100665162D01*
X201539923Y-100665121D01*
X199384402Y-98509600D01*
X199137840Y-98344853D01*
X198847001Y-98287001D01*
X198236581Y-98287001D01*
X198279144Y-98167698D01*
X198257491Y-97735094D01*
X198335167Y-97735162D01*
X198678943Y-97593117D01*
X198942192Y-97330327D01*
X199084838Y-96986799D01*
X199085162Y-96614833D01*
X198943117Y-96271057D01*
X198680327Y-96007808D01*
X198336799Y-95865162D01*
X198197852Y-95865041D01*
X198266757Y-95699100D01*
X198267242Y-95143339D01*
X198055010Y-94629697D01*
X197662370Y-94236371D01*
X197454488Y-94150051D01*
X197660303Y-94065010D01*
X198053629Y-93672370D01*
X198266757Y-93159100D01*
X198267242Y-92603339D01*
X198055010Y-92089697D01*
X197662370Y-91696371D01*
X197149100Y-91483243D01*
X196593339Y-91482758D01*
X196079697Y-91694990D01*
X195686371Y-92087630D01*
X195473243Y-92600900D01*
X195472758Y-93156661D01*
X195684990Y-93670303D01*
X196077630Y-94063629D01*
X196285512Y-94149949D01*
X196134506Y-94212343D01*
X195930327Y-94007808D01*
X195586799Y-93865162D01*
X195214833Y-93864838D01*
X194871057Y-94006883D01*
X194607808Y-94269673D01*
X194465162Y-94613201D01*
X194464838Y-94985167D01*
X194606883Y-95328943D01*
X194640000Y-95362118D01*
X194640000Y-95558762D01*
X194653131Y-95624777D01*
X194407808Y-95869673D01*
X194265162Y-96213201D01*
X194264838Y-96585167D01*
X184360000Y-96585167D01*
X184360000Y-92090538D01*
X185744307Y-90706231D01*
X185813201Y-90734838D01*
X186185167Y-90735162D01*
X186528943Y-90593117D01*
X186792192Y-90330327D01*
X186934838Y-89986799D01*
X186934879Y-89939923D01*
X188846054Y-88028748D01*
X188910456Y-88079088D01*
X190910456Y-89079088D01*
X191182113Y-89147193D01*
X191221700Y-89140309D01*
X191020645Y-89223383D01*
X190757396Y-89486173D01*
X190614750Y-89829701D01*
X190614636Y-89960562D01*
X187660320Y-92914878D01*
X187614833Y-92914838D01*
X187271057Y-93056883D01*
X187007808Y-93319673D01*
X186865162Y-93663201D01*
X186864838Y-94035167D01*
X187006883Y-94378943D01*
X187269673Y-94642192D01*
X187613201Y-94784838D01*
X187985167Y-94785162D01*
X188328943Y-94643117D01*
X188592192Y-94380327D01*
X188734838Y-94036799D01*
X188734879Y-93989923D01*
X191800168Y-90924634D01*
X192078531Y-90809617D01*
X192341780Y-90546827D01*
X192484426Y-90203299D01*
X192484750Y-89831333D01*
X192342705Y-89487557D01*
X192079915Y-89224308D01*
X191736387Y-89081662D01*
X191469091Y-89081429D01*
X191651441Y-88964090D01*
X191796431Y-88751890D01*
X191847440Y-88500000D01*
X191847440Y-85500000D01*
X191786866Y-85226565D01*
X191634248Y-85019784D01*
X191413204Y-84888671D01*
X191158566Y-84853887D01*
X190910456Y-84920912D01*
X188910456Y-85920912D01*
X188748559Y-86035910D01*
X188603569Y-86248110D01*
X188597036Y-86280372D01*
X188509161Y-86297852D01*
X188345353Y-86407305D01*
X188303162Y-86164683D01*
X188164090Y-85948559D01*
X187951890Y-85803569D01*
X187700000Y-85752560D01*
X186327000Y-85752560D01*
X186327000Y-87273000D01*
X186347000Y-87273000D01*
X186347000Y-87527000D01*
X186327000Y-87527000D01*
X186327000Y-87547000D01*
X186073000Y-87547000D01*
X186073000Y-87527000D01*
X184539640Y-87527000D01*
X185120912Y-88689544D01*
X185235910Y-88851441D01*
X185448110Y-88996431D01*
X185480486Y-89002987D01*
X185471057Y-89006883D01*
X185403578Y-89074245D01*
X185284897Y-89097852D01*
X185038335Y-89262599D01*
X183062599Y-91238335D01*
X182897852Y-91484897D01*
X182840000Y-91775736D01*
X182840000Y-92150178D01*
X182815010Y-92089697D01*
X182422370Y-91696371D01*
X181909100Y-91483243D01*
X181353339Y-91482758D01*
X180839697Y-91694990D01*
X180446371Y-92087630D01*
X180233243Y-92600900D01*
X180232758Y-93156661D01*
X180444990Y-93670303D01*
X180837630Y-94063629D01*
X181029727Y-94143395D01*
X180898857Y-94197603D01*
X180829392Y-94439787D01*
X181630000Y-95240395D01*
X182430608Y-94439787D01*
X182361143Y-94197603D01*
X182220682Y-94147491D01*
X182420303Y-94065010D01*
X182813629Y-93672370D01*
X182840000Y-93608861D01*
X182840000Y-94685301D01*
X182610213Y-94619392D01*
X181809605Y-95420000D01*
X182610213Y-96220608D01*
X182840000Y-96154699D01*
X182840000Y-97230178D01*
X182815010Y-97169697D01*
X182422370Y-96776371D01*
X182230273Y-96696605D01*
X182361143Y-96642397D01*
X182430608Y-96400213D01*
X181630000Y-95599605D01*
X180829392Y-96400213D01*
X180898857Y-96642397D01*
X181039318Y-96692509D01*
X180839697Y-96774990D01*
X180446371Y-97167630D01*
X180233243Y-97680900D01*
X180232758Y-98236661D01*
X180444990Y-98750303D01*
X180837630Y-99143629D01*
X181045512Y-99229949D01*
X180839697Y-99314990D01*
X180446371Y-99707630D01*
X180233243Y-100220900D01*
X180232758Y-100776661D01*
X180444990Y-101290303D01*
X180837630Y-101683629D01*
X181045512Y-101769949D01*
X180839697Y-101854990D01*
X180446371Y-102247630D01*
X180233243Y-102760900D01*
X180232758Y-103316661D01*
X180444990Y-103830303D01*
X180837630Y-104223629D01*
X181045512Y-104309949D01*
X180839697Y-104394990D01*
X180446371Y-104787630D01*
X180233243Y-105300900D01*
X180232758Y-105856661D01*
X180444990Y-106370303D01*
X180837630Y-106763629D01*
X181045512Y-106849949D01*
X180839697Y-106934990D01*
X180446371Y-107327630D01*
X180233243Y-107840900D01*
X180232758Y-108396661D01*
X180444990Y-108910303D01*
X180837630Y-109303629D01*
X180927639Y-109341004D01*
X180927852Y-109342077D01*
X180978375Y-109417690D01*
X180839697Y-109474990D01*
X180446371Y-109867630D01*
X180233243Y-110380900D01*
X180232758Y-110936661D01*
X180444990Y-111450303D01*
X180837630Y-111843629D01*
X181045512Y-111929949D01*
X180839697Y-112014990D01*
X180446371Y-112407630D01*
X180233243Y-112920900D01*
X180232758Y-113476661D01*
X180444990Y-113990303D01*
X180837630Y-114383629D01*
X181045512Y-114469949D01*
X180839697Y-114554990D01*
X180446371Y-114947630D01*
X180233243Y-115460900D01*
X180232758Y-116016661D01*
X180444990Y-116530303D01*
X180837630Y-116923629D01*
X181045512Y-117009949D01*
X180839697Y-117094990D01*
X180446371Y-117487630D01*
X180233243Y-118000900D01*
X180232758Y-118556661D01*
X180444990Y-119070303D01*
X180837630Y-119463629D01*
X181045512Y-119549949D01*
X180839697Y-119634990D01*
X180446371Y-120027630D01*
X180233243Y-120540900D01*
X180232758Y-121096661D01*
X180444990Y-121610303D01*
X180837630Y-122003629D01*
X181350900Y-122216757D01*
X181906661Y-122217242D01*
X182420303Y-122005010D01*
X182813629Y-121612370D01*
X183026757Y-121099100D01*
X183027242Y-120543339D01*
X182815010Y-120029697D01*
X182422370Y-119636371D01*
X182214488Y-119550051D01*
X182420303Y-119465010D01*
X182805591Y-119080393D01*
X183252560Y-119527362D01*
X183252560Y-120400000D01*
X183296838Y-120635317D01*
X183435910Y-120851441D01*
X183648110Y-120996431D01*
X183900000Y-121047440D01*
X185400000Y-121047440D01*
X185635317Y-121003162D01*
X185851441Y-120864090D01*
X185996431Y-120651890D01*
X185999081Y-120638803D01*
X186135910Y-120851441D01*
X186348110Y-120996431D01*
X186600000Y-121047440D01*
X186962760Y-121047440D01*
X185637200Y-122373000D01*
X180244257Y-122373000D01*
X180127000Y-122197512D01*
X180127000Y-95212302D01*
X180220856Y-95212302D01*
X180248638Y-95767368D01*
X180407603Y-96151143D01*
X180649787Y-96220608D01*
X181450395Y-95420000D01*
X180649787Y-94619392D01*
X180407603Y-94688857D01*
X180220856Y-95212302D01*
X180127000Y-95212302D01*
X180127000Y-86901720D01*
X180920912Y-88489544D01*
X181035910Y-88651441D01*
X181248110Y-88796431D01*
X181500000Y-88847440D01*
X182500000Y-88847440D01*
X182696234Y-88816985D01*
X182920815Y-88692030D01*
X183079088Y-88489544D01*
X184071164Y-86505391D01*
X184120912Y-86689544D01*
X184412640Y-87273000D01*
X186073000Y-87273000D01*
X186073000Y-85752560D01*
X184700000Y-85752560D01*
X184426565Y-85813134D01*
X184219784Y-85965752D01*
X184129745Y-86117550D01*
X184103162Y-85964683D01*
X183964090Y-85748559D01*
X183751890Y-85603569D01*
X183500000Y-85552560D01*
X180500000Y-85552560D01*
X180226565Y-85613134D01*
X180127000Y-85686620D01*
X180127000Y-82627000D01*
X193250818Y-82627000D01*
X193057808Y-82819673D01*
G36*
X197063748Y-97945858D02*
X197049605Y-97960000D01*
X197063748Y-97974143D01*
X196884143Y-98153748D01*
X196870000Y-98139605D01*
X196855858Y-98153748D01*
X196676253Y-97974143D01*
X196690395Y-97960000D01*
X196676253Y-97945858D01*
X196855858Y-97766253D01*
X196870000Y-97780395D01*
X196884143Y-97766253D01*
X197063748Y-97945858D01*
X197063748Y-97945858D01*
G37*
X197063748Y-97945858D02*
X197049605Y-97960000D01*
X197063748Y-97974143D01*
X196884143Y-98153748D01*
X196870000Y-98139605D01*
X196855858Y-98153748D01*
X196676253Y-97974143D01*
X196690395Y-97960000D01*
X196676253Y-97945858D01*
X196855858Y-97766253D01*
X196870000Y-97780395D01*
X196884143Y-97766253D01*
X197063748Y-97945858D01*
G36*
X187702000Y-117568000D02*
X187722000Y-117568000D01*
X187722000Y-117822000D01*
X187702000Y-117822000D01*
X187702000Y-117842000D01*
X187448000Y-117842000D01*
X187448000Y-117822000D01*
X187428000Y-117822000D01*
X187428000Y-117568000D01*
X187448000Y-117568000D01*
X187448000Y-117548000D01*
X187702000Y-117548000D01*
X187702000Y-117568000D01*
X187702000Y-117568000D01*
G37*
X187702000Y-117568000D02*
X187722000Y-117568000D01*
X187722000Y-117822000D01*
X187702000Y-117822000D01*
X187702000Y-117842000D01*
X187448000Y-117842000D01*
X187448000Y-117822000D01*
X187428000Y-117822000D01*
X187428000Y-117568000D01*
X187448000Y-117568000D01*
X187448000Y-117548000D01*
X187702000Y-117548000D01*
X187702000Y-117568000D01*
G36*
X186448750Y-115028000D02*
X187448000Y-115028000D01*
X187448000Y-115008000D01*
X187702000Y-115008000D01*
X187702000Y-115028000D01*
X187722000Y-115028000D01*
X187722000Y-115282000D01*
X187702000Y-115282000D01*
X187702000Y-115302000D01*
X187448000Y-115302000D01*
X187448000Y-115282000D01*
X186448750Y-115282000D01*
X186290000Y-115440750D01*
X186290000Y-115731310D01*
X186307667Y-115773963D01*
X186137599Y-115887599D01*
X186062598Y-115962600D01*
X185900518Y-116205170D01*
X185864090Y-116148559D01*
X185651890Y-116003569D01*
X185638803Y-116000919D01*
X185851441Y-115864090D01*
X185996431Y-115651890D01*
X186047440Y-115400000D01*
X186047440Y-115280920D01*
X186187401Y-115187401D01*
X186397776Y-114977026D01*
X186448750Y-115028000D01*
X186448750Y-115028000D01*
G37*
X186448750Y-115028000D02*
X187448000Y-115028000D01*
X187448000Y-115008000D01*
X187702000Y-115008000D01*
X187702000Y-115028000D01*
X187722000Y-115028000D01*
X187722000Y-115282000D01*
X187702000Y-115282000D01*
X187702000Y-115302000D01*
X187448000Y-115302000D01*
X187448000Y-115282000D01*
X186448750Y-115282000D01*
X186290000Y-115440750D01*
X186290000Y-115731310D01*
X186307667Y-115773963D01*
X186137599Y-115887599D01*
X186062598Y-115962600D01*
X185900518Y-116205170D01*
X185864090Y-116148559D01*
X185651890Y-116003569D01*
X185638803Y-116000919D01*
X185851441Y-115864090D01*
X185996431Y-115651890D01*
X186047440Y-115400000D01*
X186047440Y-115280920D01*
X186187401Y-115187401D01*
X186397776Y-114977026D01*
X186448750Y-115028000D01*
G36*
X186057599Y-111882401D02*
X186290326Y-112037904D01*
X186290000Y-112038690D01*
X186290000Y-112329250D01*
X186448750Y-112488000D01*
X187448000Y-112488000D01*
X187448000Y-112468000D01*
X187702000Y-112468000D01*
X187702000Y-112488000D01*
X187722000Y-112488000D01*
X187722000Y-112742000D01*
X187702000Y-112742000D01*
X187702000Y-112762000D01*
X187448000Y-112762000D01*
X187448000Y-112742000D01*
X186448750Y-112742000D01*
X186290000Y-112900750D01*
X186290000Y-113149864D01*
X186124160Y-113182852D01*
X185877599Y-113347599D01*
X185812137Y-113413061D01*
X185756603Y-113375116D01*
X185851441Y-113314090D01*
X185996431Y-113101890D01*
X186047440Y-112850000D01*
X186047440Y-111872242D01*
X186057599Y-111882401D01*
X186057599Y-111882401D01*
G37*
X186057599Y-111882401D02*
X186290326Y-112037904D01*
X186290000Y-112038690D01*
X186290000Y-112329250D01*
X186448750Y-112488000D01*
X187448000Y-112488000D01*
X187448000Y-112468000D01*
X187702000Y-112468000D01*
X187702000Y-112488000D01*
X187722000Y-112488000D01*
X187722000Y-112742000D01*
X187702000Y-112742000D01*
X187702000Y-112762000D01*
X187448000Y-112762000D01*
X187448000Y-112742000D01*
X186448750Y-112742000D01*
X186290000Y-112900750D01*
X186290000Y-113149864D01*
X186124160Y-113182852D01*
X185877599Y-113347599D01*
X185812137Y-113413061D01*
X185756603Y-113375116D01*
X185851441Y-113314090D01*
X185996431Y-113101890D01*
X186047440Y-112850000D01*
X186047440Y-111872242D01*
X186057599Y-111882401D01*
G36*
X207940000Y-93700000D02*
X207997852Y-93990839D01*
X208162599Y-94237401D01*
X210962599Y-97037401D01*
X211209161Y-97202148D01*
X211500000Y-97260000D01*
X212523258Y-97260000D01*
X212546838Y-97385317D01*
X212685910Y-97601441D01*
X212898110Y-97746431D01*
X213150000Y-97797440D01*
X214215001Y-97797440D01*
X214215001Y-98326731D01*
X214272853Y-98617570D01*
X214437600Y-98864132D01*
X214947605Y-99374137D01*
X214812549Y-99464379D01*
X213787548Y-100489380D01*
X213622801Y-100735942D01*
X213564949Y-101026781D01*
X213564949Y-112251517D01*
X213240370Y-111926371D01*
X212727100Y-111713243D01*
X212171339Y-111712758D01*
X211657697Y-111924990D01*
X211264371Y-112317630D01*
X211051243Y-112830900D01*
X211050758Y-113386661D01*
X211262990Y-113900303D01*
X211655630Y-114293629D01*
X212168900Y-114506757D01*
X212724661Y-114507242D01*
X213238303Y-114295010D01*
X213631629Y-113902370D01*
X213717949Y-113694488D01*
X213802990Y-113900303D01*
X214195630Y-114293629D01*
X214708900Y-114506757D01*
X215264661Y-114507242D01*
X215297055Y-114493857D01*
X215367855Y-114564657D01*
X215074371Y-114857630D01*
X214994605Y-115049727D01*
X214940397Y-114918857D01*
X214698213Y-114849392D01*
X213897605Y-115650000D01*
X214698213Y-116450608D01*
X214940397Y-116381143D01*
X214990509Y-116240682D01*
X215072990Y-116440303D01*
X215465630Y-116833629D01*
X215978900Y-117046757D01*
X216534661Y-117047242D01*
X217048303Y-116835010D01*
X217441629Y-116442370D01*
X217527949Y-116234488D01*
X217612990Y-116440303D01*
X218005630Y-116833629D01*
X218518900Y-117046757D01*
X219074661Y-117047242D01*
X219588303Y-116835010D01*
X219981629Y-116442370D01*
X220194757Y-115929100D01*
X220195242Y-115373339D01*
X219983010Y-114859697D01*
X219590370Y-114466371D01*
X219077100Y-114253243D01*
X218521339Y-114252758D01*
X218007697Y-114464990D01*
X217614371Y-114857630D01*
X217528051Y-115065512D01*
X217443010Y-114859697D01*
X217050370Y-114466371D01*
X217018000Y-114452930D01*
X217018000Y-114411293D01*
X217320302Y-114519144D01*
X217875368Y-114491362D01*
X218259143Y-114332397D01*
X218328608Y-114090213D01*
X217528000Y-113289605D01*
X217513858Y-113303748D01*
X217334253Y-113124143D01*
X217348395Y-113110000D01*
X217707605Y-113110000D01*
X218508213Y-113910608D01*
X218750397Y-113841143D01*
X218937144Y-113317698D01*
X218909362Y-112762632D01*
X218750397Y-112378857D01*
X218508213Y-112309392D01*
X217707605Y-113110000D01*
X217348395Y-113110000D01*
X216547787Y-112309392D01*
X216305603Y-112378857D01*
X216255491Y-112519318D01*
X216173010Y-112319697D01*
X215983432Y-112129787D01*
X216727392Y-112129787D01*
X217528000Y-112930395D01*
X218328608Y-112129787D01*
X218259143Y-111887603D01*
X217735698Y-111700856D01*
X217180632Y-111728638D01*
X216796857Y-111887603D01*
X216727392Y-112129787D01*
X215983432Y-112129787D01*
X215780370Y-111926371D01*
X215267100Y-111713243D01*
X215084949Y-111713084D01*
X215084949Y-105952335D01*
X215202560Y-106030920D01*
X215202560Y-106150000D01*
X215246838Y-106385317D01*
X215385910Y-106601441D01*
X215598110Y-106746431D01*
X215611197Y-106749081D01*
X215398559Y-106885910D01*
X215253569Y-107098110D01*
X215202560Y-107350000D01*
X215202560Y-108850000D01*
X215246838Y-109085317D01*
X215385910Y-109301441D01*
X215598110Y-109446431D01*
X215850000Y-109497440D01*
X217150000Y-109497440D01*
X217385317Y-109453162D01*
X217601441Y-109314090D01*
X217746431Y-109101890D01*
X217795415Y-108860000D01*
X221825198Y-108860000D01*
X224014325Y-111049127D01*
X224031852Y-111137239D01*
X224196599Y-111383801D01*
X224392334Y-111579536D01*
X224316655Y-111960000D01*
X224392334Y-112340464D01*
X218717799Y-118014999D01*
X207627000Y-118014999D01*
X207627000Y-116630213D01*
X212917392Y-116630213D01*
X212986857Y-116872397D01*
X213510302Y-117059144D01*
X214065368Y-117031362D01*
X214449143Y-116872397D01*
X214518608Y-116630213D01*
X213718000Y-115829605D01*
X212917392Y-116630213D01*
X207627000Y-116630213D01*
X207627000Y-115442302D01*
X212308856Y-115442302D01*
X212336638Y-115997368D01*
X212495603Y-116381143D01*
X212737787Y-116450608D01*
X213538395Y-115650000D01*
X212737787Y-114849392D01*
X212495603Y-114918857D01*
X212308856Y-115442302D01*
X207627000Y-115442302D01*
X207627000Y-114669787D01*
X212917392Y-114669787D01*
X213718000Y-115470395D01*
X214518608Y-114669787D01*
X214449143Y-114427603D01*
X213925698Y-114240856D01*
X213370632Y-114268638D01*
X212986857Y-114427603D01*
X212917392Y-114669787D01*
X207627000Y-114669787D01*
X207627000Y-83097802D01*
X207940000Y-82784802D01*
X207940000Y-93700000D01*
X207940000Y-93700000D01*
G37*
X207940000Y-93700000D02*
X207997852Y-93990839D01*
X208162599Y-94237401D01*
X210962599Y-97037401D01*
X211209161Y-97202148D01*
X211500000Y-97260000D01*
X212523258Y-97260000D01*
X212546838Y-97385317D01*
X212685910Y-97601441D01*
X212898110Y-97746431D01*
X213150000Y-97797440D01*
X214215001Y-97797440D01*
X214215001Y-98326731D01*
X214272853Y-98617570D01*
X214437600Y-98864132D01*
X214947605Y-99374137D01*
X214812549Y-99464379D01*
X213787548Y-100489380D01*
X213622801Y-100735942D01*
X213564949Y-101026781D01*
X213564949Y-112251517D01*
X213240370Y-111926371D01*
X212727100Y-111713243D01*
X212171339Y-111712758D01*
X211657697Y-111924990D01*
X211264371Y-112317630D01*
X211051243Y-112830900D01*
X211050758Y-113386661D01*
X211262990Y-113900303D01*
X211655630Y-114293629D01*
X212168900Y-114506757D01*
X212724661Y-114507242D01*
X213238303Y-114295010D01*
X213631629Y-113902370D01*
X213717949Y-113694488D01*
X213802990Y-113900303D01*
X214195630Y-114293629D01*
X214708900Y-114506757D01*
X215264661Y-114507242D01*
X215297055Y-114493857D01*
X215367855Y-114564657D01*
X215074371Y-114857630D01*
X214994605Y-115049727D01*
X214940397Y-114918857D01*
X214698213Y-114849392D01*
X213897605Y-115650000D01*
X214698213Y-116450608D01*
X214940397Y-116381143D01*
X214990509Y-116240682D01*
X215072990Y-116440303D01*
X215465630Y-116833629D01*
X215978900Y-117046757D01*
X216534661Y-117047242D01*
X217048303Y-116835010D01*
X217441629Y-116442370D01*
X217527949Y-116234488D01*
X217612990Y-116440303D01*
X218005630Y-116833629D01*
X218518900Y-117046757D01*
X219074661Y-117047242D01*
X219588303Y-116835010D01*
X219981629Y-116442370D01*
X220194757Y-115929100D01*
X220195242Y-115373339D01*
X219983010Y-114859697D01*
X219590370Y-114466371D01*
X219077100Y-114253243D01*
X218521339Y-114252758D01*
X218007697Y-114464990D01*
X217614371Y-114857630D01*
X217528051Y-115065512D01*
X217443010Y-114859697D01*
X217050370Y-114466371D01*
X217018000Y-114452930D01*
X217018000Y-114411293D01*
X217320302Y-114519144D01*
X217875368Y-114491362D01*
X218259143Y-114332397D01*
X218328608Y-114090213D01*
X217528000Y-113289605D01*
X217513858Y-113303748D01*
X217334253Y-113124143D01*
X217348395Y-113110000D01*
X217707605Y-113110000D01*
X218508213Y-113910608D01*
X218750397Y-113841143D01*
X218937144Y-113317698D01*
X218909362Y-112762632D01*
X218750397Y-112378857D01*
X218508213Y-112309392D01*
X217707605Y-113110000D01*
X217348395Y-113110000D01*
X216547787Y-112309392D01*
X216305603Y-112378857D01*
X216255491Y-112519318D01*
X216173010Y-112319697D01*
X215983432Y-112129787D01*
X216727392Y-112129787D01*
X217528000Y-112930395D01*
X218328608Y-112129787D01*
X218259143Y-111887603D01*
X217735698Y-111700856D01*
X217180632Y-111728638D01*
X216796857Y-111887603D01*
X216727392Y-112129787D01*
X215983432Y-112129787D01*
X215780370Y-111926371D01*
X215267100Y-111713243D01*
X215084949Y-111713084D01*
X215084949Y-105952335D01*
X215202560Y-106030920D01*
X215202560Y-106150000D01*
X215246838Y-106385317D01*
X215385910Y-106601441D01*
X215598110Y-106746431D01*
X215611197Y-106749081D01*
X215398559Y-106885910D01*
X215253569Y-107098110D01*
X215202560Y-107350000D01*
X215202560Y-108850000D01*
X215246838Y-109085317D01*
X215385910Y-109301441D01*
X215598110Y-109446431D01*
X215850000Y-109497440D01*
X217150000Y-109497440D01*
X217385317Y-109453162D01*
X217601441Y-109314090D01*
X217746431Y-109101890D01*
X217795415Y-108860000D01*
X221825198Y-108860000D01*
X224014325Y-111049127D01*
X224031852Y-111137239D01*
X224196599Y-111383801D01*
X224392334Y-111579536D01*
X224316655Y-111960000D01*
X224392334Y-112340464D01*
X218717799Y-118014999D01*
X207627000Y-118014999D01*
X207627000Y-116630213D01*
X212917392Y-116630213D01*
X212986857Y-116872397D01*
X213510302Y-117059144D01*
X214065368Y-117031362D01*
X214449143Y-116872397D01*
X214518608Y-116630213D01*
X213718000Y-115829605D01*
X212917392Y-116630213D01*
X207627000Y-116630213D01*
X207627000Y-115442302D01*
X212308856Y-115442302D01*
X212336638Y-115997368D01*
X212495603Y-116381143D01*
X212737787Y-116450608D01*
X213538395Y-115650000D01*
X212737787Y-114849392D01*
X212495603Y-114918857D01*
X212308856Y-115442302D01*
X207627000Y-115442302D01*
X207627000Y-114669787D01*
X212917392Y-114669787D01*
X213718000Y-115470395D01*
X214518608Y-114669787D01*
X214449143Y-114427603D01*
X213925698Y-114240856D01*
X213370632Y-114268638D01*
X212986857Y-114427603D01*
X212917392Y-114669787D01*
X207627000Y-114669787D01*
X207627000Y-83097802D01*
X207940000Y-82784802D01*
X207940000Y-93700000D01*
G36*
X218043000Y-98774250D02*
X218201750Y-98933000D01*
X219313000Y-98933000D01*
X219313000Y-98913000D01*
X219567000Y-98913000D01*
X219567000Y-98933000D01*
X219587000Y-98933000D01*
X219587000Y-99187000D01*
X219567000Y-99187000D01*
X219567000Y-100552250D01*
X219725750Y-100711000D01*
X220328309Y-100711000D01*
X220561698Y-100614327D01*
X220712671Y-100463354D01*
X220753910Y-100527441D01*
X220966110Y-100672431D01*
X221218000Y-100723440D01*
X221220000Y-100723440D01*
X221220000Y-101727021D01*
X221114683Y-101746838D01*
X220898559Y-101885910D01*
X220753569Y-102098110D01*
X220746809Y-102131490D01*
X220688327Y-101990301D01*
X220509698Y-101811673D01*
X220276309Y-101715000D01*
X219685750Y-101715000D01*
X219527000Y-101873750D01*
X219527000Y-102873000D01*
X219547000Y-102873000D01*
X219547000Y-103127000D01*
X219527000Y-103127000D01*
X219527000Y-104126250D01*
X219685750Y-104285000D01*
X220276309Y-104285000D01*
X220509698Y-104188327D01*
X220688327Y-104009699D01*
X220744654Y-103873713D01*
X220746838Y-103885317D01*
X220885910Y-104101441D01*
X221098110Y-104246431D01*
X221350000Y-104297440D01*
X222850000Y-104297440D01*
X223085317Y-104253162D01*
X223301441Y-104114090D01*
X223374884Y-104006603D01*
X223435910Y-104101441D01*
X223648110Y-104246431D01*
X223900000Y-104297440D01*
X225400000Y-104297440D01*
X225635317Y-104253162D01*
X225851441Y-104114090D01*
X225996431Y-103901890D01*
X226003191Y-103868510D01*
X226061673Y-104009699D01*
X226240302Y-104188327D01*
X226473691Y-104285000D01*
X227064250Y-104285000D01*
X227223000Y-104126250D01*
X227223000Y-103127000D01*
X227203000Y-103127000D01*
X227203000Y-102873000D01*
X227223000Y-102873000D01*
X227223000Y-101873750D01*
X227064250Y-101715000D01*
X226473691Y-101715000D01*
X226240302Y-101811673D01*
X226061673Y-101990301D01*
X226005346Y-102126287D01*
X226003162Y-102114683D01*
X225864090Y-101898559D01*
X225651890Y-101753569D01*
X225410000Y-101704585D01*
X225410000Y-100699355D01*
X225517317Y-100679162D01*
X225733441Y-100540090D01*
X225786463Y-100462489D01*
X225938302Y-100614327D01*
X226171691Y-100711000D01*
X226774250Y-100711000D01*
X226933000Y-100552250D01*
X226933000Y-99187000D01*
X226913000Y-99187000D01*
X226913000Y-98933000D01*
X226933000Y-98933000D01*
X226933000Y-98913000D01*
X227187000Y-98913000D01*
X227187000Y-98933000D01*
X227207000Y-98933000D01*
X227207000Y-99187000D01*
X227187000Y-99187000D01*
X227187000Y-100552250D01*
X227345750Y-100711000D01*
X227373000Y-100711000D01*
X227373000Y-106024191D01*
X227350732Y-105977964D01*
X226914320Y-105588046D01*
X226361913Y-105394816D01*
X226127000Y-105539076D01*
X226127000Y-106753000D01*
X226147000Y-106753000D01*
X226147000Y-107007000D01*
X226127000Y-107007000D01*
X226127000Y-107027000D01*
X225873000Y-107027000D01*
X225873000Y-107007000D01*
X224513783Y-107007000D01*
X224392642Y-107239026D01*
X224395291Y-107254791D01*
X224649268Y-107782036D01*
X225065069Y-108153539D01*
X224755585Y-108360330D01*
X224430729Y-108846511D01*
X224352848Y-109238046D01*
X222677401Y-107562599D01*
X222430839Y-107397852D01*
X222140000Y-107340000D01*
X217795558Y-107340000D01*
X217753162Y-107114683D01*
X217614090Y-106898559D01*
X217401890Y-106753569D01*
X217388803Y-106750919D01*
X217601441Y-106614090D01*
X217665064Y-106520974D01*
X224392642Y-106520974D01*
X224513783Y-106753000D01*
X225873000Y-106753000D01*
X225873000Y-105539076D01*
X225638087Y-105394816D01*
X225085680Y-105588046D01*
X224649268Y-105977964D01*
X224395291Y-106505209D01*
X224392642Y-106520974D01*
X217665064Y-106520974D01*
X217746431Y-106401890D01*
X217797440Y-106150000D01*
X217797440Y-104650000D01*
X217753162Y-104414683D01*
X217614090Y-104198559D01*
X217401890Y-104053569D01*
X217150000Y-104002560D01*
X215850000Y-104002560D01*
X215810000Y-104010087D01*
X215810000Y-103285750D01*
X218015000Y-103285750D01*
X218015000Y-103776310D01*
X218111673Y-104009699D01*
X218290302Y-104188327D01*
X218523691Y-104285000D01*
X219114250Y-104285000D01*
X219273000Y-104126250D01*
X219273000Y-103127000D01*
X218173750Y-103127000D01*
X218015000Y-103285750D01*
X215810000Y-103285750D01*
X215810000Y-102923773D01*
X215901491Y-102864900D01*
X215996977Y-102725151D01*
X216011623Y-102760509D01*
X216190252Y-102939137D01*
X216423641Y-103035810D01*
X216664250Y-103035810D01*
X216823000Y-102877060D01*
X216823000Y-102127760D01*
X217077000Y-102127760D01*
X217077000Y-102877060D01*
X217235750Y-103035810D01*
X217476359Y-103035810D01*
X217709748Y-102939137D01*
X217888377Y-102760509D01*
X217985050Y-102527120D01*
X217985050Y-102286510D01*
X217922230Y-102223690D01*
X218015000Y-102223690D01*
X218015000Y-102714250D01*
X218173750Y-102873000D01*
X219273000Y-102873000D01*
X219273000Y-101873750D01*
X219114250Y-101715000D01*
X218523691Y-101715000D01*
X218290302Y-101811673D01*
X218111673Y-101990301D01*
X218015000Y-102223690D01*
X217922230Y-102223690D01*
X217826300Y-102127760D01*
X217077000Y-102127760D01*
X216823000Y-102127760D01*
X216803000Y-102127760D01*
X216803000Y-101873760D01*
X216823000Y-101873760D01*
X216823000Y-101124460D01*
X217077000Y-101124460D01*
X217077000Y-101873760D01*
X217826300Y-101873760D01*
X217985050Y-101715010D01*
X217985050Y-101474400D01*
X217888377Y-101241011D01*
X217709748Y-101062383D01*
X217476359Y-100965710D01*
X217235750Y-100965710D01*
X217077000Y-101124460D01*
X216823000Y-101124460D01*
X216676843Y-100978303D01*
X216851491Y-100865920D01*
X216996481Y-100653720D01*
X217047490Y-100401830D01*
X217047490Y-99601730D01*
X217003212Y-99366413D01*
X216989916Y-99345750D01*
X218043000Y-99345750D01*
X218043000Y-100202310D01*
X218139673Y-100435699D01*
X218318302Y-100614327D01*
X218551691Y-100711000D01*
X219154250Y-100711000D01*
X219313000Y-100552250D01*
X219313000Y-99187000D01*
X218201750Y-99187000D01*
X218043000Y-99345750D01*
X216989916Y-99345750D01*
X216864140Y-99150289D01*
X216675976Y-99021722D01*
X216537401Y-98814329D01*
X215958073Y-98235001D01*
X218043000Y-98235001D01*
X218043000Y-98774250D01*
X218043000Y-98774250D01*
G37*
X218043000Y-98774250D02*
X218201750Y-98933000D01*
X219313000Y-98933000D01*
X219313000Y-98913000D01*
X219567000Y-98913000D01*
X219567000Y-98933000D01*
X219587000Y-98933000D01*
X219587000Y-99187000D01*
X219567000Y-99187000D01*
X219567000Y-100552250D01*
X219725750Y-100711000D01*
X220328309Y-100711000D01*
X220561698Y-100614327D01*
X220712671Y-100463354D01*
X220753910Y-100527441D01*
X220966110Y-100672431D01*
X221218000Y-100723440D01*
X221220000Y-100723440D01*
X221220000Y-101727021D01*
X221114683Y-101746838D01*
X220898559Y-101885910D01*
X220753569Y-102098110D01*
X220746809Y-102131490D01*
X220688327Y-101990301D01*
X220509698Y-101811673D01*
X220276309Y-101715000D01*
X219685750Y-101715000D01*
X219527000Y-101873750D01*
X219527000Y-102873000D01*
X219547000Y-102873000D01*
X219547000Y-103127000D01*
X219527000Y-103127000D01*
X219527000Y-104126250D01*
X219685750Y-104285000D01*
X220276309Y-104285000D01*
X220509698Y-104188327D01*
X220688327Y-104009699D01*
X220744654Y-103873713D01*
X220746838Y-103885317D01*
X220885910Y-104101441D01*
X221098110Y-104246431D01*
X221350000Y-104297440D01*
X222850000Y-104297440D01*
X223085317Y-104253162D01*
X223301441Y-104114090D01*
X223374884Y-104006603D01*
X223435910Y-104101441D01*
X223648110Y-104246431D01*
X223900000Y-104297440D01*
X225400000Y-104297440D01*
X225635317Y-104253162D01*
X225851441Y-104114090D01*
X225996431Y-103901890D01*
X226003191Y-103868510D01*
X226061673Y-104009699D01*
X226240302Y-104188327D01*
X226473691Y-104285000D01*
X227064250Y-104285000D01*
X227223000Y-104126250D01*
X227223000Y-103127000D01*
X227203000Y-103127000D01*
X227203000Y-102873000D01*
X227223000Y-102873000D01*
X227223000Y-101873750D01*
X227064250Y-101715000D01*
X226473691Y-101715000D01*
X226240302Y-101811673D01*
X226061673Y-101990301D01*
X226005346Y-102126287D01*
X226003162Y-102114683D01*
X225864090Y-101898559D01*
X225651890Y-101753569D01*
X225410000Y-101704585D01*
X225410000Y-100699355D01*
X225517317Y-100679162D01*
X225733441Y-100540090D01*
X225786463Y-100462489D01*
X225938302Y-100614327D01*
X226171691Y-100711000D01*
X226774250Y-100711000D01*
X226933000Y-100552250D01*
X226933000Y-99187000D01*
X226913000Y-99187000D01*
X226913000Y-98933000D01*
X226933000Y-98933000D01*
X226933000Y-98913000D01*
X227187000Y-98913000D01*
X227187000Y-98933000D01*
X227207000Y-98933000D01*
X227207000Y-99187000D01*
X227187000Y-99187000D01*
X227187000Y-100552250D01*
X227345750Y-100711000D01*
X227373000Y-100711000D01*
X227373000Y-106024191D01*
X227350732Y-105977964D01*
X226914320Y-105588046D01*
X226361913Y-105394816D01*
X226127000Y-105539076D01*
X226127000Y-106753000D01*
X226147000Y-106753000D01*
X226147000Y-107007000D01*
X226127000Y-107007000D01*
X226127000Y-107027000D01*
X225873000Y-107027000D01*
X225873000Y-107007000D01*
X224513783Y-107007000D01*
X224392642Y-107239026D01*
X224395291Y-107254791D01*
X224649268Y-107782036D01*
X225065069Y-108153539D01*
X224755585Y-108360330D01*
X224430729Y-108846511D01*
X224352848Y-109238046D01*
X222677401Y-107562599D01*
X222430839Y-107397852D01*
X222140000Y-107340000D01*
X217795558Y-107340000D01*
X217753162Y-107114683D01*
X217614090Y-106898559D01*
X217401890Y-106753569D01*
X217388803Y-106750919D01*
X217601441Y-106614090D01*
X217665064Y-106520974D01*
X224392642Y-106520974D01*
X224513783Y-106753000D01*
X225873000Y-106753000D01*
X225873000Y-105539076D01*
X225638087Y-105394816D01*
X225085680Y-105588046D01*
X224649268Y-105977964D01*
X224395291Y-106505209D01*
X224392642Y-106520974D01*
X217665064Y-106520974D01*
X217746431Y-106401890D01*
X217797440Y-106150000D01*
X217797440Y-104650000D01*
X217753162Y-104414683D01*
X217614090Y-104198559D01*
X217401890Y-104053569D01*
X217150000Y-104002560D01*
X215850000Y-104002560D01*
X215810000Y-104010087D01*
X215810000Y-103285750D01*
X218015000Y-103285750D01*
X218015000Y-103776310D01*
X218111673Y-104009699D01*
X218290302Y-104188327D01*
X218523691Y-104285000D01*
X219114250Y-104285000D01*
X219273000Y-104126250D01*
X219273000Y-103127000D01*
X218173750Y-103127000D01*
X218015000Y-103285750D01*
X215810000Y-103285750D01*
X215810000Y-102923773D01*
X215901491Y-102864900D01*
X215996977Y-102725151D01*
X216011623Y-102760509D01*
X216190252Y-102939137D01*
X216423641Y-103035810D01*
X216664250Y-103035810D01*
X216823000Y-102877060D01*
X216823000Y-102127760D01*
X217077000Y-102127760D01*
X217077000Y-102877060D01*
X217235750Y-103035810D01*
X217476359Y-103035810D01*
X217709748Y-102939137D01*
X217888377Y-102760509D01*
X217985050Y-102527120D01*
X217985050Y-102286510D01*
X217922230Y-102223690D01*
X218015000Y-102223690D01*
X218015000Y-102714250D01*
X218173750Y-102873000D01*
X219273000Y-102873000D01*
X219273000Y-101873750D01*
X219114250Y-101715000D01*
X218523691Y-101715000D01*
X218290302Y-101811673D01*
X218111673Y-101990301D01*
X218015000Y-102223690D01*
X217922230Y-102223690D01*
X217826300Y-102127760D01*
X217077000Y-102127760D01*
X216823000Y-102127760D01*
X216803000Y-102127760D01*
X216803000Y-101873760D01*
X216823000Y-101873760D01*
X216823000Y-101124460D01*
X217077000Y-101124460D01*
X217077000Y-101873760D01*
X217826300Y-101873760D01*
X217985050Y-101715010D01*
X217985050Y-101474400D01*
X217888377Y-101241011D01*
X217709748Y-101062383D01*
X217476359Y-100965710D01*
X217235750Y-100965710D01*
X217077000Y-101124460D01*
X216823000Y-101124460D01*
X216676843Y-100978303D01*
X216851491Y-100865920D01*
X216996481Y-100653720D01*
X217047490Y-100401830D01*
X217047490Y-99601730D01*
X217003212Y-99366413D01*
X216989916Y-99345750D01*
X218043000Y-99345750D01*
X218043000Y-100202310D01*
X218139673Y-100435699D01*
X218318302Y-100614327D01*
X218551691Y-100711000D01*
X219154250Y-100711000D01*
X219313000Y-100552250D01*
X219313000Y-99187000D01*
X218201750Y-99187000D01*
X218043000Y-99345750D01*
X216989916Y-99345750D01*
X216864140Y-99150289D01*
X216675976Y-99021722D01*
X216537401Y-98814329D01*
X215958073Y-98235001D01*
X218043000Y-98235001D01*
X218043000Y-98774250D01*
G36*
X212692000Y-83704802D02*
X212692000Y-84022370D01*
X212747130Y-84299523D01*
X212709697Y-84314990D01*
X212316371Y-84707630D01*
X212103243Y-85220900D01*
X212102758Y-85776661D01*
X212314990Y-86290303D01*
X212707630Y-86683629D01*
X213220900Y-86896757D01*
X213776661Y-86897242D01*
X214290303Y-86685010D01*
X214683629Y-86292370D01*
X214769949Y-86084488D01*
X214854990Y-86290303D01*
X215247630Y-86683629D01*
X215760900Y-86896757D01*
X216316661Y-86897242D01*
X216598137Y-86780939D01*
X216627602Y-86810404D01*
X216519697Y-86854990D01*
X216126371Y-87247630D01*
X216046605Y-87439727D01*
X215992397Y-87308857D01*
X215750213Y-87239392D01*
X214949605Y-88040000D01*
X214963748Y-88054143D01*
X214784143Y-88233748D01*
X214770000Y-88219605D01*
X214755858Y-88233748D01*
X214576253Y-88054143D01*
X214590395Y-88040000D01*
X213789787Y-87239392D01*
X213547603Y-87308857D01*
X213360856Y-87832302D01*
X213388638Y-88387368D01*
X213424323Y-88473520D01*
X213250596Y-88589600D01*
X211962599Y-89877597D01*
X211797852Y-90124159D01*
X211740000Y-90414998D01*
X211740000Y-93000000D01*
X211797852Y-93290839D01*
X211962599Y-93537401D01*
X212562599Y-94137401D01*
X212702560Y-94230920D01*
X212702560Y-94350000D01*
X212746838Y-94585317D01*
X212885910Y-94801441D01*
X213098110Y-94946431D01*
X213112444Y-94949334D01*
X213065162Y-95063201D01*
X213065027Y-95218549D01*
X212914683Y-95246838D01*
X212698559Y-95385910D01*
X212553569Y-95598110D01*
X212524836Y-95740000D01*
X211814802Y-95740000D01*
X209460000Y-93385198D01*
X209460000Y-87059787D01*
X213969392Y-87059787D01*
X214770000Y-87860395D01*
X215570608Y-87059787D01*
X215501143Y-86817603D01*
X214977698Y-86630856D01*
X214422632Y-86658638D01*
X214038857Y-86817603D01*
X213969392Y-87059787D01*
X209460000Y-87059787D01*
X209460000Y-82662463D01*
X209492192Y-82630327D01*
X209634838Y-82286799D01*
X209634883Y-82234999D01*
X211222197Y-82234999D01*
X212692000Y-83704802D01*
X212692000Y-83704802D01*
G37*
X212692000Y-83704802D02*
X212692000Y-84022370D01*
X212747130Y-84299523D01*
X212709697Y-84314990D01*
X212316371Y-84707630D01*
X212103243Y-85220900D01*
X212102758Y-85776661D01*
X212314990Y-86290303D01*
X212707630Y-86683629D01*
X213220900Y-86896757D01*
X213776661Y-86897242D01*
X214290303Y-86685010D01*
X214683629Y-86292370D01*
X214769949Y-86084488D01*
X214854990Y-86290303D01*
X215247630Y-86683629D01*
X215760900Y-86896757D01*
X216316661Y-86897242D01*
X216598137Y-86780939D01*
X216627602Y-86810404D01*
X216519697Y-86854990D01*
X216126371Y-87247630D01*
X216046605Y-87439727D01*
X215992397Y-87308857D01*
X215750213Y-87239392D01*
X214949605Y-88040000D01*
X214963748Y-88054143D01*
X214784143Y-88233748D01*
X214770000Y-88219605D01*
X214755858Y-88233748D01*
X214576253Y-88054143D01*
X214590395Y-88040000D01*
X213789787Y-87239392D01*
X213547603Y-87308857D01*
X213360856Y-87832302D01*
X213388638Y-88387368D01*
X213424323Y-88473520D01*
X213250596Y-88589600D01*
X211962599Y-89877597D01*
X211797852Y-90124159D01*
X211740000Y-90414998D01*
X211740000Y-93000000D01*
X211797852Y-93290839D01*
X211962599Y-93537401D01*
X212562599Y-94137401D01*
X212702560Y-94230920D01*
X212702560Y-94350000D01*
X212746838Y-94585317D01*
X212885910Y-94801441D01*
X213098110Y-94946431D01*
X213112444Y-94949334D01*
X213065162Y-95063201D01*
X213065027Y-95218549D01*
X212914683Y-95246838D01*
X212698559Y-95385910D01*
X212553569Y-95598110D01*
X212524836Y-95740000D01*
X211814802Y-95740000D01*
X209460000Y-93385198D01*
X209460000Y-87059787D01*
X213969392Y-87059787D01*
X214770000Y-87860395D01*
X215570608Y-87059787D01*
X215501143Y-86817603D01*
X214977698Y-86630856D01*
X214422632Y-86658638D01*
X214038857Y-86817603D01*
X213969392Y-87059787D01*
X209460000Y-87059787D01*
X209460000Y-82662463D01*
X209492192Y-82630327D01*
X209634838Y-82286799D01*
X209634883Y-82234999D01*
X211222197Y-82234999D01*
X212692000Y-83704802D01*
G36*
X219090000Y-81212802D02*
X219090000Y-84198707D01*
X218787698Y-84090856D01*
X218232632Y-84118638D01*
X217848857Y-84277603D01*
X217779392Y-84519787D01*
X218580000Y-85320395D01*
X218594143Y-85306253D01*
X218773748Y-85485858D01*
X218759605Y-85500000D01*
X218773748Y-85514143D01*
X218594143Y-85693748D01*
X218580000Y-85679605D01*
X218565858Y-85693748D01*
X218386253Y-85514143D01*
X218400395Y-85500000D01*
X217599787Y-84699392D01*
X217357603Y-84768857D01*
X217307491Y-84909318D01*
X217225010Y-84709697D01*
X216832370Y-84316371D01*
X216319100Y-84103243D01*
X215763339Y-84102758D01*
X215249697Y-84314990D01*
X214856371Y-84707630D01*
X214770051Y-84915512D01*
X214685010Y-84709697D01*
X214462000Y-84486297D01*
X214462000Y-84272370D01*
X214425894Y-84090856D01*
X214404148Y-83981530D01*
X214239401Y-83734969D01*
X214212000Y-83707568D01*
X214212000Y-83390000D01*
X214154148Y-83099161D01*
X214154148Y-83099160D01*
X213989401Y-82852599D01*
X212362518Y-81225716D01*
X212746515Y-81067052D01*
X213382818Y-80431859D01*
X213727607Y-79601514D01*
X213728391Y-78702430D01*
X213385052Y-77871485D01*
X213266902Y-77753129D01*
X215630327Y-77753129D01*
X219090000Y-81212802D01*
X219090000Y-81212802D01*
G37*
X219090000Y-81212802D02*
X219090000Y-84198707D01*
X218787698Y-84090856D01*
X218232632Y-84118638D01*
X217848857Y-84277603D01*
X217779392Y-84519787D01*
X218580000Y-85320395D01*
X218594143Y-85306253D01*
X218773748Y-85485858D01*
X218759605Y-85500000D01*
X218773748Y-85514143D01*
X218594143Y-85693748D01*
X218580000Y-85679605D01*
X218565858Y-85693748D01*
X218386253Y-85514143D01*
X218400395Y-85500000D01*
X217599787Y-84699392D01*
X217357603Y-84768857D01*
X217307491Y-84909318D01*
X217225010Y-84709697D01*
X216832370Y-84316371D01*
X216319100Y-84103243D01*
X215763339Y-84102758D01*
X215249697Y-84314990D01*
X214856371Y-84707630D01*
X214770051Y-84915512D01*
X214685010Y-84709697D01*
X214462000Y-84486297D01*
X214462000Y-84272370D01*
X214425894Y-84090856D01*
X214404148Y-83981530D01*
X214239401Y-83734969D01*
X214212000Y-83707568D01*
X214212000Y-83390000D01*
X214154148Y-83099161D01*
X214154148Y-83099160D01*
X213989401Y-82852599D01*
X212362518Y-81225716D01*
X212746515Y-81067052D01*
X213382818Y-80431859D01*
X213727607Y-79601514D01*
X213728391Y-78702430D01*
X213385052Y-77871485D01*
X213266902Y-77753129D01*
X215630327Y-77753129D01*
X219090000Y-81212802D01*
M02*
