G04 #@! TF.FileFunction,Legend,Top*
%FSLAX46Y46*%
G04 Gerber Fmt 4.6, Leading zero omitted, Abs format (unit mm)*
G04 Created by KiCad (PCBNEW (2015-08-02 BZR 6038)-product) date 2015 November 19, Thursday 21:17:08*
%MOMM*%
G01*
G04 APERTURE LIST*
%ADD10C,0.100000*%
%ADD11C,0.150000*%
%ADD12C,0.300000*%
%ADD13C,0.381000*%
G04 APERTURE END LIST*
D10*
D11*
X202436667Y-117016661D02*
X201736667Y-117016661D01*
X201736667Y-116849995D01*
X201770000Y-116749995D01*
X201836667Y-116683328D01*
X201903333Y-116649995D01*
X202036667Y-116616661D01*
X202136667Y-116616661D01*
X202270000Y-116649995D01*
X202336667Y-116683328D01*
X202403333Y-116749995D01*
X202436667Y-116849995D01*
X202436667Y-117016661D01*
X202436667Y-116216661D02*
X202403333Y-116283328D01*
X202370000Y-116316661D01*
X202303333Y-116349995D01*
X202103333Y-116349995D01*
X202036667Y-116316661D01*
X202003333Y-116283328D01*
X201970000Y-116216661D01*
X201970000Y-116116661D01*
X202003333Y-116049995D01*
X202036667Y-116016661D01*
X202103333Y-115983328D01*
X202303333Y-115983328D01*
X202370000Y-116016661D01*
X202403333Y-116049995D01*
X202436667Y-116116661D01*
X202436667Y-116216661D01*
X201970000Y-115149995D02*
X202436667Y-115149995D01*
X202036667Y-115149995D02*
X202003333Y-115116662D01*
X201970000Y-115049995D01*
X201970000Y-114949995D01*
X202003333Y-114883329D01*
X202070000Y-114849995D01*
X202436667Y-114849995D01*
X202436667Y-114416662D02*
X202403333Y-114483329D01*
X202370000Y-114516662D01*
X202303333Y-114549996D01*
X202103333Y-114549996D01*
X202036667Y-114516662D01*
X202003333Y-114483329D01*
X201970000Y-114416662D01*
X201970000Y-114316662D01*
X202003333Y-114249996D01*
X202036667Y-114216662D01*
X202103333Y-114183329D01*
X202303333Y-114183329D01*
X202370000Y-114216662D01*
X202403333Y-114249996D01*
X202436667Y-114316662D01*
X202436667Y-114416662D01*
X201970000Y-113983329D02*
X201970000Y-113716663D01*
X201736667Y-113883329D02*
X202336667Y-113883329D01*
X202403333Y-113849996D01*
X202436667Y-113783329D01*
X202436667Y-113716663D01*
X201970000Y-112949996D02*
X202670000Y-112949996D01*
X202003333Y-112949996D02*
X201970000Y-112883330D01*
X201970000Y-112749996D01*
X202003333Y-112683330D01*
X202036667Y-112649996D01*
X202103333Y-112616663D01*
X202303333Y-112616663D01*
X202370000Y-112649996D01*
X202403333Y-112683330D01*
X202436667Y-112749996D01*
X202436667Y-112883330D01*
X202403333Y-112949996D01*
X202436667Y-112216663D02*
X202403333Y-112283330D01*
X202370000Y-112316663D01*
X202303333Y-112349997D01*
X202103333Y-112349997D01*
X202036667Y-112316663D01*
X202003333Y-112283330D01*
X201970000Y-112216663D01*
X201970000Y-112116663D01*
X202003333Y-112049997D01*
X202036667Y-112016663D01*
X202103333Y-111983330D01*
X202303333Y-111983330D01*
X202370000Y-112016663D01*
X202403333Y-112049997D01*
X202436667Y-112116663D01*
X202436667Y-112216663D01*
X201970000Y-111683330D02*
X202670000Y-111683330D01*
X202003333Y-111683330D02*
X201970000Y-111616664D01*
X201970000Y-111483330D01*
X202003333Y-111416664D01*
X202036667Y-111383330D01*
X202103333Y-111349997D01*
X202303333Y-111349997D01*
X202370000Y-111383330D01*
X202403333Y-111416664D01*
X202436667Y-111483330D01*
X202436667Y-111616664D01*
X202403333Y-111683330D01*
X201970000Y-110749997D02*
X202436667Y-110749997D01*
X201970000Y-111049997D02*
X202336667Y-111049997D01*
X202403333Y-111016664D01*
X202436667Y-110949997D01*
X202436667Y-110849997D01*
X202403333Y-110783331D01*
X202370000Y-110749997D01*
X202436667Y-110316664D02*
X202403333Y-110383331D01*
X202336667Y-110416664D01*
X201736667Y-110416664D01*
X202436667Y-109749997D02*
X202070000Y-109749997D01*
X202003333Y-109783331D01*
X201970000Y-109849997D01*
X201970000Y-109983331D01*
X202003333Y-110049997D01*
X202403333Y-109749997D02*
X202436667Y-109816664D01*
X202436667Y-109983331D01*
X202403333Y-110049997D01*
X202336667Y-110083331D01*
X202270000Y-110083331D01*
X202203333Y-110049997D01*
X202170000Y-109983331D01*
X202170000Y-109816664D01*
X202136667Y-109749997D01*
X201970000Y-109516664D02*
X201970000Y-109249998D01*
X201736667Y-109416664D02*
X202336667Y-109416664D01*
X202403333Y-109383331D01*
X202436667Y-109316664D01*
X202436667Y-109249998D01*
X202403333Y-108749998D02*
X202436667Y-108816664D01*
X202436667Y-108949998D01*
X202403333Y-109016664D01*
X202336667Y-109049998D01*
X202070000Y-109049998D01*
X202003333Y-109016664D01*
X201970000Y-108949998D01*
X201970000Y-108816664D01*
X202003333Y-108749998D01*
X202070000Y-108716664D01*
X202136667Y-108716664D01*
X202203333Y-109049998D01*
X202436667Y-107883331D02*
X201736667Y-107883331D01*
X202003333Y-107883331D02*
X201970000Y-107816665D01*
X201970000Y-107683331D01*
X202003333Y-107616665D01*
X202036667Y-107583331D01*
X202103333Y-107549998D01*
X202303333Y-107549998D01*
X202370000Y-107583331D01*
X202403333Y-107616665D01*
X202436667Y-107683331D01*
X202436667Y-107816665D01*
X202403333Y-107883331D01*
X202436667Y-107149998D02*
X202403333Y-107216665D01*
X202370000Y-107249998D01*
X202303333Y-107283332D01*
X202103333Y-107283332D01*
X202036667Y-107249998D01*
X202003333Y-107216665D01*
X201970000Y-107149998D01*
X201970000Y-107049998D01*
X202003333Y-106983332D01*
X202036667Y-106949998D01*
X202103333Y-106916665D01*
X202303333Y-106916665D01*
X202370000Y-106949998D01*
X202403333Y-106983332D01*
X202436667Y-107049998D01*
X202436667Y-107149998D01*
X201970000Y-106716665D02*
X201970000Y-106449999D01*
X201736667Y-106616665D02*
X202336667Y-106616665D01*
X202403333Y-106583332D01*
X202436667Y-106516665D01*
X202436667Y-106449999D01*
X202436667Y-106216665D02*
X201736667Y-106216665D01*
X202436667Y-105916665D02*
X202070000Y-105916665D01*
X202003333Y-105949999D01*
X201970000Y-106016665D01*
X201970000Y-106116665D01*
X202003333Y-106183332D01*
X202036667Y-106216665D01*
X201736667Y-105149999D02*
X201736667Y-104749999D01*
X202436667Y-104949999D02*
X201736667Y-104949999D01*
X202436667Y-104516666D02*
X201970000Y-104516666D01*
X202103333Y-104516666D02*
X202036667Y-104483333D01*
X202003333Y-104450000D01*
X201970000Y-104383333D01*
X201970000Y-104316666D01*
X202436667Y-103783333D02*
X202070000Y-103783333D01*
X202003333Y-103816667D01*
X201970000Y-103883333D01*
X201970000Y-104016667D01*
X202003333Y-104083333D01*
X202403333Y-103783333D02*
X202436667Y-103850000D01*
X202436667Y-104016667D01*
X202403333Y-104083333D01*
X202336667Y-104116667D01*
X202270000Y-104116667D01*
X202203333Y-104083333D01*
X202170000Y-104016667D01*
X202170000Y-103850000D01*
X202136667Y-103783333D01*
X202403333Y-103150000D02*
X202436667Y-103216667D01*
X202436667Y-103350000D01*
X202403333Y-103416667D01*
X202370000Y-103450000D01*
X202303333Y-103483334D01*
X202103333Y-103483334D01*
X202036667Y-103450000D01*
X202003333Y-103416667D01*
X201970000Y-103350000D01*
X201970000Y-103216667D01*
X202003333Y-103150000D01*
X202436667Y-102850000D02*
X201736667Y-102850000D01*
X202170000Y-102783334D02*
X202436667Y-102583334D01*
X201970000Y-102583334D02*
X202236667Y-102850000D01*
X202436667Y-101450000D02*
X202070000Y-101450000D01*
X202003333Y-101483334D01*
X201970000Y-101550000D01*
X201970000Y-101683334D01*
X202003333Y-101750000D01*
X202403333Y-101450000D02*
X202436667Y-101516667D01*
X202436667Y-101683334D01*
X202403333Y-101750000D01*
X202336667Y-101783334D01*
X202270000Y-101783334D01*
X202203333Y-101750000D01*
X202170000Y-101683334D01*
X202170000Y-101516667D01*
X202136667Y-101450000D01*
X201970000Y-101116667D02*
X202436667Y-101116667D01*
X202036667Y-101116667D02*
X202003333Y-101083334D01*
X201970000Y-101016667D01*
X201970000Y-100916667D01*
X202003333Y-100850001D01*
X202070000Y-100816667D01*
X202436667Y-100816667D01*
X202436667Y-100183334D02*
X201736667Y-100183334D01*
X202403333Y-100183334D02*
X202436667Y-100250001D01*
X202436667Y-100383334D01*
X202403333Y-100450001D01*
X202370000Y-100483334D01*
X202303333Y-100516668D01*
X202103333Y-100516668D01*
X202036667Y-100483334D01*
X202003333Y-100450001D01*
X201970000Y-100383334D01*
X201970000Y-100250001D01*
X202003333Y-100183334D01*
X202436667Y-98983335D02*
X202436667Y-99316668D01*
X201736667Y-99316668D01*
X202436667Y-98650001D02*
X202403333Y-98716668D01*
X202370000Y-98750001D01*
X202303333Y-98783335D01*
X202103333Y-98783335D01*
X202036667Y-98750001D01*
X202003333Y-98716668D01*
X201970000Y-98650001D01*
X201970000Y-98550001D01*
X202003333Y-98483335D01*
X202036667Y-98450001D01*
X202103333Y-98416668D01*
X202303333Y-98416668D01*
X202370000Y-98450001D01*
X202403333Y-98483335D01*
X202436667Y-98550001D01*
X202436667Y-98650001D01*
X202403333Y-97816668D02*
X202436667Y-97883335D01*
X202436667Y-98016668D01*
X202403333Y-98083335D01*
X202370000Y-98116668D01*
X202303333Y-98150002D01*
X202103333Y-98150002D01*
X202036667Y-98116668D01*
X202003333Y-98083335D01*
X201970000Y-98016668D01*
X201970000Y-97883335D01*
X202003333Y-97816668D01*
X202436667Y-97416668D02*
X202403333Y-97483335D01*
X202370000Y-97516668D01*
X202303333Y-97550002D01*
X202103333Y-97550002D01*
X202036667Y-97516668D01*
X202003333Y-97483335D01*
X201970000Y-97416668D01*
X201970000Y-97316668D01*
X202003333Y-97250002D01*
X202036667Y-97216668D01*
X202103333Y-97183335D01*
X202303333Y-97183335D01*
X202370000Y-97216668D01*
X202403333Y-97250002D01*
X202436667Y-97316668D01*
X202436667Y-97416668D01*
X201970000Y-96883335D02*
X202436667Y-96883335D01*
X202036667Y-96883335D02*
X202003333Y-96850002D01*
X201970000Y-96783335D01*
X201970000Y-96683335D01*
X202003333Y-96616669D01*
X202070000Y-96583335D01*
X202436667Y-96583335D01*
X202403333Y-95983336D02*
X202436667Y-96050002D01*
X202436667Y-96183336D01*
X202403333Y-96250002D01*
X202336667Y-96283336D01*
X202070000Y-96283336D01*
X202003333Y-96250002D01*
X201970000Y-96183336D01*
X201970000Y-96050002D01*
X202003333Y-95983336D01*
X202070000Y-95950002D01*
X202136667Y-95950002D01*
X202203333Y-96283336D01*
X201970000Y-95750002D02*
X201970000Y-95483336D01*
X201736667Y-95650002D02*
X202336667Y-95650002D01*
X202403333Y-95616669D01*
X202436667Y-95550002D01*
X202436667Y-95483336D01*
X202403333Y-94416669D02*
X202436667Y-94483336D01*
X202436667Y-94616669D01*
X202403333Y-94683336D01*
X202370000Y-94716669D01*
X202303333Y-94750003D01*
X202103333Y-94750003D01*
X202036667Y-94716669D01*
X202003333Y-94683336D01*
X201970000Y-94616669D01*
X201970000Y-94483336D01*
X202003333Y-94416669D01*
X202436667Y-94016669D02*
X202403333Y-94083336D01*
X202370000Y-94116669D01*
X202303333Y-94150003D01*
X202103333Y-94150003D01*
X202036667Y-94116669D01*
X202003333Y-94083336D01*
X201970000Y-94016669D01*
X201970000Y-93916669D01*
X202003333Y-93850003D01*
X202036667Y-93816669D01*
X202103333Y-93783336D01*
X202303333Y-93783336D01*
X202370000Y-93816669D01*
X202403333Y-93850003D01*
X202436667Y-93916669D01*
X202436667Y-94016669D01*
X201970000Y-93483336D02*
X202436667Y-93483336D01*
X202036667Y-93483336D02*
X202003333Y-93450003D01*
X201970000Y-93383336D01*
X201970000Y-93283336D01*
X202003333Y-93216670D01*
X202070000Y-93183336D01*
X202436667Y-93183336D01*
X201970000Y-92850003D02*
X202436667Y-92850003D01*
X202036667Y-92850003D02*
X202003333Y-92816670D01*
X201970000Y-92750003D01*
X201970000Y-92650003D01*
X202003333Y-92583337D01*
X202070000Y-92550003D01*
X202436667Y-92550003D01*
X202403333Y-91950004D02*
X202436667Y-92016670D01*
X202436667Y-92150004D01*
X202403333Y-92216670D01*
X202336667Y-92250004D01*
X202070000Y-92250004D01*
X202003333Y-92216670D01*
X201970000Y-92150004D01*
X201970000Y-92016670D01*
X202003333Y-91950004D01*
X202070000Y-91916670D01*
X202136667Y-91916670D01*
X202203333Y-92250004D01*
X202403333Y-91316670D02*
X202436667Y-91383337D01*
X202436667Y-91516670D01*
X202403333Y-91583337D01*
X202370000Y-91616670D01*
X202303333Y-91650004D01*
X202103333Y-91650004D01*
X202036667Y-91616670D01*
X202003333Y-91583337D01*
X201970000Y-91516670D01*
X201970000Y-91383337D01*
X202003333Y-91316670D01*
X201970000Y-91116670D02*
X201970000Y-90850004D01*
X201736667Y-91016670D02*
X202336667Y-91016670D01*
X202403333Y-90983337D01*
X202436667Y-90916670D01*
X202436667Y-90850004D01*
X202436667Y-90516670D02*
X202403333Y-90583337D01*
X202370000Y-90616670D01*
X202303333Y-90650004D01*
X202103333Y-90650004D01*
X202036667Y-90616670D01*
X202003333Y-90583337D01*
X201970000Y-90516670D01*
X201970000Y-90416670D01*
X202003333Y-90350004D01*
X202036667Y-90316670D01*
X202103333Y-90283337D01*
X202303333Y-90283337D01*
X202370000Y-90316670D01*
X202403333Y-90350004D01*
X202436667Y-90416670D01*
X202436667Y-90516670D01*
X202436667Y-89983337D02*
X201970000Y-89983337D01*
X202103333Y-89983337D02*
X202036667Y-89950004D01*
X202003333Y-89916671D01*
X201970000Y-89850004D01*
X201970000Y-89783337D01*
X202403333Y-89583338D02*
X202436667Y-89516671D01*
X202436667Y-89383338D01*
X202403333Y-89316671D01*
X202336667Y-89283338D01*
X202303333Y-89283338D01*
X202236667Y-89316671D01*
X202203333Y-89383338D01*
X202203333Y-89483338D01*
X202170000Y-89550004D01*
X202103333Y-89583338D01*
X202070000Y-89583338D01*
X202003333Y-89550004D01*
X201970000Y-89483338D01*
X201970000Y-89383338D01*
X202003333Y-89316671D01*
X202370000Y-88983337D02*
X202403333Y-88950004D01*
X202436667Y-88983337D01*
X202403333Y-89016671D01*
X202370000Y-88983337D01*
X202436667Y-88983337D01*
X202170000Y-88983337D02*
X201770000Y-89016671D01*
X201736667Y-88983337D01*
X201770000Y-88950004D01*
X202170000Y-88983337D01*
X201736667Y-88983337D01*
X203500000Y-117949995D02*
X203533333Y-117983329D01*
X203566667Y-118083329D01*
X203566667Y-118149995D01*
X203533333Y-118249995D01*
X203466667Y-118316662D01*
X203400000Y-118349995D01*
X203266667Y-118383329D01*
X203166667Y-118383329D01*
X203033333Y-118349995D01*
X202966667Y-118316662D01*
X202900000Y-118249995D01*
X202866667Y-118149995D01*
X202866667Y-118083329D01*
X202900000Y-117983329D01*
X202933333Y-117949995D01*
X203100000Y-117349995D02*
X203566667Y-117349995D01*
X203100000Y-117649995D02*
X203466667Y-117649995D01*
X203533333Y-117616662D01*
X203566667Y-117549995D01*
X203566667Y-117449995D01*
X203533333Y-117383329D01*
X203500000Y-117349995D01*
X203100000Y-117116662D02*
X203100000Y-116849996D01*
X202866667Y-117016662D02*
X203466667Y-117016662D01*
X203533333Y-116983329D01*
X203566667Y-116916662D01*
X203566667Y-116849996D01*
X202866667Y-115883329D02*
X203366667Y-115883329D01*
X203466667Y-115916663D01*
X203533333Y-115983329D01*
X203566667Y-116083329D01*
X203566667Y-116149996D01*
X203566667Y-115183330D02*
X203566667Y-115583330D01*
X203566667Y-115383330D02*
X202866667Y-115383330D01*
X202966667Y-115449996D01*
X203033333Y-115516663D01*
X203066667Y-115583330D01*
X202866667Y-114749996D02*
X202866667Y-114683329D01*
X202900000Y-114616663D01*
X202933333Y-114583329D01*
X203000000Y-114549996D01*
X203133333Y-114516663D01*
X203300000Y-114516663D01*
X203433333Y-114549996D01*
X203500000Y-114583329D01*
X203533333Y-114616663D01*
X203566667Y-114683329D01*
X203566667Y-114749996D01*
X203533333Y-114816663D01*
X203500000Y-114849996D01*
X203433333Y-114883329D01*
X203300000Y-114916663D01*
X203133333Y-114916663D01*
X203000000Y-114883329D01*
X202933333Y-114849996D01*
X202900000Y-114816663D01*
X202866667Y-114749996D01*
X203566667Y-113849996D02*
X203566667Y-114249996D01*
X203566667Y-114049996D02*
X202866667Y-114049996D01*
X202966667Y-114116662D01*
X203033333Y-114183329D01*
X203066667Y-114249996D01*
X203566667Y-112716662D02*
X203200000Y-112716662D01*
X203133333Y-112749996D01*
X203100000Y-112816662D01*
X203100000Y-112949996D01*
X203133333Y-113016662D01*
X203533333Y-112716662D02*
X203566667Y-112783329D01*
X203566667Y-112949996D01*
X203533333Y-113016662D01*
X203466667Y-113049996D01*
X203400000Y-113049996D01*
X203333333Y-113016662D01*
X203300000Y-112949996D01*
X203300000Y-112783329D01*
X203266667Y-112716662D01*
X203100000Y-112383329D02*
X203566667Y-112383329D01*
X203166667Y-112383329D02*
X203133333Y-112349996D01*
X203100000Y-112283329D01*
X203100000Y-112183329D01*
X203133333Y-112116663D01*
X203200000Y-112083329D01*
X203566667Y-112083329D01*
X203566667Y-111449996D02*
X202866667Y-111449996D01*
X203533333Y-111449996D02*
X203566667Y-111516663D01*
X203566667Y-111649996D01*
X203533333Y-111716663D01*
X203500000Y-111749996D01*
X203433333Y-111783330D01*
X203233333Y-111783330D01*
X203166667Y-111749996D01*
X203133333Y-111716663D01*
X203100000Y-111649996D01*
X203100000Y-111516663D01*
X203133333Y-111449996D01*
X202866667Y-110383330D02*
X203366667Y-110383330D01*
X203466667Y-110416664D01*
X203533333Y-110483330D01*
X203566667Y-110583330D01*
X203566667Y-110649997D01*
X203566667Y-109683331D02*
X203566667Y-110083331D01*
X203566667Y-109883331D02*
X202866667Y-109883331D01*
X202966667Y-109949997D01*
X203033333Y-110016664D01*
X203066667Y-110083331D01*
X202866667Y-109249997D02*
X202866667Y-109183330D01*
X202900000Y-109116664D01*
X202933333Y-109083330D01*
X203000000Y-109049997D01*
X203133333Y-109016664D01*
X203300000Y-109016664D01*
X203433333Y-109049997D01*
X203500000Y-109083330D01*
X203533333Y-109116664D01*
X203566667Y-109183330D01*
X203566667Y-109249997D01*
X203533333Y-109316664D01*
X203500000Y-109349997D01*
X203433333Y-109383330D01*
X203300000Y-109416664D01*
X203133333Y-109416664D01*
X203000000Y-109383330D01*
X202933333Y-109349997D01*
X202900000Y-109316664D01*
X202866667Y-109249997D01*
X202933333Y-108749997D02*
X202900000Y-108716663D01*
X202866667Y-108649997D01*
X202866667Y-108483330D01*
X202900000Y-108416663D01*
X202933333Y-108383330D01*
X203000000Y-108349997D01*
X203066667Y-108349997D01*
X203166667Y-108383330D01*
X203566667Y-108783330D01*
X203566667Y-108349997D01*
X203100000Y-107583330D02*
X203566667Y-107449997D01*
X203233333Y-107316663D01*
X203566667Y-107183330D01*
X203100000Y-107049997D01*
X203566667Y-106783330D02*
X202866667Y-106783330D01*
X203566667Y-106483330D02*
X203200000Y-106483330D01*
X203133333Y-106516664D01*
X203100000Y-106583330D01*
X203100000Y-106683330D01*
X203133333Y-106749997D01*
X203166667Y-106783330D01*
X203533333Y-105883331D02*
X203566667Y-105949997D01*
X203566667Y-106083331D01*
X203533333Y-106149997D01*
X203466667Y-106183331D01*
X203200000Y-106183331D01*
X203133333Y-106149997D01*
X203100000Y-106083331D01*
X203100000Y-105949997D01*
X203133333Y-105883331D01*
X203200000Y-105849997D01*
X203266667Y-105849997D01*
X203333333Y-106183331D01*
X203100000Y-105549997D02*
X203566667Y-105549997D01*
X203166667Y-105549997D02*
X203133333Y-105516664D01*
X203100000Y-105449997D01*
X203100000Y-105349997D01*
X203133333Y-105283331D01*
X203200000Y-105249997D01*
X203566667Y-105249997D01*
X203100000Y-104083331D02*
X203566667Y-104083331D01*
X203100000Y-104383331D02*
X203466667Y-104383331D01*
X203533333Y-104349998D01*
X203566667Y-104283331D01*
X203566667Y-104183331D01*
X203533333Y-104116665D01*
X203500000Y-104083331D01*
X203533333Y-103783332D02*
X203566667Y-103716665D01*
X203566667Y-103583332D01*
X203533333Y-103516665D01*
X203466667Y-103483332D01*
X203433333Y-103483332D01*
X203366667Y-103516665D01*
X203333333Y-103583332D01*
X203333333Y-103683332D01*
X203300000Y-103749998D01*
X203233333Y-103783332D01*
X203200000Y-103783332D01*
X203133333Y-103749998D01*
X203100000Y-103683332D01*
X203100000Y-103583332D01*
X203133333Y-103516665D01*
X203566667Y-103183331D02*
X203100000Y-103183331D01*
X202866667Y-103183331D02*
X202900000Y-103216665D01*
X202933333Y-103183331D01*
X202900000Y-103149998D01*
X202866667Y-103183331D01*
X202933333Y-103183331D01*
X203100000Y-102849998D02*
X203566667Y-102849998D01*
X203166667Y-102849998D02*
X203133333Y-102816665D01*
X203100000Y-102749998D01*
X203100000Y-102649998D01*
X203133333Y-102583332D01*
X203200000Y-102549998D01*
X203566667Y-102549998D01*
X203100000Y-101916665D02*
X203666667Y-101916665D01*
X203733333Y-101949999D01*
X203766667Y-101983332D01*
X203800000Y-102049999D01*
X203800000Y-102149999D01*
X203766667Y-102216665D01*
X203533333Y-101916665D02*
X203566667Y-101983332D01*
X203566667Y-102116665D01*
X203533333Y-102183332D01*
X203500000Y-102216665D01*
X203433333Y-102249999D01*
X203233333Y-102249999D01*
X203166667Y-102216665D01*
X203133333Y-102183332D01*
X203100000Y-102116665D01*
X203100000Y-101983332D01*
X203133333Y-101916665D01*
X202866667Y-101149999D02*
X202866667Y-100749999D01*
X203566667Y-100949999D02*
X202866667Y-100949999D01*
X203566667Y-100516666D02*
X203100000Y-100516666D01*
X203233333Y-100516666D02*
X203166667Y-100483333D01*
X203133333Y-100450000D01*
X203100000Y-100383333D01*
X203100000Y-100316666D01*
X203566667Y-99783333D02*
X203200000Y-99783333D01*
X203133333Y-99816667D01*
X203100000Y-99883333D01*
X203100000Y-100016667D01*
X203133333Y-100083333D01*
X203533333Y-99783333D02*
X203566667Y-99850000D01*
X203566667Y-100016667D01*
X203533333Y-100083333D01*
X203466667Y-100116667D01*
X203400000Y-100116667D01*
X203333333Y-100083333D01*
X203300000Y-100016667D01*
X203300000Y-99850000D01*
X203266667Y-99783333D01*
X203533333Y-99150000D02*
X203566667Y-99216667D01*
X203566667Y-99350000D01*
X203533333Y-99416667D01*
X203500000Y-99450000D01*
X203433333Y-99483334D01*
X203233333Y-99483334D01*
X203166667Y-99450000D01*
X203133333Y-99416667D01*
X203100000Y-99350000D01*
X203100000Y-99216667D01*
X203133333Y-99150000D01*
X203566667Y-98850000D02*
X202866667Y-98850000D01*
X203300000Y-98783334D02*
X203566667Y-98583334D01*
X203100000Y-98583334D02*
X203366667Y-98850000D01*
X203100000Y-97816667D02*
X203566667Y-97683334D01*
X203233333Y-97550000D01*
X203566667Y-97416667D01*
X203100000Y-97283334D01*
X203566667Y-97016667D02*
X203100000Y-97016667D01*
X202866667Y-97016667D02*
X202900000Y-97050001D01*
X202933333Y-97016667D01*
X202900000Y-96983334D01*
X202866667Y-97016667D01*
X202933333Y-97016667D01*
X203100000Y-96783334D02*
X203100000Y-96516668D01*
X202866667Y-96683334D02*
X203466667Y-96683334D01*
X203533333Y-96650001D01*
X203566667Y-96583334D01*
X203566667Y-96516668D01*
X203566667Y-96283334D02*
X202866667Y-96283334D01*
X203566667Y-95983334D02*
X203200000Y-95983334D01*
X203133333Y-96016668D01*
X203100000Y-96083334D01*
X203100000Y-96183334D01*
X203133333Y-96250001D01*
X203166667Y-96283334D01*
X203533333Y-94850002D02*
X203566667Y-94916668D01*
X203566667Y-95050002D01*
X203533333Y-95116668D01*
X203466667Y-95150002D01*
X203200000Y-95150002D01*
X203133333Y-95116668D01*
X203100000Y-95050002D01*
X203100000Y-94916668D01*
X203133333Y-94850002D01*
X203200000Y-94816668D01*
X203266667Y-94816668D01*
X203333333Y-95150002D01*
X203566667Y-94583335D02*
X203100000Y-94216668D01*
X203100000Y-94583335D02*
X203566667Y-94216668D01*
X203100000Y-94050001D02*
X203100000Y-93783335D01*
X202866667Y-93950001D02*
X203466667Y-93950001D01*
X203533333Y-93916668D01*
X203566667Y-93850001D01*
X203566667Y-93783335D01*
X203533333Y-93283335D02*
X203566667Y-93350001D01*
X203566667Y-93483335D01*
X203533333Y-93550001D01*
X203466667Y-93583335D01*
X203200000Y-93583335D01*
X203133333Y-93550001D01*
X203100000Y-93483335D01*
X203100000Y-93350001D01*
X203133333Y-93283335D01*
X203200000Y-93250001D01*
X203266667Y-93250001D01*
X203333333Y-93583335D01*
X203566667Y-92950001D02*
X203100000Y-92950001D01*
X203233333Y-92950001D02*
X203166667Y-92916668D01*
X203133333Y-92883335D01*
X203100000Y-92816668D01*
X203100000Y-92750001D01*
X203100000Y-92516668D02*
X203566667Y-92516668D01*
X203166667Y-92516668D02*
X203133333Y-92483335D01*
X203100000Y-92416668D01*
X203100000Y-92316668D01*
X203133333Y-92250002D01*
X203200000Y-92216668D01*
X203566667Y-92216668D01*
X203566667Y-91583335D02*
X203200000Y-91583335D01*
X203133333Y-91616669D01*
X203100000Y-91683335D01*
X203100000Y-91816669D01*
X203133333Y-91883335D01*
X203533333Y-91583335D02*
X203566667Y-91650002D01*
X203566667Y-91816669D01*
X203533333Y-91883335D01*
X203466667Y-91916669D01*
X203400000Y-91916669D01*
X203333333Y-91883335D01*
X203300000Y-91816669D01*
X203300000Y-91650002D01*
X203266667Y-91583335D01*
X203566667Y-91150002D02*
X203533333Y-91216669D01*
X203466667Y-91250002D01*
X202866667Y-91250002D01*
X203100000Y-90350002D02*
X203800000Y-90350002D01*
X203133333Y-90350002D02*
X203100000Y-90283336D01*
X203100000Y-90150002D01*
X203133333Y-90083336D01*
X203166667Y-90050002D01*
X203233333Y-90016669D01*
X203433333Y-90016669D01*
X203500000Y-90050002D01*
X203533333Y-90083336D01*
X203566667Y-90150002D01*
X203566667Y-90283336D01*
X203533333Y-90350002D01*
X203566667Y-89616669D02*
X203533333Y-89683336D01*
X203500000Y-89716669D01*
X203433333Y-89750003D01*
X203233333Y-89750003D01*
X203166667Y-89716669D01*
X203133333Y-89683336D01*
X203100000Y-89616669D01*
X203100000Y-89516669D01*
X203133333Y-89450003D01*
X203166667Y-89416669D01*
X203233333Y-89383336D01*
X203433333Y-89383336D01*
X203500000Y-89416669D01*
X203533333Y-89450003D01*
X203566667Y-89516669D01*
X203566667Y-89616669D01*
X203100000Y-89150003D02*
X203566667Y-89016670D01*
X203233333Y-88883336D01*
X203566667Y-88750003D01*
X203100000Y-88616670D01*
X203533333Y-88083337D02*
X203566667Y-88150003D01*
X203566667Y-88283337D01*
X203533333Y-88350003D01*
X203466667Y-88383337D01*
X203200000Y-88383337D01*
X203133333Y-88350003D01*
X203100000Y-88283337D01*
X203100000Y-88150003D01*
X203133333Y-88083337D01*
X203200000Y-88050003D01*
X203266667Y-88050003D01*
X203333333Y-88383337D01*
X203566667Y-87750003D02*
X203100000Y-87750003D01*
X203233333Y-87750003D02*
X203166667Y-87716670D01*
X203133333Y-87683337D01*
X203100000Y-87616670D01*
X203100000Y-87550003D01*
X204630000Y-110033332D02*
X204663333Y-110066666D01*
X204696667Y-110166666D01*
X204696667Y-110233332D01*
X204663333Y-110333332D01*
X204596667Y-110399999D01*
X204530000Y-110433332D01*
X204396667Y-110466666D01*
X204296667Y-110466666D01*
X204163333Y-110433332D01*
X204096667Y-110399999D01*
X204030000Y-110333332D01*
X203996667Y-110233332D01*
X203996667Y-110166666D01*
X204030000Y-110066666D01*
X204063333Y-110033332D01*
X204230000Y-109433332D02*
X204696667Y-109433332D01*
X204230000Y-109733332D02*
X204596667Y-109733332D01*
X204663333Y-109699999D01*
X204696667Y-109633332D01*
X204696667Y-109533332D01*
X204663333Y-109466666D01*
X204630000Y-109433332D01*
X204230000Y-109199999D02*
X204230000Y-108933333D01*
X203996667Y-109099999D02*
X204596667Y-109099999D01*
X204663333Y-109066666D01*
X204696667Y-108999999D01*
X204696667Y-108933333D01*
X203996667Y-107966666D02*
X204496667Y-107966666D01*
X204596667Y-108000000D01*
X204663333Y-108066666D01*
X204696667Y-108166666D01*
X204696667Y-108233333D01*
X204696667Y-107266667D02*
X204696667Y-107666667D01*
X204696667Y-107466667D02*
X203996667Y-107466667D01*
X204096667Y-107533333D01*
X204163333Y-107600000D01*
X204196667Y-107666667D01*
X203996667Y-106833333D02*
X203996667Y-106766666D01*
X204030000Y-106700000D01*
X204063333Y-106666666D01*
X204130000Y-106633333D01*
X204263333Y-106600000D01*
X204430000Y-106600000D01*
X204563333Y-106633333D01*
X204630000Y-106666666D01*
X204663333Y-106700000D01*
X204696667Y-106766666D01*
X204696667Y-106833333D01*
X204663333Y-106900000D01*
X204630000Y-106933333D01*
X204563333Y-106966666D01*
X204430000Y-107000000D01*
X204263333Y-107000000D01*
X204130000Y-106966666D01*
X204063333Y-106933333D01*
X204030000Y-106900000D01*
X203996667Y-106833333D01*
X204063333Y-106333333D02*
X204030000Y-106299999D01*
X203996667Y-106233333D01*
X203996667Y-106066666D01*
X204030000Y-105999999D01*
X204063333Y-105966666D01*
X204130000Y-105933333D01*
X204196667Y-105933333D01*
X204296667Y-105966666D01*
X204696667Y-106366666D01*
X204696667Y-105933333D01*
X204230000Y-105166666D02*
X204696667Y-105033333D01*
X204363333Y-104899999D01*
X204696667Y-104766666D01*
X204230000Y-104633333D01*
X204696667Y-104366666D02*
X203996667Y-104366666D01*
X204696667Y-104066666D02*
X204330000Y-104066666D01*
X204263333Y-104100000D01*
X204230000Y-104166666D01*
X204230000Y-104266666D01*
X204263333Y-104333333D01*
X204296667Y-104366666D01*
X204663333Y-103466667D02*
X204696667Y-103533333D01*
X204696667Y-103666667D01*
X204663333Y-103733333D01*
X204596667Y-103766667D01*
X204330000Y-103766667D01*
X204263333Y-103733333D01*
X204230000Y-103666667D01*
X204230000Y-103533333D01*
X204263333Y-103466667D01*
X204330000Y-103433333D01*
X204396667Y-103433333D01*
X204463333Y-103766667D01*
X204230000Y-103133333D02*
X204696667Y-103133333D01*
X204296667Y-103133333D02*
X204263333Y-103100000D01*
X204230000Y-103033333D01*
X204230000Y-102933333D01*
X204263333Y-102866667D01*
X204330000Y-102833333D01*
X204696667Y-102833333D01*
X204230000Y-101666667D02*
X204696667Y-101666667D01*
X204230000Y-101966667D02*
X204596667Y-101966667D01*
X204663333Y-101933334D01*
X204696667Y-101866667D01*
X204696667Y-101766667D01*
X204663333Y-101700001D01*
X204630000Y-101666667D01*
X204663333Y-101366668D02*
X204696667Y-101300001D01*
X204696667Y-101166668D01*
X204663333Y-101100001D01*
X204596667Y-101066668D01*
X204563333Y-101066668D01*
X204496667Y-101100001D01*
X204463333Y-101166668D01*
X204463333Y-101266668D01*
X204430000Y-101333334D01*
X204363333Y-101366668D01*
X204330000Y-101366668D01*
X204263333Y-101333334D01*
X204230000Y-101266668D01*
X204230000Y-101166668D01*
X204263333Y-101100001D01*
X204696667Y-100766667D02*
X204230000Y-100766667D01*
X203996667Y-100766667D02*
X204030000Y-100800001D01*
X204063333Y-100766667D01*
X204030000Y-100733334D01*
X203996667Y-100766667D01*
X204063333Y-100766667D01*
X204230000Y-100433334D02*
X204696667Y-100433334D01*
X204296667Y-100433334D02*
X204263333Y-100400001D01*
X204230000Y-100333334D01*
X204230000Y-100233334D01*
X204263333Y-100166668D01*
X204330000Y-100133334D01*
X204696667Y-100133334D01*
X204230000Y-99500001D02*
X204796667Y-99500001D01*
X204863333Y-99533335D01*
X204896667Y-99566668D01*
X204930000Y-99633335D01*
X204930000Y-99733335D01*
X204896667Y-99800001D01*
X204663333Y-99500001D02*
X204696667Y-99566668D01*
X204696667Y-99700001D01*
X204663333Y-99766668D01*
X204630000Y-99800001D01*
X204563333Y-99833335D01*
X204363333Y-99833335D01*
X204296667Y-99800001D01*
X204263333Y-99766668D01*
X204230000Y-99700001D01*
X204230000Y-99566668D01*
X204263333Y-99500001D01*
X203996667Y-98333335D02*
X203996667Y-98466669D01*
X204030000Y-98533335D01*
X204063333Y-98566669D01*
X204163333Y-98633335D01*
X204296667Y-98666669D01*
X204563333Y-98666669D01*
X204630000Y-98633335D01*
X204663333Y-98600002D01*
X204696667Y-98533335D01*
X204696667Y-98400002D01*
X204663333Y-98333335D01*
X204630000Y-98300002D01*
X204563333Y-98266669D01*
X204396667Y-98266669D01*
X204330000Y-98300002D01*
X204296667Y-98333335D01*
X204263333Y-98400002D01*
X204263333Y-98533335D01*
X204296667Y-98600002D01*
X204330000Y-98633335D01*
X204396667Y-98666669D01*
X204696667Y-97966668D02*
X203996667Y-97966668D01*
X204696667Y-97566668D01*
X203996667Y-97566668D01*
X204696667Y-96866669D02*
X204696667Y-97266669D01*
X204696667Y-97066669D02*
X203996667Y-97066669D01*
X204096667Y-97133335D01*
X204163333Y-97200002D01*
X204196667Y-97266669D01*
X203996667Y-96633335D02*
X203996667Y-96200002D01*
X204263333Y-96433335D01*
X204263333Y-96333335D01*
X204296667Y-96266668D01*
X204330000Y-96233335D01*
X204396667Y-96200002D01*
X204563333Y-96200002D01*
X204630000Y-96233335D01*
X204663333Y-96266668D01*
X204696667Y-96333335D01*
X204696667Y-96533335D01*
X204663333Y-96600002D01*
X204630000Y-96633335D01*
X203996667Y-95600001D02*
X203996667Y-95733335D01*
X204030000Y-95800001D01*
X204063333Y-95833335D01*
X204163333Y-95900001D01*
X204296667Y-95933335D01*
X204563333Y-95933335D01*
X204630000Y-95900001D01*
X204663333Y-95866668D01*
X204696667Y-95800001D01*
X204696667Y-95666668D01*
X204663333Y-95600001D01*
X204630000Y-95566668D01*
X204563333Y-95533335D01*
X204396667Y-95533335D01*
X204330000Y-95566668D01*
X204296667Y-95600001D01*
X204263333Y-95666668D01*
X204263333Y-95800001D01*
X204296667Y-95866668D01*
X204330000Y-95900001D01*
X204396667Y-95933335D01*
X223850000Y-105716667D02*
X223883333Y-105650001D01*
X223883333Y-105550001D01*
X223850000Y-105450001D01*
X223783333Y-105383334D01*
X223716667Y-105350001D01*
X223583333Y-105316667D01*
X223483333Y-105316667D01*
X223350000Y-105350001D01*
X223283333Y-105383334D01*
X223216667Y-105450001D01*
X223183333Y-105550001D01*
X223183333Y-105616667D01*
X223216667Y-105716667D01*
X223250000Y-105750001D01*
X223483333Y-105750001D01*
X223483333Y-105616667D01*
X223183333Y-106050001D02*
X223883333Y-106050001D01*
X223183333Y-106450001D01*
X223883333Y-106450001D01*
X223183333Y-106783334D02*
X223883333Y-106783334D01*
X223883333Y-106950000D01*
X223850000Y-107050000D01*
X223783333Y-107116667D01*
X223716667Y-107150000D01*
X223583333Y-107183334D01*
X223483333Y-107183334D01*
X223350000Y-107150000D01*
X223283333Y-107116667D01*
X223216667Y-107050000D01*
X223183333Y-106950000D01*
X223183333Y-106783334D01*
X223183333Y-108350000D02*
X223183333Y-108016667D01*
X223883333Y-108016667D01*
X223116667Y-108416667D02*
X223116667Y-108950000D01*
X223183333Y-109516667D02*
X223516667Y-109283333D01*
X223183333Y-109116667D02*
X223883333Y-109116667D01*
X223883333Y-109383333D01*
X223850000Y-109450000D01*
X223816667Y-109483333D01*
X223750000Y-109516667D01*
X223650000Y-109516667D01*
X223583333Y-109483333D01*
X223550000Y-109450000D01*
X223516667Y-109383333D01*
X223516667Y-109116667D01*
X223883333Y-109750000D02*
X223183333Y-110216667D01*
X223883333Y-110216667D02*
X223183333Y-109750000D01*
X223183333Y-111350000D02*
X223183333Y-111016667D01*
X223883333Y-111016667D01*
X223116667Y-111416667D02*
X223116667Y-111950000D01*
X223883333Y-112016667D02*
X223883333Y-112416667D01*
X223183333Y-112216667D02*
X223883333Y-112216667D01*
X223883333Y-112583333D02*
X223183333Y-113050000D01*
X223883333Y-113050000D02*
X223183333Y-112583333D01*
X223450000Y-113850000D02*
X223450000Y-114383333D01*
X223183333Y-114116666D02*
X223716667Y-114116666D01*
X223883333Y-115050000D02*
X223883333Y-114716667D01*
X223550000Y-114683333D01*
X223583333Y-114716667D01*
X223616667Y-114783333D01*
X223616667Y-114950000D01*
X223583333Y-115016667D01*
X223550000Y-115050000D01*
X223483333Y-115083333D01*
X223316667Y-115083333D01*
X223250000Y-115050000D01*
X223216667Y-115016667D01*
X223183333Y-114950000D01*
X223183333Y-114783333D01*
X223216667Y-114716667D01*
X223250000Y-114683333D01*
X223883333Y-115283334D02*
X223183333Y-115516667D01*
X223883333Y-115750000D01*
D12*
X210178571Y-114321427D02*
X210178571Y-115035713D01*
X208678571Y-115035713D01*
X210178571Y-113607141D02*
X210107143Y-113749999D01*
X210035714Y-113821427D01*
X209892857Y-113892856D01*
X209464286Y-113892856D01*
X209321429Y-113821427D01*
X209250000Y-113749999D01*
X209178571Y-113607141D01*
X209178571Y-113392856D01*
X209250000Y-113249999D01*
X209321429Y-113178570D01*
X209464286Y-113107141D01*
X209892857Y-113107141D01*
X210035714Y-113178570D01*
X210107143Y-113249999D01*
X210178571Y-113392856D01*
X210178571Y-113607141D01*
X210107143Y-111821427D02*
X210178571Y-111964284D01*
X210178571Y-112249998D01*
X210107143Y-112392856D01*
X210035714Y-112464284D01*
X209892857Y-112535713D01*
X209464286Y-112535713D01*
X209321429Y-112464284D01*
X209250000Y-112392856D01*
X209178571Y-112249998D01*
X209178571Y-111964284D01*
X209250000Y-111821427D01*
X210178571Y-110964284D02*
X210107143Y-111107142D01*
X210035714Y-111178570D01*
X209892857Y-111249999D01*
X209464286Y-111249999D01*
X209321429Y-111178570D01*
X209250000Y-111107142D01*
X209178571Y-110964284D01*
X209178571Y-110749999D01*
X209250000Y-110607142D01*
X209321429Y-110535713D01*
X209464286Y-110464284D01*
X209892857Y-110464284D01*
X210035714Y-110535713D01*
X210107143Y-110607142D01*
X210178571Y-110749999D01*
X210178571Y-110964284D01*
X209178571Y-109821427D02*
X210178571Y-109821427D01*
X209321429Y-109821427D02*
X209250000Y-109749999D01*
X209178571Y-109607141D01*
X209178571Y-109392856D01*
X209250000Y-109249999D01*
X209392857Y-109178570D01*
X210178571Y-109178570D01*
X210107143Y-107892856D02*
X210178571Y-108035713D01*
X210178571Y-108321427D01*
X210107143Y-108464284D01*
X209964286Y-108535713D01*
X209392857Y-108535713D01*
X209250000Y-108464284D01*
X209178571Y-108321427D01*
X209178571Y-108035713D01*
X209250000Y-107892856D01*
X209392857Y-107821427D01*
X209535714Y-107821427D01*
X209678571Y-108535713D01*
X209178571Y-107392856D02*
X209178571Y-106821427D01*
X208678571Y-107178570D02*
X209964286Y-107178570D01*
X210107143Y-107107142D01*
X210178571Y-106964284D01*
X210178571Y-106821427D01*
X210178571Y-104535713D02*
X208678571Y-104535713D01*
X210107143Y-104535713D02*
X210178571Y-104678570D01*
X210178571Y-104964284D01*
X210107143Y-105107142D01*
X210035714Y-105178570D01*
X209892857Y-105249999D01*
X209464286Y-105249999D01*
X209321429Y-105178570D01*
X209250000Y-105107142D01*
X209178571Y-104964284D01*
X209178571Y-104678570D01*
X209250000Y-104535713D01*
X210107143Y-103249999D02*
X210178571Y-103392856D01*
X210178571Y-103678570D01*
X210107143Y-103821427D01*
X209964286Y-103892856D01*
X209392857Y-103892856D01*
X209250000Y-103821427D01*
X209178571Y-103678570D01*
X209178571Y-103392856D01*
X209250000Y-103249999D01*
X209392857Y-103178570D01*
X209535714Y-103178570D01*
X209678571Y-103892856D01*
X210107143Y-101892856D02*
X210178571Y-102035713D01*
X210178571Y-102321427D01*
X210107143Y-102464285D01*
X210035714Y-102535713D01*
X209892857Y-102607142D01*
X209464286Y-102607142D01*
X209321429Y-102535713D01*
X209250000Y-102464285D01*
X209178571Y-102321427D01*
X209178571Y-102035713D01*
X209250000Y-101892856D01*
X210178571Y-101035713D02*
X210107143Y-101178571D01*
X210035714Y-101249999D01*
X209892857Y-101321428D01*
X209464286Y-101321428D01*
X209321429Y-101249999D01*
X209250000Y-101178571D01*
X209178571Y-101035713D01*
X209178571Y-100821428D01*
X209250000Y-100678571D01*
X209321429Y-100607142D01*
X209464286Y-100535713D01*
X209892857Y-100535713D01*
X210035714Y-100607142D01*
X210107143Y-100678571D01*
X210178571Y-100821428D01*
X210178571Y-101035713D01*
X210178571Y-99249999D02*
X208678571Y-99249999D01*
X210107143Y-99249999D02*
X210178571Y-99392856D01*
X210178571Y-99678570D01*
X210107143Y-99821428D01*
X210035714Y-99892856D01*
X209892857Y-99964285D01*
X209464286Y-99964285D01*
X209321429Y-99892856D01*
X209250000Y-99821428D01*
X209178571Y-99678570D01*
X209178571Y-99392856D01*
X209250000Y-99249999D01*
X210107143Y-97964285D02*
X210178571Y-98107142D01*
X210178571Y-98392856D01*
X210107143Y-98535713D01*
X209964286Y-98607142D01*
X209392857Y-98607142D01*
X209250000Y-98535713D01*
X209178571Y-98392856D01*
X209178571Y-98107142D01*
X209250000Y-97964285D01*
X209392857Y-97892856D01*
X209535714Y-97892856D01*
X209678571Y-98607142D01*
X210178571Y-97249999D02*
X209178571Y-97249999D01*
X209464286Y-97249999D02*
X209321429Y-97178571D01*
X209250000Y-97107142D01*
X209178571Y-96964285D01*
X209178571Y-96821428D01*
X210178571Y-95178571D02*
X209178571Y-95178571D01*
X208678571Y-95178571D02*
X208750000Y-95250000D01*
X208821429Y-95178571D01*
X208750000Y-95107143D01*
X208678571Y-95178571D01*
X208821429Y-95178571D01*
X209178571Y-94464285D02*
X210178571Y-94464285D01*
X209321429Y-94464285D02*
X209250000Y-94392857D01*
X209178571Y-94249999D01*
X209178571Y-94035714D01*
X209250000Y-93892857D01*
X209392857Y-93821428D01*
X210178571Y-93821428D01*
X209178571Y-93321428D02*
X209178571Y-92749999D01*
X208678571Y-93107142D02*
X209964286Y-93107142D01*
X210107143Y-93035714D01*
X210178571Y-92892856D01*
X210178571Y-92749999D01*
X210107143Y-91678571D02*
X210178571Y-91821428D01*
X210178571Y-92107142D01*
X210107143Y-92249999D01*
X209964286Y-92321428D01*
X209392857Y-92321428D01*
X209250000Y-92249999D01*
X209178571Y-92107142D01*
X209178571Y-91821428D01*
X209250000Y-91678571D01*
X209392857Y-91607142D01*
X209535714Y-91607142D01*
X209678571Y-92321428D01*
X210178571Y-90964285D02*
X209178571Y-90964285D01*
X209464286Y-90964285D02*
X209321429Y-90892857D01*
X209250000Y-90821428D01*
X209178571Y-90678571D01*
X209178571Y-90535714D01*
X209178571Y-90250000D02*
X209178571Y-89678571D01*
X210178571Y-90035714D02*
X208892857Y-90035714D01*
X208750000Y-89964286D01*
X208678571Y-89821428D01*
X208678571Y-89678571D01*
X210178571Y-88535714D02*
X209392857Y-88535714D01*
X209250000Y-88607143D01*
X209178571Y-88750000D01*
X209178571Y-89035714D01*
X209250000Y-89178571D01*
X210107143Y-88535714D02*
X210178571Y-88678571D01*
X210178571Y-89035714D01*
X210107143Y-89178571D01*
X209964286Y-89250000D01*
X209821429Y-89250000D01*
X209678571Y-89178571D01*
X209607143Y-89035714D01*
X209607143Y-88678571D01*
X209535714Y-88535714D01*
X210107143Y-87178571D02*
X210178571Y-87321428D01*
X210178571Y-87607142D01*
X210107143Y-87750000D01*
X210035714Y-87821428D01*
X209892857Y-87892857D01*
X209464286Y-87892857D01*
X209321429Y-87821428D01*
X209250000Y-87750000D01*
X209178571Y-87607142D01*
X209178571Y-87321428D01*
X209250000Y-87178571D01*
X210107143Y-85964286D02*
X210178571Y-86107143D01*
X210178571Y-86392857D01*
X210107143Y-86535714D01*
X209964286Y-86607143D01*
X209392857Y-86607143D01*
X209250000Y-86535714D01*
X209178571Y-86392857D01*
X209178571Y-86107143D01*
X209250000Y-85964286D01*
X209392857Y-85892857D01*
X209535714Y-85892857D01*
X209678571Y-86607143D01*
D11*
X222354000Y-130200000D02*
X223624000Y-130200000D01*
X223624000Y-130200000D02*
X223624000Y-129000000D01*
X223624000Y-129000000D02*
X222354000Y-129000000D01*
X209146000Y-130200000D02*
X207876000Y-130200000D01*
X207876000Y-130128000D02*
X207876000Y-128858000D01*
X207876000Y-128858000D02*
X209146000Y-128858000D01*
X209145000Y-111930000D02*
X209145000Y-130200000D01*
X222354000Y-111930000D02*
X222354000Y-130200000D01*
X209145000Y-130200000D02*
X222354000Y-130200000D01*
X209145000Y-111930000D02*
X222355000Y-111930000D01*
X209944000Y-70950000D02*
X208674000Y-70950000D01*
X208674000Y-70950000D02*
X208674000Y-72150000D01*
X208674000Y-72150000D02*
X209944000Y-72150000D01*
X223152000Y-70950000D02*
X224422000Y-70950000D01*
X224422000Y-71022000D02*
X224422000Y-72292000D01*
X224422000Y-72292000D02*
X223152000Y-72292000D01*
X223153000Y-89220000D02*
X223153000Y-70950000D01*
X209944000Y-89220000D02*
X209944000Y-70950000D01*
X223153000Y-70950000D02*
X209944000Y-70950000D01*
X223153000Y-89220000D02*
X209943000Y-89220000D01*
X199735640Y-86385000D02*
X199735640Y-84988000D01*
X199608640Y-86639000D02*
X199608640Y-84861000D01*
X199481640Y-87020000D02*
X199481640Y-84480000D01*
X199354640Y-84353000D02*
X199354640Y-87147000D01*
X199227640Y-87274000D02*
X199227640Y-84226000D01*
X199100640Y-84099000D02*
X199100640Y-87401000D01*
X198973640Y-87528000D02*
X198973640Y-83972000D01*
X200116640Y-88417000D02*
X195544640Y-88417000D01*
X195544640Y-88417000D02*
X194782640Y-87655000D01*
X194782640Y-87655000D02*
X194782640Y-83845000D01*
X194782640Y-83845000D02*
X195544640Y-83083000D01*
X195544640Y-83083000D02*
X200116640Y-83083000D01*
X200116640Y-83083000D02*
X200116640Y-88417000D01*
X195290640Y-85750000D02*
X196052640Y-85750000D01*
X195671640Y-86131000D02*
X195671640Y-85369000D01*
X199862640Y-85750000D02*
G75*
G03X199862640Y-85750000I-2413000J0D01*
G01*
D13*
X197001900Y-76202380D02*
X186999380Y-76202380D01*
X186999380Y-72300940D02*
X186999380Y-81599880D01*
X186999380Y-81599880D02*
X197050160Y-81599880D01*
X197001900Y-72300940D02*
X197001900Y-81599880D01*
X187050180Y-81450020D02*
X186951120Y-81450020D01*
D11*
X186350000Y-106375000D02*
X185150000Y-106375000D01*
X185150000Y-104625000D02*
X186350000Y-104625000D01*
X185625000Y-110150000D02*
X185625000Y-111350000D01*
X183875000Y-111350000D02*
X183875000Y-110150000D01*
X185625000Y-115400000D02*
X185625000Y-116600000D01*
X183875000Y-116600000D02*
X183875000Y-115400000D01*
X186600000Y-120625000D02*
X185400000Y-120625000D01*
X185400000Y-118875000D02*
X186600000Y-118875000D01*
X180360000Y-122090000D02*
X198140000Y-122090000D01*
X198140000Y-122090000D02*
X198140000Y-89070000D01*
X198140000Y-89070000D02*
X180360000Y-89070000D01*
X180360000Y-89070000D02*
X180360000Y-122090000D01*
X236100000Y-105610000D02*
X227270000Y-105610000D01*
X236100000Y-108150000D02*
X236100000Y-105610000D01*
X227270000Y-108150000D02*
X227270000Y-105610000D01*
X227270000Y-110690000D02*
X227270000Y-108150000D01*
X236100000Y-110690000D02*
X236100000Y-108150000D01*
X236100000Y-108150000D02*
X227270000Y-108150000D01*
X236100000Y-110690000D02*
X227270000Y-110690000D01*
X236100000Y-113230000D02*
X236100000Y-110690000D01*
X227270000Y-113230000D02*
X236100000Y-113230000D01*
X227270000Y-113230000D02*
X227270000Y-110690000D01*
X227270000Y-115770000D02*
X227270000Y-113230000D01*
X224600000Y-114500000D02*
X224600000Y-116050000D01*
X224600000Y-116050000D02*
X226000000Y-116050000D01*
X227270000Y-115770000D02*
X236100000Y-115770000D01*
X236100000Y-115770000D02*
X236100000Y-113230000D01*
X236100000Y-113230000D02*
X227270000Y-113230000D01*
X217299160Y-100349760D02*
X217250900Y-100349760D01*
X214500180Y-101050800D02*
X214500180Y-100349760D01*
X214500180Y-100349760D02*
X214749100Y-100349760D01*
X217299160Y-100349760D02*
X217499820Y-100349760D01*
X217499820Y-100349760D02*
X217499820Y-101050800D01*
X217375000Y-106150000D02*
X217375000Y-107350000D01*
X215625000Y-107350000D02*
X215625000Y-106150000D01*
X214875000Y-91650000D02*
X214875000Y-92850000D01*
X213125000Y-92850000D02*
X213125000Y-91650000D01*
X220150000Y-102125000D02*
X221350000Y-102125000D01*
X221350000Y-103875000D02*
X220150000Y-103875000D01*
X215850000Y-97375000D02*
X214650000Y-97375000D01*
X214650000Y-95625000D02*
X215850000Y-95625000D01*
X226600000Y-103875000D02*
X225400000Y-103875000D01*
X225400000Y-102125000D02*
X226600000Y-102125000D01*
X215875000Y-92850000D02*
X215875000Y-91650000D01*
X217625000Y-91650000D02*
X217625000Y-92850000D01*
X188550000Y-109850000D02*
G75*
G03X188950000Y-109450000I0J400000D01*
G01*
X188950000Y-109350000D02*
G75*
G03X188550000Y-108950000I-400000J0D01*
G01*
X189450000Y-108850000D02*
G75*
G03X189450000Y-108850000I-100000J0D01*
G01*
X188550000Y-108150000D02*
X188550000Y-118350000D01*
X188550000Y-118350000D02*
X192950000Y-118350000D01*
X192950000Y-118350000D02*
X192950000Y-108150000D01*
X192950000Y-108150000D02*
X188550000Y-108150000D01*
X218170000Y-92710000D02*
X218170000Y-97790000D01*
X218170000Y-97790000D02*
X228330000Y-97790000D01*
X228330000Y-97790000D02*
X228330000Y-92710000D01*
X228330000Y-92710000D02*
X218170000Y-92710000D01*
X218170000Y-93980000D02*
X219440000Y-93980000D01*
X219440000Y-93980000D02*
X219440000Y-96520000D01*
X219440000Y-96520000D02*
X218170000Y-96520000D01*
X191418780Y-97689860D02*
X191779460Y-99160520D01*
X191779460Y-99160520D02*
X192058860Y-98098800D01*
X192058860Y-98098800D02*
X192368740Y-99170680D01*
X192368740Y-99170680D02*
X192709100Y-97720340D01*
X189998920Y-98380740D02*
X190788860Y-98370580D01*
X190788860Y-98370580D02*
X190799020Y-98380740D01*
X190799020Y-98380740D02*
X190799020Y-98370580D01*
X190839660Y-97659380D02*
X190839660Y-99201160D01*
X189950660Y-97649220D02*
X189950660Y-99218940D01*
X189950660Y-99218940D02*
X189960820Y-99208780D01*
X189399480Y-97750820D02*
X189048960Y-97669540D01*
X189048960Y-97669540D02*
X188728920Y-97659380D01*
X188728920Y-97659380D02*
X188490160Y-97860040D01*
X188490160Y-97860040D02*
X188459680Y-98129280D01*
X188459680Y-98129280D02*
X188700980Y-98370580D01*
X188700980Y-98370580D02*
X189089600Y-98500120D01*
X189089600Y-98500120D02*
X189269940Y-98660140D01*
X189269940Y-98660140D02*
X189310580Y-98959860D01*
X189310580Y-98959860D02*
X189079440Y-99180840D01*
X189079440Y-99180840D02*
X188759400Y-99208780D01*
X188759400Y-99208780D02*
X188408880Y-99099560D01*
X187370020Y-97649220D02*
X187121100Y-97669540D01*
X187121100Y-97669540D02*
X186879800Y-97910840D01*
X186879800Y-97910840D02*
X186790900Y-98401060D01*
X186790900Y-98401060D02*
X186818840Y-98749040D01*
X186818840Y-98749040D02*
X187019500Y-99069080D01*
X187019500Y-99069080D02*
X187270960Y-99191000D01*
X187270960Y-99191000D02*
X187580840Y-99119880D01*
X187580840Y-99119880D02*
X187799280Y-98939540D01*
X187799280Y-98939540D02*
X187870400Y-98479800D01*
X187870400Y-98479800D02*
X187819600Y-98070860D01*
X187819600Y-98070860D02*
X187710380Y-97788920D01*
X187710380Y-97788920D02*
X187349700Y-97659380D01*
X187969460Y-95929640D02*
X187710380Y-96490980D01*
X187710380Y-96490980D02*
X188248860Y-97009140D01*
X188248860Y-97009140D02*
X188769560Y-96739900D01*
X188769560Y-96739900D02*
X189048960Y-96899920D01*
X190489140Y-96879600D02*
X190819340Y-96689100D01*
X190819340Y-96689100D02*
X191258760Y-97019300D01*
X191258760Y-97019300D02*
X191731200Y-96529080D01*
X191731200Y-96529080D02*
X191449260Y-96049020D01*
X191449260Y-96049020D02*
X191639760Y-95579120D01*
X191639760Y-95579120D02*
X192249360Y-95391160D01*
X192249360Y-95391160D02*
X192249360Y-94710440D01*
X192249360Y-94710440D02*
X191690560Y-94570740D01*
X191690560Y-94570740D02*
X191489900Y-93999240D01*
X191489900Y-93999240D02*
X191759140Y-93529340D01*
X191759140Y-93529340D02*
X191289240Y-93018800D01*
X191289240Y-93018800D02*
X190771080Y-93280420D01*
X190771080Y-93280420D02*
X190301180Y-93079760D01*
X190301180Y-93079760D02*
X190131000Y-92538740D01*
X190131000Y-92538740D02*
X189440120Y-92520960D01*
X189440120Y-92520960D02*
X189229300Y-93069600D01*
X189229300Y-93069600D02*
X188810200Y-93239780D01*
X188810200Y-93239780D02*
X188259020Y-92970540D01*
X188259020Y-92970540D02*
X187740860Y-93498860D01*
X187740860Y-93498860D02*
X187989780Y-94039880D01*
X187989780Y-94039880D02*
X187819600Y-94519940D01*
X187819600Y-94519940D02*
X187270960Y-94619000D01*
X187270960Y-94619000D02*
X187260800Y-95320040D01*
X187260800Y-95320040D02*
X187819600Y-95520700D01*
X187819600Y-95520700D02*
X187959300Y-95919480D01*
X190100520Y-95899160D02*
X190400240Y-95749300D01*
X190400240Y-95749300D02*
X190600900Y-95551180D01*
X190600900Y-95551180D02*
X190750760Y-95149860D01*
X190750760Y-95149860D02*
X190750760Y-94751080D01*
X190750760Y-94751080D02*
X190600900Y-94400560D01*
X190600900Y-94400560D02*
X190148780Y-94050040D01*
X190148780Y-94050040D02*
X189699200Y-93999240D01*
X189699200Y-93999240D02*
X189300420Y-94100840D01*
X189300420Y-94100840D02*
X188899100Y-94448820D01*
X188899100Y-94448820D02*
X188749240Y-94900940D01*
X188749240Y-94900940D02*
X188800040Y-95398780D01*
X188800040Y-95398780D02*
X189048960Y-95701040D01*
X189048960Y-95701040D02*
X189399480Y-95899160D01*
X189399480Y-95899160D02*
X189048960Y-96899920D01*
X190100520Y-95899160D02*
X190499300Y-96899920D01*
X214464286Y-121452381D02*
X214464286Y-122166667D01*
X214416666Y-122309524D01*
X214321428Y-122404762D01*
X214178571Y-122452381D01*
X214083333Y-122452381D01*
X215464286Y-122452381D02*
X214892857Y-122452381D01*
X215178571Y-122452381D02*
X215178571Y-121452381D01*
X215083333Y-121595238D01*
X214988095Y-121690476D01*
X214892857Y-121738095D01*
X216083333Y-121452381D02*
X216178572Y-121452381D01*
X216273810Y-121500000D01*
X216321429Y-121547619D01*
X216369048Y-121642857D01*
X216416667Y-121833333D01*
X216416667Y-122071429D01*
X216369048Y-122261905D01*
X216321429Y-122357143D01*
X216273810Y-122404762D01*
X216178572Y-122452381D01*
X216083333Y-122452381D01*
X215988095Y-122404762D01*
X215940476Y-122357143D01*
X215892857Y-122261905D01*
X215845238Y-122071429D01*
X215845238Y-121833333D01*
X215892857Y-121642857D01*
X215940476Y-121547619D01*
X215988095Y-121500000D01*
X216083333Y-121452381D01*
X217273810Y-121785714D02*
X217273810Y-122452381D01*
X217035714Y-121404762D02*
X216797619Y-122119048D01*
X217416667Y-122119048D01*
X215262286Y-78602381D02*
X215262286Y-79316667D01*
X215214666Y-79459524D01*
X215119428Y-79554762D01*
X214976571Y-79602381D01*
X214881333Y-79602381D01*
X216262286Y-79602381D02*
X215690857Y-79602381D01*
X215976571Y-79602381D02*
X215976571Y-78602381D01*
X215881333Y-78745238D01*
X215786095Y-78840476D01*
X215690857Y-78888095D01*
X216881333Y-78602381D02*
X216976572Y-78602381D01*
X217071810Y-78650000D01*
X217119429Y-78697619D01*
X217167048Y-78792857D01*
X217214667Y-78983333D01*
X217214667Y-79221429D01*
X217167048Y-79411905D01*
X217119429Y-79507143D01*
X217071810Y-79554762D01*
X216976572Y-79602381D01*
X216881333Y-79602381D01*
X216786095Y-79554762D01*
X216738476Y-79507143D01*
X216690857Y-79411905D01*
X216643238Y-79221429D01*
X216643238Y-78983333D01*
X216690857Y-78792857D01*
X216738476Y-78697619D01*
X216786095Y-78650000D01*
X216881333Y-78602381D01*
X218119429Y-78602381D02*
X217643238Y-78602381D01*
X217595619Y-79078571D01*
X217643238Y-79030952D01*
X217738476Y-78983333D01*
X217976572Y-78983333D01*
X218071810Y-79030952D01*
X218119429Y-79078571D01*
X218167048Y-79173810D01*
X218167048Y-79411905D01*
X218119429Y-79507143D01*
X218071810Y-79554762D01*
X217976572Y-79602381D01*
X217738476Y-79602381D01*
X217643238Y-79554762D01*
X217595619Y-79507143D01*
X196330593Y-89917143D02*
X196282974Y-89964762D01*
X196140117Y-90012381D01*
X196044879Y-90012381D01*
X195902021Y-89964762D01*
X195806783Y-89869524D01*
X195759164Y-89774286D01*
X195711545Y-89583810D01*
X195711545Y-89440952D01*
X195759164Y-89250476D01*
X195806783Y-89155238D01*
X195902021Y-89060000D01*
X196044879Y-89012381D01*
X196140117Y-89012381D01*
X196282974Y-89060000D01*
X196330593Y-89107619D01*
X197282974Y-90012381D02*
X196711545Y-90012381D01*
X196997259Y-90012381D02*
X196997259Y-89012381D01*
X196902021Y-89155238D01*
X196806783Y-89250476D01*
X196711545Y-89298095D01*
X197902021Y-89012381D02*
X197997260Y-89012381D01*
X198092498Y-89060000D01*
X198140117Y-89107619D01*
X198187736Y-89202857D01*
X198235355Y-89393333D01*
X198235355Y-89631429D01*
X198187736Y-89821905D01*
X198140117Y-89917143D01*
X198092498Y-89964762D01*
X197997260Y-90012381D01*
X197902021Y-90012381D01*
X197806783Y-89964762D01*
X197759164Y-89917143D01*
X197711545Y-89821905D01*
X197663926Y-89631429D01*
X197663926Y-89393333D01*
X197711545Y-89202857D01*
X197759164Y-89107619D01*
X197806783Y-89060000D01*
X197902021Y-89012381D01*
X199187736Y-90012381D02*
X198616307Y-90012381D01*
X198902021Y-90012381D02*
X198902021Y-89012381D01*
X198806783Y-89155238D01*
X198711545Y-89250476D01*
X198616307Y-89298095D01*
X184630953Y-103852381D02*
X184297619Y-103376190D01*
X184059524Y-103852381D02*
X184059524Y-102852381D01*
X184440477Y-102852381D01*
X184535715Y-102900000D01*
X184583334Y-102947619D01*
X184630953Y-103042857D01*
X184630953Y-103185714D01*
X184583334Y-103280952D01*
X184535715Y-103328571D01*
X184440477Y-103376190D01*
X184059524Y-103376190D01*
X185583334Y-103852381D02*
X185011905Y-103852381D01*
X185297619Y-103852381D02*
X185297619Y-102852381D01*
X185202381Y-102995238D01*
X185107143Y-103090476D01*
X185011905Y-103138095D01*
X186202381Y-102852381D02*
X186297620Y-102852381D01*
X186392858Y-102900000D01*
X186440477Y-102947619D01*
X186488096Y-103042857D01*
X186535715Y-103233333D01*
X186535715Y-103471429D01*
X186488096Y-103661905D01*
X186440477Y-103757143D01*
X186392858Y-103804762D01*
X186297620Y-103852381D01*
X186202381Y-103852381D01*
X186107143Y-103804762D01*
X186059524Y-103757143D01*
X186011905Y-103661905D01*
X185964286Y-103471429D01*
X185964286Y-103233333D01*
X186011905Y-103042857D01*
X186059524Y-102947619D01*
X186107143Y-102900000D01*
X186202381Y-102852381D01*
X187392858Y-103185714D02*
X187392858Y-103852381D01*
X187154762Y-102804762D02*
X186916667Y-103519048D01*
X187535715Y-103519048D01*
X183702381Y-111869047D02*
X183226190Y-112202381D01*
X183702381Y-112440476D02*
X182702381Y-112440476D01*
X182702381Y-112059523D01*
X182750000Y-111964285D01*
X182797619Y-111916666D01*
X182892857Y-111869047D01*
X183035714Y-111869047D01*
X183130952Y-111916666D01*
X183178571Y-111964285D01*
X183226190Y-112059523D01*
X183226190Y-112440476D01*
X183702381Y-110916666D02*
X183702381Y-111488095D01*
X183702381Y-111202381D02*
X182702381Y-111202381D01*
X182845238Y-111297619D01*
X182940476Y-111392857D01*
X182988095Y-111488095D01*
X182702381Y-110297619D02*
X182702381Y-110202380D01*
X182750000Y-110107142D01*
X182797619Y-110059523D01*
X182892857Y-110011904D01*
X183083333Y-109964285D01*
X183321429Y-109964285D01*
X183511905Y-110011904D01*
X183607143Y-110059523D01*
X183654762Y-110107142D01*
X183702381Y-110202380D01*
X183702381Y-110297619D01*
X183654762Y-110392857D01*
X183607143Y-110440476D01*
X183511905Y-110488095D01*
X183321429Y-110535714D01*
X183083333Y-110535714D01*
X182892857Y-110488095D01*
X182797619Y-110440476D01*
X182750000Y-110392857D01*
X182702381Y-110297619D01*
X182702381Y-109059523D02*
X182702381Y-109535714D01*
X183178571Y-109583333D01*
X183130952Y-109535714D01*
X183083333Y-109440476D01*
X183083333Y-109202380D01*
X183130952Y-109107142D01*
X183178571Y-109059523D01*
X183273810Y-109011904D01*
X183511905Y-109011904D01*
X183607143Y-109059523D01*
X183654762Y-109107142D01*
X183702381Y-109202380D01*
X183702381Y-109440476D01*
X183654762Y-109535714D01*
X183607143Y-109583333D01*
X183702381Y-117119047D02*
X183226190Y-117452381D01*
X183702381Y-117690476D02*
X182702381Y-117690476D01*
X182702381Y-117309523D01*
X182750000Y-117214285D01*
X182797619Y-117166666D01*
X182892857Y-117119047D01*
X183035714Y-117119047D01*
X183130952Y-117166666D01*
X183178571Y-117214285D01*
X183226190Y-117309523D01*
X183226190Y-117690476D01*
X183702381Y-116166666D02*
X183702381Y-116738095D01*
X183702381Y-116452381D02*
X182702381Y-116452381D01*
X182845238Y-116547619D01*
X182940476Y-116642857D01*
X182988095Y-116738095D01*
X182702381Y-115547619D02*
X182702381Y-115452380D01*
X182750000Y-115357142D01*
X182797619Y-115309523D01*
X182892857Y-115261904D01*
X183083333Y-115214285D01*
X183321429Y-115214285D01*
X183511905Y-115261904D01*
X183607143Y-115309523D01*
X183654762Y-115357142D01*
X183702381Y-115452380D01*
X183702381Y-115547619D01*
X183654762Y-115642857D01*
X183607143Y-115690476D01*
X183511905Y-115738095D01*
X183321429Y-115785714D01*
X183083333Y-115785714D01*
X182892857Y-115738095D01*
X182797619Y-115690476D01*
X182750000Y-115642857D01*
X182702381Y-115547619D01*
X182702381Y-114357142D02*
X182702381Y-114547619D01*
X182750000Y-114642857D01*
X182797619Y-114690476D01*
X182940476Y-114785714D01*
X183130952Y-114833333D01*
X183511905Y-114833333D01*
X183607143Y-114785714D01*
X183654762Y-114738095D01*
X183702381Y-114642857D01*
X183702381Y-114452380D01*
X183654762Y-114357142D01*
X183607143Y-114309523D01*
X183511905Y-114261904D01*
X183273810Y-114261904D01*
X183178571Y-114309523D01*
X183130952Y-114357142D01*
X183083333Y-114452380D01*
X183083333Y-114642857D01*
X183130952Y-114738095D01*
X183178571Y-114785714D01*
X183273810Y-114833333D01*
X183630953Y-121952381D02*
X183297619Y-121476190D01*
X183059524Y-121952381D02*
X183059524Y-120952381D01*
X183440477Y-120952381D01*
X183535715Y-121000000D01*
X183583334Y-121047619D01*
X183630953Y-121142857D01*
X183630953Y-121285714D01*
X183583334Y-121380952D01*
X183535715Y-121428571D01*
X183440477Y-121476190D01*
X183059524Y-121476190D01*
X184583334Y-121952381D02*
X184011905Y-121952381D01*
X184297619Y-121952381D02*
X184297619Y-120952381D01*
X184202381Y-121095238D01*
X184107143Y-121190476D01*
X184011905Y-121238095D01*
X185202381Y-120952381D02*
X185297620Y-120952381D01*
X185392858Y-121000000D01*
X185440477Y-121047619D01*
X185488096Y-121142857D01*
X185535715Y-121333333D01*
X185535715Y-121571429D01*
X185488096Y-121761905D01*
X185440477Y-121857143D01*
X185392858Y-121904762D01*
X185297620Y-121952381D01*
X185202381Y-121952381D01*
X185107143Y-121904762D01*
X185059524Y-121857143D01*
X185011905Y-121761905D01*
X184964286Y-121571429D01*
X184964286Y-121333333D01*
X185011905Y-121142857D01*
X185059524Y-121047619D01*
X185107143Y-121000000D01*
X185202381Y-120952381D01*
X185869048Y-120952381D02*
X186535715Y-120952381D01*
X186107143Y-121952381D01*
X226452381Y-120690476D02*
X225452381Y-120690476D01*
X225452381Y-120309523D01*
X225500000Y-120214285D01*
X225547619Y-120166666D01*
X225642857Y-120119047D01*
X225785714Y-120119047D01*
X225880952Y-120166666D01*
X225928571Y-120214285D01*
X225976190Y-120309523D01*
X225976190Y-120690476D01*
X226452381Y-119166666D02*
X226452381Y-119738095D01*
X226452381Y-119452381D02*
X225452381Y-119452381D01*
X225595238Y-119547619D01*
X225690476Y-119642857D01*
X225738095Y-119738095D01*
X225452381Y-118547619D02*
X225452381Y-118452380D01*
X225500000Y-118357142D01*
X225547619Y-118309523D01*
X225642857Y-118261904D01*
X225833333Y-118214285D01*
X226071429Y-118214285D01*
X226261905Y-118261904D01*
X226357143Y-118309523D01*
X226404762Y-118357142D01*
X226452381Y-118452380D01*
X226452381Y-118547619D01*
X226404762Y-118642857D01*
X226357143Y-118690476D01*
X226261905Y-118738095D01*
X226071429Y-118785714D01*
X225833333Y-118785714D01*
X225642857Y-118738095D01*
X225547619Y-118690476D01*
X225500000Y-118642857D01*
X225452381Y-118547619D01*
X225547619Y-117833333D02*
X225500000Y-117785714D01*
X225452381Y-117690476D01*
X225452381Y-117452380D01*
X225500000Y-117357142D01*
X225547619Y-117309523D01*
X225642857Y-117261904D01*
X225738095Y-117261904D01*
X225880952Y-117309523D01*
X226452381Y-117880952D01*
X226452381Y-117261904D01*
X214952381Y-99297619D02*
X214857143Y-99250000D01*
X214761905Y-99154762D01*
X214619048Y-99011905D01*
X214523809Y-98964286D01*
X214428571Y-98964286D01*
X214476190Y-99202381D02*
X214380952Y-99154762D01*
X214285714Y-99059524D01*
X214238095Y-98869048D01*
X214238095Y-98535714D01*
X214285714Y-98345238D01*
X214380952Y-98250000D01*
X214476190Y-98202381D01*
X214666667Y-98202381D01*
X214761905Y-98250000D01*
X214857143Y-98345238D01*
X214904762Y-98535714D01*
X214904762Y-98869048D01*
X214857143Y-99059524D01*
X214761905Y-99154762D01*
X214666667Y-99202381D01*
X214476190Y-99202381D01*
X215857143Y-99202381D02*
X215285714Y-99202381D01*
X215571428Y-99202381D02*
X215571428Y-98202381D01*
X215476190Y-98345238D01*
X215380952Y-98440476D01*
X215285714Y-98488095D01*
X216476190Y-98202381D02*
X216571429Y-98202381D01*
X216666667Y-98250000D01*
X216714286Y-98297619D01*
X216761905Y-98392857D01*
X216809524Y-98583333D01*
X216809524Y-98821429D01*
X216761905Y-99011905D01*
X216714286Y-99107143D01*
X216666667Y-99154762D01*
X216571429Y-99202381D01*
X216476190Y-99202381D01*
X216380952Y-99154762D01*
X216333333Y-99107143D01*
X216285714Y-99011905D01*
X216238095Y-98821429D01*
X216238095Y-98583333D01*
X216285714Y-98392857D01*
X216333333Y-98297619D01*
X216380952Y-98250000D01*
X216476190Y-98202381D01*
X217190476Y-98297619D02*
X217238095Y-98250000D01*
X217333333Y-98202381D01*
X217571429Y-98202381D01*
X217666667Y-98250000D01*
X217714286Y-98297619D01*
X217761905Y-98392857D01*
X217761905Y-98488095D01*
X217714286Y-98630952D01*
X217142857Y-99202381D01*
X217761905Y-99202381D01*
X213452381Y-107869047D02*
X212976190Y-108202381D01*
X213452381Y-108440476D02*
X212452381Y-108440476D01*
X212452381Y-108059523D01*
X212500000Y-107964285D01*
X212547619Y-107916666D01*
X212642857Y-107869047D01*
X212785714Y-107869047D01*
X212880952Y-107916666D01*
X212928571Y-107964285D01*
X212976190Y-108059523D01*
X212976190Y-108440476D01*
X213452381Y-106916666D02*
X213452381Y-107488095D01*
X213452381Y-107202381D02*
X212452381Y-107202381D01*
X212595238Y-107297619D01*
X212690476Y-107392857D01*
X212738095Y-107488095D01*
X212452381Y-106297619D02*
X212452381Y-106202380D01*
X212500000Y-106107142D01*
X212547619Y-106059523D01*
X212642857Y-106011904D01*
X212833333Y-105964285D01*
X213071429Y-105964285D01*
X213261905Y-106011904D01*
X213357143Y-106059523D01*
X213404762Y-106107142D01*
X213452381Y-106202380D01*
X213452381Y-106297619D01*
X213404762Y-106392857D01*
X213357143Y-106440476D01*
X213261905Y-106488095D01*
X213071429Y-106535714D01*
X212833333Y-106535714D01*
X212642857Y-106488095D01*
X212547619Y-106440476D01*
X212500000Y-106392857D01*
X212452381Y-106297619D01*
X213452381Y-105488095D02*
X213452381Y-105297619D01*
X213404762Y-105202380D01*
X213357143Y-105154761D01*
X213214286Y-105059523D01*
X213023810Y-105011904D01*
X212642857Y-105011904D01*
X212547619Y-105059523D01*
X212500000Y-105107142D01*
X212452381Y-105202380D01*
X212452381Y-105392857D01*
X212500000Y-105488095D01*
X212547619Y-105535714D01*
X212642857Y-105583333D01*
X212880952Y-105583333D01*
X212976190Y-105535714D01*
X213023810Y-105488095D01*
X213071429Y-105392857D01*
X213071429Y-105202380D01*
X213023810Y-105107142D01*
X212976190Y-105059523D01*
X212880952Y-105011904D01*
X210952381Y-93369047D02*
X210476190Y-93702381D01*
X210952381Y-93940476D02*
X209952381Y-93940476D01*
X209952381Y-93559523D01*
X210000000Y-93464285D01*
X210047619Y-93416666D01*
X210142857Y-93369047D01*
X210285714Y-93369047D01*
X210380952Y-93416666D01*
X210428571Y-93464285D01*
X210476190Y-93559523D01*
X210476190Y-93940476D01*
X210952381Y-92416666D02*
X210952381Y-92988095D01*
X210952381Y-92702381D02*
X209952381Y-92702381D01*
X210095238Y-92797619D01*
X210190476Y-92892857D01*
X210238095Y-92988095D01*
X210952381Y-91464285D02*
X210952381Y-92035714D01*
X210952381Y-91750000D02*
X209952381Y-91750000D01*
X210095238Y-91845238D01*
X210190476Y-91940476D01*
X210238095Y-92035714D01*
X209952381Y-90845238D02*
X209952381Y-90749999D01*
X210000000Y-90654761D01*
X210047619Y-90607142D01*
X210142857Y-90559523D01*
X210333333Y-90511904D01*
X210571429Y-90511904D01*
X210761905Y-90559523D01*
X210857143Y-90607142D01*
X210904762Y-90654761D01*
X210952381Y-90749999D01*
X210952381Y-90845238D01*
X210904762Y-90940476D01*
X210857143Y-90988095D01*
X210761905Y-91035714D01*
X210571429Y-91083333D01*
X210333333Y-91083333D01*
X210142857Y-91035714D01*
X210047619Y-90988095D01*
X210000000Y-90940476D01*
X209952381Y-90845238D01*
X218880953Y-105452381D02*
X218547619Y-104976190D01*
X218309524Y-105452381D02*
X218309524Y-104452381D01*
X218690477Y-104452381D01*
X218785715Y-104500000D01*
X218833334Y-104547619D01*
X218880953Y-104642857D01*
X218880953Y-104785714D01*
X218833334Y-104880952D01*
X218785715Y-104928571D01*
X218690477Y-104976190D01*
X218309524Y-104976190D01*
X219833334Y-105452381D02*
X219261905Y-105452381D01*
X219547619Y-105452381D02*
X219547619Y-104452381D01*
X219452381Y-104595238D01*
X219357143Y-104690476D01*
X219261905Y-104738095D01*
X220785715Y-105452381D02*
X220214286Y-105452381D01*
X220500000Y-105452381D02*
X220500000Y-104452381D01*
X220404762Y-104595238D01*
X220309524Y-104690476D01*
X220214286Y-104738095D01*
X221738096Y-105452381D02*
X221166667Y-105452381D01*
X221452381Y-105452381D02*
X221452381Y-104452381D01*
X221357143Y-104595238D01*
X221261905Y-104690476D01*
X221166667Y-104738095D01*
X214880953Y-100452381D02*
X214547619Y-99976190D01*
X214309524Y-100452381D02*
X214309524Y-99452381D01*
X214690477Y-99452381D01*
X214785715Y-99500000D01*
X214833334Y-99547619D01*
X214880953Y-99642857D01*
X214880953Y-99785714D01*
X214833334Y-99880952D01*
X214785715Y-99928571D01*
X214690477Y-99976190D01*
X214309524Y-99976190D01*
X215833334Y-100452381D02*
X215261905Y-100452381D01*
X215547619Y-100452381D02*
X215547619Y-99452381D01*
X215452381Y-99595238D01*
X215357143Y-99690476D01*
X215261905Y-99738095D01*
X216785715Y-100452381D02*
X216214286Y-100452381D01*
X216500000Y-100452381D02*
X216500000Y-99452381D01*
X216404762Y-99595238D01*
X216309524Y-99690476D01*
X216214286Y-99738095D01*
X217166667Y-99547619D02*
X217214286Y-99500000D01*
X217309524Y-99452381D01*
X217547620Y-99452381D01*
X217642858Y-99500000D01*
X217690477Y-99547619D01*
X217738096Y-99642857D01*
X217738096Y-99738095D01*
X217690477Y-99880952D01*
X217119048Y-100452381D01*
X217738096Y-100452381D01*
X224880953Y-101352381D02*
X224547619Y-100876190D01*
X224309524Y-101352381D02*
X224309524Y-100352381D01*
X224690477Y-100352381D01*
X224785715Y-100400000D01*
X224833334Y-100447619D01*
X224880953Y-100542857D01*
X224880953Y-100685714D01*
X224833334Y-100780952D01*
X224785715Y-100828571D01*
X224690477Y-100876190D01*
X224309524Y-100876190D01*
X225833334Y-101352381D02*
X225261905Y-101352381D01*
X225547619Y-101352381D02*
X225547619Y-100352381D01*
X225452381Y-100495238D01*
X225357143Y-100590476D01*
X225261905Y-100638095D01*
X226785715Y-101352381D02*
X226214286Y-101352381D01*
X226500000Y-101352381D02*
X226500000Y-100352381D01*
X226404762Y-100495238D01*
X226309524Y-100590476D01*
X226214286Y-100638095D01*
X227119048Y-100352381D02*
X227738096Y-100352381D01*
X227404762Y-100733333D01*
X227547620Y-100733333D01*
X227642858Y-100780952D01*
X227690477Y-100828571D01*
X227738096Y-100923810D01*
X227738096Y-101161905D01*
X227690477Y-101257143D01*
X227642858Y-101304762D01*
X227547620Y-101352381D01*
X227261905Y-101352381D01*
X227166667Y-101304762D01*
X227119048Y-101257143D01*
X215202381Y-97119047D02*
X214726190Y-97452381D01*
X215202381Y-97690476D02*
X214202381Y-97690476D01*
X214202381Y-97309523D01*
X214250000Y-97214285D01*
X214297619Y-97166666D01*
X214392857Y-97119047D01*
X214535714Y-97119047D01*
X214630952Y-97166666D01*
X214678571Y-97214285D01*
X214726190Y-97309523D01*
X214726190Y-97690476D01*
X215202381Y-96166666D02*
X215202381Y-96738095D01*
X215202381Y-96452381D02*
X214202381Y-96452381D01*
X214345238Y-96547619D01*
X214440476Y-96642857D01*
X214488095Y-96738095D01*
X215202381Y-95214285D02*
X215202381Y-95785714D01*
X215202381Y-95500000D02*
X214202381Y-95500000D01*
X214345238Y-95595238D01*
X214440476Y-95690476D01*
X214488095Y-95785714D01*
X214535714Y-94357142D02*
X215202381Y-94357142D01*
X214154762Y-94595238D02*
X214869048Y-94833333D01*
X214869048Y-94214285D01*
X189035714Y-118802381D02*
X189035714Y-119611905D01*
X189083333Y-119707143D01*
X189130952Y-119754762D01*
X189226190Y-119802381D01*
X189416667Y-119802381D01*
X189511905Y-119754762D01*
X189559524Y-119707143D01*
X189607143Y-119611905D01*
X189607143Y-118802381D01*
X190607143Y-119802381D02*
X190035714Y-119802381D01*
X190321428Y-119802381D02*
X190321428Y-118802381D01*
X190226190Y-118945238D01*
X190130952Y-119040476D01*
X190035714Y-119088095D01*
X191226190Y-118802381D02*
X191321429Y-118802381D01*
X191416667Y-118850000D01*
X191464286Y-118897619D01*
X191511905Y-118992857D01*
X191559524Y-119183333D01*
X191559524Y-119421429D01*
X191511905Y-119611905D01*
X191464286Y-119707143D01*
X191416667Y-119754762D01*
X191321429Y-119802381D01*
X191226190Y-119802381D01*
X191130952Y-119754762D01*
X191083333Y-119707143D01*
X191035714Y-119611905D01*
X190988095Y-119421429D01*
X190988095Y-119183333D01*
X191035714Y-118992857D01*
X191083333Y-118897619D01*
X191130952Y-118850000D01*
X191226190Y-118802381D01*
X192511905Y-119802381D02*
X191940476Y-119802381D01*
X192226190Y-119802381D02*
X192226190Y-118802381D01*
X192130952Y-118945238D01*
X192035714Y-119040476D01*
X191940476Y-119088095D01*
X221916714Y-93559381D02*
X221916714Y-94368905D01*
X221964333Y-94464143D01*
X222011952Y-94511762D01*
X222107190Y-94559381D01*
X222297667Y-94559381D01*
X222392905Y-94511762D01*
X222440524Y-94464143D01*
X222488143Y-94368905D01*
X222488143Y-93559381D01*
X223488143Y-94559381D02*
X222916714Y-94559381D01*
X223202428Y-94559381D02*
X223202428Y-93559381D01*
X223107190Y-93702238D01*
X223011952Y-93797476D01*
X222916714Y-93845095D01*
X224107190Y-93559381D02*
X224202429Y-93559381D01*
X224297667Y-93607000D01*
X224345286Y-93654619D01*
X224392905Y-93749857D01*
X224440524Y-93940333D01*
X224440524Y-94178429D01*
X224392905Y-94368905D01*
X224345286Y-94464143D01*
X224297667Y-94511762D01*
X224202429Y-94559381D01*
X224107190Y-94559381D01*
X224011952Y-94511762D01*
X223964333Y-94464143D01*
X223916714Y-94368905D01*
X223869095Y-94178429D01*
X223869095Y-93940333D01*
X223916714Y-93749857D01*
X223964333Y-93654619D01*
X224011952Y-93607000D01*
X224107190Y-93559381D01*
X225297667Y-93559381D02*
X225107190Y-93559381D01*
X225011952Y-93607000D01*
X224964333Y-93654619D01*
X224869095Y-93797476D01*
X224821476Y-93987952D01*
X224821476Y-94368905D01*
X224869095Y-94464143D01*
X224916714Y-94511762D01*
X225011952Y-94559381D01*
X225202429Y-94559381D01*
X225297667Y-94511762D01*
X225345286Y-94464143D01*
X225392905Y-94368905D01*
X225392905Y-94130810D01*
X225345286Y-94035571D01*
X225297667Y-93987952D01*
X225202429Y-93940333D01*
X225011952Y-93940333D01*
X224916714Y-93987952D01*
X224869095Y-94035571D01*
X224821476Y-94130810D01*
X198469524Y-124452381D02*
X198469524Y-123452381D01*
X198850477Y-123452381D01*
X198945715Y-123500000D01*
X198993334Y-123547619D01*
X199040953Y-123642857D01*
X199040953Y-123785714D01*
X198993334Y-123880952D01*
X198945715Y-123928571D01*
X198850477Y-123976190D01*
X198469524Y-123976190D01*
X199993334Y-124452381D02*
X199421905Y-124452381D01*
X199707619Y-124452381D02*
X199707619Y-123452381D01*
X199612381Y-123595238D01*
X199517143Y-123690476D01*
X199421905Y-123738095D01*
X200612381Y-123452381D02*
X200707620Y-123452381D01*
X200802858Y-123500000D01*
X200850477Y-123547619D01*
X200898096Y-123642857D01*
X200945715Y-123833333D01*
X200945715Y-124071429D01*
X200898096Y-124261905D01*
X200850477Y-124357143D01*
X200802858Y-124404762D01*
X200707620Y-124452381D01*
X200612381Y-124452381D01*
X200517143Y-124404762D01*
X200469524Y-124357143D01*
X200421905Y-124261905D01*
X200374286Y-124071429D01*
X200374286Y-123833333D01*
X200421905Y-123642857D01*
X200469524Y-123547619D01*
X200517143Y-123500000D01*
X200612381Y-123452381D01*
X201279048Y-123452381D02*
X201898096Y-123452381D01*
X201564762Y-123833333D01*
X201707620Y-123833333D01*
X201802858Y-123880952D01*
X201850477Y-123928571D01*
X201898096Y-124023810D01*
X201898096Y-124261905D01*
X201850477Y-124357143D01*
X201802858Y-124404762D01*
X201707620Y-124452381D01*
X201421905Y-124452381D01*
X201326667Y-124404762D01*
X201279048Y-124357143D01*
X197785714Y-76202381D02*
X197785714Y-77011905D01*
X197833333Y-77107143D01*
X197880952Y-77154762D01*
X197976190Y-77202381D01*
X198166667Y-77202381D01*
X198261905Y-77154762D01*
X198309524Y-77107143D01*
X198357143Y-77011905D01*
X198357143Y-76202381D01*
X199357143Y-77202381D02*
X198785714Y-77202381D01*
X199071428Y-77202381D02*
X199071428Y-76202381D01*
X198976190Y-76345238D01*
X198880952Y-76440476D01*
X198785714Y-76488095D01*
X200309524Y-77202381D02*
X199738095Y-77202381D01*
X200023809Y-77202381D02*
X200023809Y-76202381D01*
X199928571Y-76345238D01*
X199833333Y-76440476D01*
X199738095Y-76488095D01*
X200928571Y-76202381D02*
X201023810Y-76202381D01*
X201119048Y-76250000D01*
X201166667Y-76297619D01*
X201214286Y-76392857D01*
X201261905Y-76583333D01*
X201261905Y-76821429D01*
X201214286Y-77011905D01*
X201166667Y-77107143D01*
X201119048Y-77154762D01*
X201023810Y-77202381D01*
X200928571Y-77202381D01*
X200833333Y-77154762D01*
X200785714Y-77107143D01*
X200738095Y-77011905D01*
X200690476Y-76821429D01*
X200690476Y-76583333D01*
X200738095Y-76392857D01*
X200785714Y-76297619D01*
X200833333Y-76250000D01*
X200928571Y-76202381D01*
M02*
