G04 #@! TF.FileFunction,Soldermask,Top*
%FSLAX46Y46*%
G04 Gerber Fmt 4.6, Leading zero omitted, Abs format (unit mm)*
G04 Created by KiCad (PCBNEW (2015-08-02 BZR 6038)-product) date 2015 November 19, Thursday 21:17:08*
%MOMM*%
G01*
G04 APERTURE LIST*
%ADD10C,0.100000*%
%ADD11C,1.924000*%
%ADD12C,3.650000*%
%ADD13R,3.399740X2.000200*%
%ADD14C,3.399740*%
%ADD15R,1.900000X1.700000*%
%ADD16R,1.700000X1.900000*%
%ADD17R,2.432000X2.127200*%
%ADD18O,2.432000X2.127200*%
%ADD19R,1.200100X1.200100*%
%ADD20R,1.700000X1.300000*%
%ADD21R,1.924000X2.432000*%
%ADD22R,2.000000X2.000000*%
%ADD23C,1.400000*%
G04 APERTURE END LIST*
D10*
D11*
X214988000Y-113110000D03*
X212448000Y-113110000D03*
X217528000Y-113110000D03*
X213718000Y-115650000D03*
X216258000Y-115650000D03*
X218798000Y-115650000D03*
D12*
X220830000Y-122000000D03*
X210670000Y-122000000D03*
D11*
X217310000Y-88040000D03*
X219850000Y-88040000D03*
X214770000Y-88040000D03*
X218580000Y-85500000D03*
X216040000Y-85500000D03*
X213500000Y-85500000D03*
D12*
X211468000Y-79150000D03*
X221628000Y-79150000D03*
D13*
X195250000Y-85750000D03*
X199649280Y-85750000D03*
D14*
X194500000Y-78750000D03*
X189501280Y-78750000D03*
D15*
X184400000Y-105500000D03*
X187100000Y-105500000D03*
D16*
X184750000Y-112100000D03*
X184750000Y-109400000D03*
X184750000Y-117350000D03*
X184750000Y-114650000D03*
D15*
X184650000Y-119750000D03*
X187350000Y-119750000D03*
D11*
X196870000Y-120820000D03*
X196870000Y-118280000D03*
X196870000Y-115740000D03*
X196870000Y-113200000D03*
X196870000Y-110660000D03*
X196870000Y-108120000D03*
X196870000Y-105580000D03*
X196870000Y-103040000D03*
X196870000Y-100500000D03*
X196870000Y-97960000D03*
X196870000Y-95420000D03*
X196870000Y-92880000D03*
X181630000Y-92880000D03*
X181630000Y-95420000D03*
X181630000Y-97960000D03*
X181630000Y-100500000D03*
X181630000Y-103040000D03*
X181630000Y-105580000D03*
X181630000Y-108120000D03*
X181630000Y-110660000D03*
X181630000Y-113200000D03*
X181630000Y-115740000D03*
X181630000Y-118280000D03*
X181630000Y-120820000D03*
D10*
G36*
X180300000Y-86000000D02*
X183700000Y-86000000D01*
X182700000Y-88400000D01*
X181300000Y-88400000D01*
X180300000Y-86000000D01*
X180300000Y-86000000D01*
G37*
G36*
X184500000Y-86200000D02*
X187900000Y-86200000D01*
X186900000Y-88600000D01*
X185500000Y-88600000D01*
X184500000Y-86200000D01*
X184500000Y-86200000D01*
G37*
G36*
X191400000Y-85300000D02*
X191400000Y-88700000D01*
X189000000Y-87700000D01*
X189000000Y-86300000D01*
X191400000Y-85300000D01*
X191400000Y-85300000D01*
G37*
D17*
X226000000Y-114500000D03*
D18*
X226000000Y-111960000D03*
X226000000Y-109420000D03*
X226000000Y-106880000D03*
D19*
X215050000Y-102000760D03*
X216950000Y-102000760D03*
X216000000Y-100001780D03*
D16*
X216500000Y-108100000D03*
X216500000Y-105400000D03*
X214000000Y-93600000D03*
X214000000Y-90900000D03*
D15*
X222100000Y-103000000D03*
X219400000Y-103000000D03*
X213900000Y-96500000D03*
X216600000Y-96500000D03*
X224650000Y-103000000D03*
X227350000Y-103000000D03*
D16*
X216750000Y-90900000D03*
X216750000Y-93600000D03*
D20*
X187575000Y-108805000D03*
X187575000Y-110075000D03*
X187575000Y-111345000D03*
X187575000Y-112615000D03*
X187575000Y-113885000D03*
X187575000Y-115155000D03*
X187575000Y-116425000D03*
X187575000Y-117695000D03*
X193925000Y-117695000D03*
X193925000Y-116425000D03*
X193925000Y-115155000D03*
X193925000Y-113885000D03*
X193925000Y-112615000D03*
X193925000Y-111345000D03*
X193925000Y-110075000D03*
X193925000Y-108805000D03*
D21*
X219440000Y-99060000D03*
X221980000Y-99060000D03*
X224520000Y-99060000D03*
X227060000Y-99060000D03*
X227060000Y-91440000D03*
X224520000Y-91440000D03*
X221980000Y-91440000D03*
X219440000Y-91440000D03*
D22*
X190000000Y-124000000D03*
X192540000Y-124000000D03*
X195080000Y-124000000D03*
X187460000Y-124000000D03*
X184920000Y-124000000D03*
D23*
X206000000Y-122800000D03*
X206000000Y-121200000D03*
X206000000Y-119600000D03*
X206000000Y-82200000D03*
X206000000Y-80600000D03*
X206000000Y-79000000D03*
M02*
