G04 #@! TF.FileFunction,Copper,L2,Bot,Signal*
%FSLAX46Y46*%
G04 Gerber Fmt 4.6, Leading zero omitted, Abs format (unit mm)*
G04 Created by KiCad (PCBNEW (2015-08-02 BZR 6038)-product) date 2015 November 19, Thursday 21:17:08*
%MOMM*%
G01*
G04 APERTURE LIST*
%ADD10C,0.100000*%
%ADD11C,0.150000*%
%ADD12C,1.524000*%
%ADD13C,2.999740*%
%ADD14R,0.800100X0.800100*%
%ADD15R,1.300000X1.500000*%
%ADD16R,1.500000X1.300000*%
%ADD17R,2.032000X1.524000*%
%ADD18R,0.800100X1.800860*%
%ADD19R,2.032000X1.727200*%
%ADD20O,2.032000X1.727200*%
%ADD21R,0.800000X1.600000*%
%ADD22R,3.250000X2.150000*%
%ADD23R,1.000000X2.150000*%
%ADD24C,0.600000*%
%ADD25C,0.250000*%
%ADD26C,0.254000*%
G04 APERTURE END LIST*
D10*
D11*
X182000000Y-85700000D02*
X182000000Y-86350000D01*
X186200000Y-85900000D02*
X186200000Y-86550000D01*
X191700000Y-87000000D02*
X191050000Y-87000000D01*
D12*
X214988000Y-113110000D03*
X212448000Y-113110000D03*
X217528000Y-113110000D03*
X213718000Y-115650000D03*
X216258000Y-115650000D03*
X218798000Y-115650000D03*
X217310000Y-88040000D03*
X219850000Y-88040000D03*
X214770000Y-88040000D03*
X218580000Y-85500000D03*
X216040000Y-85500000D03*
X213500000Y-85500000D03*
D13*
X194500000Y-78750000D03*
X189501280Y-78750000D03*
D14*
X188700000Y-120250760D03*
X186800000Y-120250760D03*
X187750000Y-118251780D03*
D15*
X187000000Y-115850000D03*
X187000000Y-113150000D03*
X199850000Y-96750000D03*
X199850000Y-99450000D03*
X192750000Y-107500000D03*
X192750000Y-110200000D03*
D16*
X195450000Y-88000000D03*
X198150000Y-88000000D03*
D17*
X193610000Y-91390000D03*
X193610000Y-93930000D03*
X193610000Y-96470000D03*
X193610000Y-99010000D03*
X185990000Y-99010000D03*
X185990000Y-96470000D03*
X185990000Y-93930000D03*
X185990000Y-91390000D03*
D12*
X196870000Y-120820000D03*
X196870000Y-118280000D03*
X196870000Y-115740000D03*
X196870000Y-113200000D03*
X196870000Y-110660000D03*
X196870000Y-108120000D03*
X196870000Y-105580000D03*
X196870000Y-103040000D03*
X196870000Y-100500000D03*
X196870000Y-97960000D03*
X196870000Y-95420000D03*
X196870000Y-92880000D03*
X181630000Y-92880000D03*
X181630000Y-95420000D03*
X181630000Y-97960000D03*
X181630000Y-100500000D03*
X181630000Y-103040000D03*
X181630000Y-105580000D03*
X181630000Y-108120000D03*
X181630000Y-110660000D03*
X181630000Y-113200000D03*
X181630000Y-115740000D03*
X181630000Y-118280000D03*
X181630000Y-120820000D03*
D18*
X184800000Y-105498860D03*
X186700000Y-105498860D03*
X185750000Y-108501140D03*
X188750000Y-105500000D03*
X190650000Y-105500000D03*
X189700000Y-108502280D03*
D10*
G36*
X198301540Y-81850650D02*
X198301540Y-84149350D01*
X194699820Y-83549910D01*
X194699820Y-82450090D01*
X198301540Y-81850650D01*
X198301540Y-81850650D01*
G37*
G36*
X188898460Y-84149350D02*
X188898460Y-81850650D01*
X192500180Y-82450090D01*
X192500180Y-83549910D01*
X188898460Y-84149350D01*
X188898460Y-84149350D01*
G37*
G36*
X201850650Y-94098460D02*
X204149350Y-94098460D01*
X203549910Y-97700180D01*
X202450090Y-97700180D01*
X201850650Y-94098460D01*
X201850650Y-94098460D01*
G37*
G36*
X204149350Y-103501540D02*
X201850650Y-103501540D01*
X202450090Y-99899820D01*
X203549910Y-99899820D01*
X204149350Y-103501540D01*
X204149350Y-103501540D01*
G37*
G36*
X180500000Y-86200000D02*
X183500000Y-86200000D01*
X182500000Y-88200000D01*
X181500000Y-88200000D01*
X180500000Y-86200000D01*
X180500000Y-86200000D01*
G37*
G36*
X183500000Y-85800000D02*
X180500000Y-85800000D01*
X181500000Y-83800000D01*
X182500000Y-83800000D01*
X183500000Y-85800000D01*
X183500000Y-85800000D01*
G37*
G36*
X184700000Y-86400000D02*
X187700000Y-86400000D01*
X186700000Y-88400000D01*
X185700000Y-88400000D01*
X184700000Y-86400000D01*
X184700000Y-86400000D01*
G37*
G36*
X187700000Y-86000000D02*
X184700000Y-86000000D01*
X185700000Y-84000000D01*
X186700000Y-84000000D01*
X187700000Y-86000000D01*
X187700000Y-86000000D01*
G37*
G36*
X191200000Y-85500000D02*
X191200000Y-88500000D01*
X189200000Y-87500000D01*
X189200000Y-86500000D01*
X191200000Y-85500000D01*
X191200000Y-85500000D01*
G37*
G36*
X191600000Y-88500000D02*
X191600000Y-85500000D01*
X193600000Y-86500000D01*
X193600000Y-87500000D01*
X191600000Y-88500000D01*
X191600000Y-88500000D01*
G37*
D19*
X226000000Y-114500000D03*
D20*
X226000000Y-111960000D03*
X226000000Y-109420000D03*
X226000000Y-106880000D03*
D21*
X190480000Y-112950000D03*
X193020000Y-112950000D03*
X193020000Y-120050000D03*
X190480000Y-120050000D03*
D22*
X201900000Y-90900000D03*
D23*
X199600000Y-85100000D03*
X201900000Y-85100000D03*
X204200000Y-85100000D03*
D24*
X193850000Y-83350000D03*
X199250000Y-91750000D03*
X199500000Y-92500000D03*
X200500000Y-92750000D03*
X201500000Y-92750000D03*
X202500000Y-92750000D03*
X204250000Y-90750000D03*
X204250000Y-89750000D03*
X204000000Y-89000000D03*
X203000000Y-89000000D03*
X202000000Y-89000000D03*
X201000000Y-89000000D03*
X200000000Y-89000000D03*
X199250000Y-89750000D03*
X199250000Y-90750000D03*
X204800000Y-87000000D03*
X190500000Y-110500000D03*
X214000000Y-95250000D03*
X219250000Y-93500000D03*
X186000000Y-89800000D03*
X208700000Y-82100000D03*
X195200000Y-96400000D03*
X201400000Y-101600000D03*
X195400000Y-94800000D03*
X198150000Y-96800000D03*
X191549588Y-90016500D03*
X187800000Y-93850000D03*
D25*
X199600000Y-85100000D02*
X198600680Y-85100000D01*
X198600680Y-85100000D02*
X196500680Y-83000000D01*
X193850000Y-83350000D02*
X194200000Y-83000000D01*
X194200000Y-83000000D02*
X196500680Y-83000000D01*
X218580000Y-85500000D02*
X216130000Y-83050000D01*
X216130000Y-83050000D02*
X204800000Y-83050000D01*
X204800000Y-83050000D02*
X204200000Y-83650000D01*
X204200000Y-83650000D02*
X204200000Y-85100000D01*
X218580000Y-85500000D02*
X217492999Y-86587001D01*
X200500000Y-92750000D02*
X199750000Y-92750000D01*
X199750000Y-92750000D02*
X199500000Y-92500000D01*
X202500000Y-92750000D02*
X201500000Y-92750000D01*
X204250000Y-89750000D02*
X204250000Y-90750000D01*
X203000000Y-89000000D02*
X204000000Y-89000000D01*
X201000000Y-89000000D02*
X202000000Y-89000000D01*
X199250000Y-89750000D02*
X200000000Y-89000000D01*
X201900000Y-90900000D02*
X199400000Y-90900000D01*
X199400000Y-90900000D02*
X199250000Y-90750000D01*
X201900000Y-90900000D02*
X201900000Y-89900000D01*
X201900000Y-89900000D02*
X204800000Y-87000000D01*
X226000000Y-106880000D02*
X226152400Y-106880000D01*
X185990000Y-99010000D02*
X185990000Y-100022000D01*
X185990000Y-100022000D02*
X186468000Y-100500000D01*
X186468000Y-100500000D02*
X196870000Y-100500000D01*
X204800000Y-87000000D02*
X204800000Y-85700000D01*
X204800000Y-85700000D02*
X204200000Y-85100000D01*
X196870000Y-100500000D02*
X196870000Y-97960000D01*
X181630000Y-95420000D02*
X180542999Y-94332999D01*
X180542999Y-94332999D02*
X180542999Y-91957001D01*
X180542999Y-91957001D02*
X185100000Y-87400000D01*
X185100000Y-87400000D02*
X186200000Y-87400000D01*
X185990000Y-99010000D02*
X185220000Y-99010000D01*
X185220000Y-99010000D02*
X181630000Y-95420000D01*
X190480000Y-112950000D02*
X190480000Y-110520000D01*
X190480000Y-110520000D02*
X190500000Y-110500000D01*
X217492999Y-86587001D02*
X216222999Y-86587001D01*
X216222999Y-86587001D02*
X214770000Y-88040000D01*
X190699320Y-83000000D02*
X192950810Y-83000000D01*
X179750000Y-84250000D02*
X179750000Y-86050000D01*
X192950810Y-83000000D02*
X196324871Y-79625939D01*
X196324871Y-79625939D02*
X196324871Y-77874061D01*
X196324871Y-77874061D02*
X195375939Y-76925129D01*
X179750000Y-86050000D02*
X180900000Y-87200000D01*
X195375939Y-76925129D02*
X188074871Y-76925129D01*
X184750000Y-82750000D02*
X181250000Y-82750000D01*
X188074871Y-76925129D02*
X187000000Y-78000000D01*
X187000000Y-78000000D02*
X187000000Y-80500000D01*
X187000000Y-80500000D02*
X184750000Y-82750000D01*
X181250000Y-82750000D02*
X179750000Y-84250000D01*
X180900000Y-87200000D02*
X182000000Y-87200000D01*
X218250000Y-94500000D02*
X218336166Y-94413834D01*
X218336166Y-94413834D02*
X219250000Y-93500000D01*
X214000000Y-95250000D02*
X214299999Y-94950001D01*
X217799999Y-94950001D02*
X218336166Y-94413834D01*
X214299999Y-94950001D02*
X217799999Y-94950001D01*
X218250000Y-106902400D02*
X218250000Y-94500000D01*
X191000000Y-90750000D02*
X190200000Y-89950000D01*
X190200000Y-89950000D02*
X190200000Y-87000000D01*
X191700000Y-90750000D02*
X191000000Y-90750000D01*
X195450000Y-88000000D02*
X194450000Y-88000000D01*
X194450000Y-88000000D02*
X191700000Y-90750000D01*
X205050000Y-81400000D02*
X205050000Y-78650000D01*
X203400000Y-83050000D02*
X205050000Y-81400000D01*
X203375000Y-83050000D02*
X203400000Y-83050000D01*
X201900000Y-85100000D02*
X201900000Y-84525000D01*
X201900000Y-84525000D02*
X203375000Y-83050000D01*
X195450000Y-88000000D02*
X195550000Y-88000000D01*
X195550000Y-88000000D02*
X197049999Y-86500001D01*
X197049999Y-86500001D02*
X201074999Y-86500001D01*
X201074999Y-86500001D02*
X201900000Y-85675000D01*
X201900000Y-85675000D02*
X201900000Y-85100000D01*
X185990000Y-91390000D02*
X185990000Y-89810000D01*
X185990000Y-89810000D02*
X186000000Y-89800000D01*
X218250000Y-106902400D02*
X225847600Y-114500000D01*
X225847600Y-114500000D02*
X226000000Y-114500000D01*
X205550000Y-78150000D02*
X206900000Y-78150000D01*
X205050000Y-78650000D02*
X205550000Y-78150000D01*
X207700000Y-80050000D02*
X207700000Y-78950000D01*
X206900000Y-78150000D02*
X207700000Y-78950000D01*
X208700000Y-81050000D02*
X207700000Y-80050000D01*
X208700000Y-82100000D02*
X208700000Y-81050000D01*
X218798000Y-115650000D02*
X217710999Y-116737001D01*
X211360999Y-87639001D02*
X213500000Y-85500000D01*
X217710999Y-116737001D02*
X213196239Y-116737001D01*
X213196239Y-116737001D02*
X211360999Y-114901761D01*
X211360999Y-114901761D02*
X211360999Y-87639001D01*
X190650000Y-105500000D02*
X191300050Y-105500000D01*
X191300050Y-105500000D02*
X192673049Y-104127001D01*
X192673049Y-104127001D02*
X198872999Y-104127001D01*
X198872999Y-104127001D02*
X201400000Y-101600000D01*
X195200000Y-96400000D02*
X193680000Y-96400000D01*
X193680000Y-96400000D02*
X193610000Y-96470000D01*
X203000000Y-101700680D02*
X201500680Y-101700680D01*
X201500680Y-101700680D02*
X201400000Y-101600000D01*
X186200000Y-85000000D02*
X188573450Y-82626550D01*
X188573450Y-82626550D02*
X188573450Y-81716024D01*
X193610000Y-96470000D02*
X193356000Y-96470000D01*
X193356000Y-96470000D02*
X188573450Y-91687450D01*
X188573450Y-91687450D02*
X188573450Y-81716024D01*
X188573450Y-81716024D02*
X189714603Y-80574871D01*
X189714603Y-80574871D02*
X192675129Y-80574871D01*
X192675129Y-80574871D02*
X194500000Y-78750000D01*
X212448000Y-113110000D02*
X212448000Y-95442000D01*
X212448000Y-95442000D02*
X219850000Y-88040000D01*
X199850000Y-99450000D02*
X199850000Y-100450000D01*
X199850000Y-100450000D02*
X198347001Y-101952999D01*
X189095431Y-101952999D02*
X186700000Y-104348430D01*
X198347001Y-101952999D02*
X189095431Y-101952999D01*
X179950000Y-91550000D02*
X179950000Y-100428762D01*
X179950000Y-100428762D02*
X181474237Y-101952999D01*
X181474237Y-101952999D02*
X183654519Y-101952999D01*
X183654519Y-101952999D02*
X186700000Y-104998480D01*
X186700000Y-104998480D02*
X186700000Y-105498860D01*
X184100000Y-87400000D02*
X179950000Y-91550000D01*
X184100000Y-85800000D02*
X184100000Y-87400000D01*
X182000000Y-84800000D02*
X183100000Y-84800000D01*
X183100000Y-84800000D02*
X184100000Y-85800000D01*
X186700000Y-105498860D02*
X186700000Y-104348430D01*
X189501280Y-78750000D02*
X183451280Y-84800000D01*
X183451280Y-84800000D02*
X182000000Y-84800000D01*
X190480000Y-120050000D02*
X188900760Y-120050000D01*
X188900760Y-120050000D02*
X188700000Y-120250760D01*
X186800000Y-120250760D02*
X186800000Y-116050000D01*
X186800000Y-116050000D02*
X187000000Y-115850000D01*
X188750000Y-105500000D02*
X188750000Y-106650430D01*
X188750000Y-106650430D02*
X188676139Y-106724291D01*
X188676139Y-106724291D02*
X185525051Y-106724291D01*
X185525051Y-106724291D02*
X184800000Y-105999240D01*
X184800000Y-105999240D02*
X184800000Y-105498860D01*
X187750000Y-118251780D02*
X187750000Y-117601730D01*
X187750000Y-117601730D02*
X189754999Y-115596731D01*
X189754999Y-115596731D02*
X189754999Y-110332763D01*
X189754999Y-110332763D02*
X190425051Y-109662711D01*
X189900430Y-106650430D02*
X189400050Y-106650430D01*
X190425051Y-109662711D02*
X190425051Y-107175051D01*
X190425051Y-107175051D02*
X189900430Y-106650430D01*
X189400050Y-106650430D02*
X188750000Y-106000380D01*
X188750000Y-106000380D02*
X188750000Y-105500000D01*
X193020000Y-120050000D02*
X193020000Y-119650000D01*
X193020000Y-119650000D02*
X191621780Y-118251780D01*
X191621780Y-118251780D02*
X187750000Y-118251780D01*
X189700000Y-108502280D02*
X187598810Y-108502280D01*
X187598810Y-108502280D02*
X187000000Y-109101090D01*
X187000000Y-113150000D02*
X187000000Y-109101090D01*
X187000000Y-109101090D02*
X186400050Y-108501140D01*
X186400050Y-108501140D02*
X185750000Y-108501140D01*
X195400000Y-94800000D02*
X194480000Y-94800000D01*
X194480000Y-94800000D02*
X193610000Y-93930000D01*
X199800000Y-96900000D02*
X198250000Y-96900000D01*
X198250000Y-96900000D02*
X198150000Y-96800000D01*
X203000000Y-95899320D02*
X200700680Y-95899320D01*
X200700680Y-95899320D02*
X199800000Y-96800000D01*
X199800000Y-96800000D02*
X199800000Y-96900000D01*
X193020000Y-112950000D02*
X193020000Y-110470000D01*
X193020000Y-110470000D02*
X192750000Y-110200000D01*
X197391761Y-96507001D02*
X198065601Y-95833161D01*
X204700000Y-107910000D02*
X204700000Y-94189474D01*
X204283976Y-93773450D02*
X200125312Y-93773450D01*
X198065601Y-95833161D02*
X198150000Y-95748762D01*
X204700000Y-94189474D02*
X204283976Y-93773450D01*
X200125312Y-93773450D02*
X198065601Y-95833161D01*
X196870000Y-115740000D02*
X204700000Y-107910000D01*
X196018001Y-96507001D02*
X197391761Y-96507001D01*
X194968001Y-97557001D02*
X196018001Y-96507001D01*
X188343001Y-97557001D02*
X194968001Y-97557001D01*
X187256000Y-96470000D02*
X188343001Y-97557001D01*
X185990000Y-96470000D02*
X187256000Y-96470000D01*
X198150000Y-95748762D02*
X198150000Y-88000000D01*
X192600000Y-88966088D02*
X191549588Y-90016500D01*
X192600000Y-87000000D02*
X192600000Y-88966088D01*
X185990000Y-93930000D02*
X187720000Y-93930000D01*
X187720000Y-93930000D02*
X187800000Y-93850000D01*
X216258000Y-115650000D02*
X214988000Y-114380000D01*
X214988000Y-114380000D02*
X214988000Y-113110000D01*
X196870000Y-105580000D02*
X194570000Y-105580000D01*
X194570000Y-105580000D02*
X192750000Y-107400000D01*
X192750000Y-107400000D02*
X192750000Y-107500000D01*
D26*
G36*
X209553182Y-77868141D02*
X209208393Y-78698486D01*
X209207609Y-79597570D01*
X209550948Y-80428515D01*
X210186141Y-81064818D01*
X211016486Y-81409607D01*
X211915570Y-81410391D01*
X212746515Y-81067052D01*
X213382818Y-80431859D01*
X213727607Y-79601514D01*
X213728391Y-78702430D01*
X213385052Y-77871485D01*
X213140993Y-77627000D01*
X219954744Y-77627000D01*
X219713182Y-77868141D01*
X219368393Y-78698486D01*
X219367609Y-79597570D01*
X219710948Y-80428515D01*
X220346141Y-81064818D01*
X221176486Y-81409607D01*
X222075570Y-81410391D01*
X222906515Y-81067052D01*
X223542818Y-80431859D01*
X223887607Y-79601514D01*
X223888391Y-78702430D01*
X223545052Y-77871485D01*
X223300993Y-77627000D01*
X224947394Y-77627000D01*
X227373000Y-80052606D01*
X227373000Y-85442203D01*
X227311020Y-85292200D01*
X226710959Y-84691091D01*
X225926541Y-84365372D01*
X225077185Y-84364630D01*
X224292200Y-84688980D01*
X223691091Y-85289041D01*
X223365372Y-86073459D01*
X223364630Y-86922815D01*
X223688980Y-87707800D01*
X224289041Y-88308909D01*
X225073459Y-88634628D01*
X225922815Y-88635370D01*
X226707800Y-88311020D01*
X227308909Y-87710959D01*
X227373000Y-87556611D01*
X227373000Y-106024191D01*
X227350732Y-105977964D01*
X226914320Y-105588046D01*
X226361913Y-105394816D01*
X226127000Y-105539076D01*
X226127000Y-106753000D01*
X226147000Y-106753000D01*
X226147000Y-107007000D01*
X226127000Y-107007000D01*
X226127000Y-107027000D01*
X225873000Y-107027000D01*
X225873000Y-107007000D01*
X224513783Y-107007000D01*
X224392642Y-107239026D01*
X224395291Y-107254791D01*
X224649268Y-107782036D01*
X225065069Y-108153539D01*
X224755585Y-108360330D01*
X224430729Y-108846511D01*
X224316655Y-109420000D01*
X224430729Y-109993489D01*
X224755585Y-110479670D01*
X225070366Y-110690000D01*
X224755585Y-110900330D01*
X224430729Y-111386511D01*
X224327563Y-111905161D01*
X219010000Y-106587598D01*
X219010000Y-106520974D01*
X224392642Y-106520974D01*
X224513783Y-106753000D01*
X225873000Y-106753000D01*
X225873000Y-105539076D01*
X225638087Y-105394816D01*
X225085680Y-105588046D01*
X224649268Y-105977964D01*
X224395291Y-106505209D01*
X224392642Y-106520974D01*
X219010000Y-106520974D01*
X219010000Y-94814802D01*
X219389680Y-94435122D01*
X219435167Y-94435162D01*
X219778943Y-94293117D01*
X220042192Y-94030327D01*
X220184838Y-93686799D01*
X220185162Y-93314833D01*
X220043117Y-92971057D01*
X219780327Y-92707808D01*
X219436799Y-92565162D01*
X219064833Y-92564838D01*
X218721057Y-92706883D01*
X218457808Y-92969673D01*
X218315162Y-93313201D01*
X218315121Y-93360077D01*
X217485197Y-94190001D01*
X214774801Y-94190001D01*
X219540619Y-89424183D01*
X219570900Y-89436757D01*
X220126661Y-89437242D01*
X220640303Y-89225010D01*
X221033629Y-88832370D01*
X221246757Y-88319100D01*
X221247242Y-87763339D01*
X221035010Y-87249697D01*
X220642370Y-86856371D01*
X220129100Y-86643243D01*
X219573339Y-86642758D01*
X219059697Y-86854990D01*
X218666371Y-87247630D01*
X218580051Y-87455512D01*
X218495010Y-87249697D01*
X218102370Y-86856371D01*
X217589100Y-86643243D01*
X217033339Y-86642758D01*
X216519697Y-86854990D01*
X216126371Y-87247630D01*
X216046605Y-87439727D01*
X215992397Y-87308857D01*
X215750213Y-87239392D01*
X214949605Y-88040000D01*
X215750213Y-88840608D01*
X215992397Y-88771143D01*
X216042509Y-88630682D01*
X216124990Y-88830303D01*
X216517630Y-89223629D01*
X217030900Y-89436757D01*
X217378138Y-89437060D01*
X212120999Y-94694199D01*
X212120999Y-89020213D01*
X213969392Y-89020213D01*
X214038857Y-89262397D01*
X214562302Y-89449144D01*
X215117368Y-89421362D01*
X215501143Y-89262397D01*
X215570608Y-89020213D01*
X214770000Y-88219605D01*
X213969392Y-89020213D01*
X212120999Y-89020213D01*
X212120999Y-87953803D01*
X212242500Y-87832302D01*
X213360856Y-87832302D01*
X213388638Y-88387368D01*
X213547603Y-88771143D01*
X213789787Y-88840608D01*
X214590395Y-88040000D01*
X213789787Y-87239392D01*
X213547603Y-87308857D01*
X213360856Y-87832302D01*
X212242500Y-87832302D01*
X213015015Y-87059787D01*
X213969392Y-87059787D01*
X214770000Y-87860395D01*
X215570608Y-87059787D01*
X215501143Y-86817603D01*
X214977698Y-86630856D01*
X214422632Y-86658638D01*
X214038857Y-86817603D01*
X213969392Y-87059787D01*
X213015015Y-87059787D01*
X213190619Y-86884183D01*
X213220900Y-86896757D01*
X213776661Y-86897242D01*
X214290303Y-86685010D01*
X214683629Y-86292370D01*
X214769949Y-86084488D01*
X214854990Y-86290303D01*
X215247630Y-86683629D01*
X215760900Y-86896757D01*
X216316661Y-86897242D01*
X216830303Y-86685010D01*
X217035457Y-86480213D01*
X217779392Y-86480213D01*
X217848857Y-86722397D01*
X218372302Y-86909144D01*
X218927368Y-86881362D01*
X219311143Y-86722397D01*
X219380608Y-86480213D01*
X218580000Y-85679605D01*
X217779392Y-86480213D01*
X217035457Y-86480213D01*
X217223629Y-86292370D01*
X217303395Y-86100273D01*
X217357603Y-86231143D01*
X217599787Y-86300608D01*
X218400395Y-85500000D01*
X218759605Y-85500000D01*
X219560213Y-86300608D01*
X219802397Y-86231143D01*
X219989144Y-85707698D01*
X219961362Y-85152632D01*
X219802397Y-84768857D01*
X219560213Y-84699392D01*
X218759605Y-85500000D01*
X218400395Y-85500000D01*
X217599787Y-84699392D01*
X217357603Y-84768857D01*
X217307491Y-84909318D01*
X217225010Y-84709697D01*
X217035432Y-84519787D01*
X217779392Y-84519787D01*
X218580000Y-85320395D01*
X219380608Y-84519787D01*
X219311143Y-84277603D01*
X218787698Y-84090856D01*
X218232632Y-84118638D01*
X217848857Y-84277603D01*
X217779392Y-84519787D01*
X217035432Y-84519787D01*
X216832370Y-84316371D01*
X216319100Y-84103243D01*
X215763339Y-84102758D01*
X215249697Y-84314990D01*
X214856371Y-84707630D01*
X214770051Y-84915512D01*
X214685010Y-84709697D01*
X214292370Y-84316371D01*
X213779100Y-84103243D01*
X213223339Y-84102758D01*
X212709697Y-84314990D01*
X212316371Y-84707630D01*
X212103243Y-85220900D01*
X212102758Y-85776661D01*
X212116143Y-85809055D01*
X210823598Y-87101600D01*
X210658851Y-87348162D01*
X210600999Y-87639001D01*
X210600999Y-114901761D01*
X210658851Y-115192600D01*
X210823598Y-115439162D01*
X212658838Y-117274402D01*
X212905399Y-117439149D01*
X213196239Y-117497001D01*
X217710999Y-117497001D01*
X218001838Y-117439149D01*
X218248400Y-117274402D01*
X218488619Y-117034183D01*
X218518900Y-117046757D01*
X219074661Y-117047242D01*
X219588303Y-116835010D01*
X219981629Y-116442370D01*
X220194757Y-115929100D01*
X220195242Y-115373339D01*
X219983010Y-114859697D01*
X219590370Y-114466371D01*
X219077100Y-114253243D01*
X218521339Y-114252758D01*
X218007697Y-114464990D01*
X217614371Y-114857630D01*
X217528051Y-115065512D01*
X217443010Y-114859697D01*
X217050370Y-114466371D01*
X216537100Y-114253243D01*
X215981339Y-114252758D01*
X215948945Y-114266143D01*
X215878145Y-114195343D01*
X215983458Y-114090213D01*
X216727392Y-114090213D01*
X216796857Y-114332397D01*
X217320302Y-114519144D01*
X217875368Y-114491362D01*
X218259143Y-114332397D01*
X218328608Y-114090213D01*
X217528000Y-113289605D01*
X216727392Y-114090213D01*
X215983458Y-114090213D01*
X216171629Y-113902370D01*
X216251395Y-113710273D01*
X216305603Y-113841143D01*
X216547787Y-113910608D01*
X217348395Y-113110000D01*
X217707605Y-113110000D01*
X218508213Y-113910608D01*
X218750397Y-113841143D01*
X218937144Y-113317698D01*
X218909362Y-112762632D01*
X218750397Y-112378857D01*
X218508213Y-112309392D01*
X217707605Y-113110000D01*
X217348395Y-113110000D01*
X216547787Y-112309392D01*
X216305603Y-112378857D01*
X216255491Y-112519318D01*
X216173010Y-112319697D01*
X215983432Y-112129787D01*
X216727392Y-112129787D01*
X217528000Y-112930395D01*
X218328608Y-112129787D01*
X218259143Y-111887603D01*
X217735698Y-111700856D01*
X217180632Y-111728638D01*
X216796857Y-111887603D01*
X216727392Y-112129787D01*
X215983432Y-112129787D01*
X215780370Y-111926371D01*
X215267100Y-111713243D01*
X214711339Y-111712758D01*
X214197697Y-111924990D01*
X213804371Y-112317630D01*
X213718051Y-112525512D01*
X213633010Y-112319697D01*
X213240370Y-111926371D01*
X213208000Y-111912930D01*
X213208000Y-95780062D01*
X213469673Y-96042192D01*
X213813201Y-96184838D01*
X214185167Y-96185162D01*
X214528943Y-96043117D01*
X214792192Y-95780327D01*
X214821394Y-95710001D01*
X217490000Y-95710001D01*
X217490000Y-106902400D01*
X217547852Y-107193239D01*
X217712599Y-107439801D01*
X224336560Y-114063762D01*
X224336560Y-115363600D01*
X224380838Y-115598917D01*
X224519910Y-115815041D01*
X224732110Y-115960031D01*
X224984000Y-116011040D01*
X227016000Y-116011040D01*
X227251317Y-115966762D01*
X227373000Y-115888461D01*
X227373000Y-119103852D01*
X226960959Y-118691091D01*
X226176541Y-118365372D01*
X225327185Y-118364630D01*
X224542200Y-118688980D01*
X223941091Y-119289041D01*
X223615372Y-120073459D01*
X223614630Y-120922815D01*
X223938980Y-121707800D01*
X224539041Y-122308909D01*
X225323459Y-122634628D01*
X226172815Y-122635370D01*
X226957800Y-122311020D01*
X227373000Y-121896544D01*
X227373000Y-122447394D01*
X225396619Y-124423775D01*
X223932533Y-124715000D01*
X207667466Y-124715000D01*
X207627000Y-124706951D01*
X207627000Y-122447570D01*
X208409609Y-122447570D01*
X208752948Y-123278515D01*
X209388141Y-123914818D01*
X210218486Y-124259607D01*
X211117570Y-124260391D01*
X211948515Y-123917052D01*
X212584818Y-123281859D01*
X212929607Y-122451514D01*
X212929610Y-122447570D01*
X218569609Y-122447570D01*
X218912948Y-123278515D01*
X219548141Y-123914818D01*
X220378486Y-124259607D01*
X221277570Y-124260391D01*
X222108515Y-123917052D01*
X222744818Y-123281859D01*
X223089607Y-122451514D01*
X223090391Y-121552430D01*
X222747052Y-120721485D01*
X222111859Y-120085182D01*
X221281514Y-119740393D01*
X220382430Y-119739609D01*
X219551485Y-120082948D01*
X218915182Y-120718141D01*
X218570393Y-121548486D01*
X218569609Y-122447570D01*
X212929610Y-122447570D01*
X212930391Y-121552430D01*
X212587052Y-120721485D01*
X211951859Y-120085182D01*
X211121514Y-119740393D01*
X210222430Y-119739609D01*
X209391485Y-120082948D01*
X208755182Y-120718141D01*
X208410393Y-121548486D01*
X208409609Y-122447570D01*
X207627000Y-122447570D01*
X207627000Y-81051802D01*
X207940000Y-81364802D01*
X207940000Y-81537537D01*
X207907808Y-81569673D01*
X207765162Y-81913201D01*
X207764838Y-82285167D01*
X207906883Y-82628943D01*
X208169673Y-82892192D01*
X208513201Y-83034838D01*
X208885167Y-83035162D01*
X209228943Y-82893117D01*
X209492192Y-82630327D01*
X209634838Y-82286799D01*
X209635162Y-81914833D01*
X209493117Y-81571057D01*
X209460000Y-81537882D01*
X209460000Y-81050000D01*
X209402148Y-80759161D01*
X209237401Y-80512599D01*
X208460000Y-79735198D01*
X208460000Y-78950000D01*
X208402148Y-78659161D01*
X208237401Y-78412599D01*
X207627000Y-77802198D01*
X207627000Y-77627000D01*
X209794744Y-77627000D01*
X209553182Y-77868141D01*
X209553182Y-77868141D01*
G37*
X209553182Y-77868141D02*
X209208393Y-78698486D01*
X209207609Y-79597570D01*
X209550948Y-80428515D01*
X210186141Y-81064818D01*
X211016486Y-81409607D01*
X211915570Y-81410391D01*
X212746515Y-81067052D01*
X213382818Y-80431859D01*
X213727607Y-79601514D01*
X213728391Y-78702430D01*
X213385052Y-77871485D01*
X213140993Y-77627000D01*
X219954744Y-77627000D01*
X219713182Y-77868141D01*
X219368393Y-78698486D01*
X219367609Y-79597570D01*
X219710948Y-80428515D01*
X220346141Y-81064818D01*
X221176486Y-81409607D01*
X222075570Y-81410391D01*
X222906515Y-81067052D01*
X223542818Y-80431859D01*
X223887607Y-79601514D01*
X223888391Y-78702430D01*
X223545052Y-77871485D01*
X223300993Y-77627000D01*
X224947394Y-77627000D01*
X227373000Y-80052606D01*
X227373000Y-85442203D01*
X227311020Y-85292200D01*
X226710959Y-84691091D01*
X225926541Y-84365372D01*
X225077185Y-84364630D01*
X224292200Y-84688980D01*
X223691091Y-85289041D01*
X223365372Y-86073459D01*
X223364630Y-86922815D01*
X223688980Y-87707800D01*
X224289041Y-88308909D01*
X225073459Y-88634628D01*
X225922815Y-88635370D01*
X226707800Y-88311020D01*
X227308909Y-87710959D01*
X227373000Y-87556611D01*
X227373000Y-106024191D01*
X227350732Y-105977964D01*
X226914320Y-105588046D01*
X226361913Y-105394816D01*
X226127000Y-105539076D01*
X226127000Y-106753000D01*
X226147000Y-106753000D01*
X226147000Y-107007000D01*
X226127000Y-107007000D01*
X226127000Y-107027000D01*
X225873000Y-107027000D01*
X225873000Y-107007000D01*
X224513783Y-107007000D01*
X224392642Y-107239026D01*
X224395291Y-107254791D01*
X224649268Y-107782036D01*
X225065069Y-108153539D01*
X224755585Y-108360330D01*
X224430729Y-108846511D01*
X224316655Y-109420000D01*
X224430729Y-109993489D01*
X224755585Y-110479670D01*
X225070366Y-110690000D01*
X224755585Y-110900330D01*
X224430729Y-111386511D01*
X224327563Y-111905161D01*
X219010000Y-106587598D01*
X219010000Y-106520974D01*
X224392642Y-106520974D01*
X224513783Y-106753000D01*
X225873000Y-106753000D01*
X225873000Y-105539076D01*
X225638087Y-105394816D01*
X225085680Y-105588046D01*
X224649268Y-105977964D01*
X224395291Y-106505209D01*
X224392642Y-106520974D01*
X219010000Y-106520974D01*
X219010000Y-94814802D01*
X219389680Y-94435122D01*
X219435167Y-94435162D01*
X219778943Y-94293117D01*
X220042192Y-94030327D01*
X220184838Y-93686799D01*
X220185162Y-93314833D01*
X220043117Y-92971057D01*
X219780327Y-92707808D01*
X219436799Y-92565162D01*
X219064833Y-92564838D01*
X218721057Y-92706883D01*
X218457808Y-92969673D01*
X218315162Y-93313201D01*
X218315121Y-93360077D01*
X217485197Y-94190001D01*
X214774801Y-94190001D01*
X219540619Y-89424183D01*
X219570900Y-89436757D01*
X220126661Y-89437242D01*
X220640303Y-89225010D01*
X221033629Y-88832370D01*
X221246757Y-88319100D01*
X221247242Y-87763339D01*
X221035010Y-87249697D01*
X220642370Y-86856371D01*
X220129100Y-86643243D01*
X219573339Y-86642758D01*
X219059697Y-86854990D01*
X218666371Y-87247630D01*
X218580051Y-87455512D01*
X218495010Y-87249697D01*
X218102370Y-86856371D01*
X217589100Y-86643243D01*
X217033339Y-86642758D01*
X216519697Y-86854990D01*
X216126371Y-87247630D01*
X216046605Y-87439727D01*
X215992397Y-87308857D01*
X215750213Y-87239392D01*
X214949605Y-88040000D01*
X215750213Y-88840608D01*
X215992397Y-88771143D01*
X216042509Y-88630682D01*
X216124990Y-88830303D01*
X216517630Y-89223629D01*
X217030900Y-89436757D01*
X217378138Y-89437060D01*
X212120999Y-94694199D01*
X212120999Y-89020213D01*
X213969392Y-89020213D01*
X214038857Y-89262397D01*
X214562302Y-89449144D01*
X215117368Y-89421362D01*
X215501143Y-89262397D01*
X215570608Y-89020213D01*
X214770000Y-88219605D01*
X213969392Y-89020213D01*
X212120999Y-89020213D01*
X212120999Y-87953803D01*
X212242500Y-87832302D01*
X213360856Y-87832302D01*
X213388638Y-88387368D01*
X213547603Y-88771143D01*
X213789787Y-88840608D01*
X214590395Y-88040000D01*
X213789787Y-87239392D01*
X213547603Y-87308857D01*
X213360856Y-87832302D01*
X212242500Y-87832302D01*
X213015015Y-87059787D01*
X213969392Y-87059787D01*
X214770000Y-87860395D01*
X215570608Y-87059787D01*
X215501143Y-86817603D01*
X214977698Y-86630856D01*
X214422632Y-86658638D01*
X214038857Y-86817603D01*
X213969392Y-87059787D01*
X213015015Y-87059787D01*
X213190619Y-86884183D01*
X213220900Y-86896757D01*
X213776661Y-86897242D01*
X214290303Y-86685010D01*
X214683629Y-86292370D01*
X214769949Y-86084488D01*
X214854990Y-86290303D01*
X215247630Y-86683629D01*
X215760900Y-86896757D01*
X216316661Y-86897242D01*
X216830303Y-86685010D01*
X217035457Y-86480213D01*
X217779392Y-86480213D01*
X217848857Y-86722397D01*
X218372302Y-86909144D01*
X218927368Y-86881362D01*
X219311143Y-86722397D01*
X219380608Y-86480213D01*
X218580000Y-85679605D01*
X217779392Y-86480213D01*
X217035457Y-86480213D01*
X217223629Y-86292370D01*
X217303395Y-86100273D01*
X217357603Y-86231143D01*
X217599787Y-86300608D01*
X218400395Y-85500000D01*
X218759605Y-85500000D01*
X219560213Y-86300608D01*
X219802397Y-86231143D01*
X219989144Y-85707698D01*
X219961362Y-85152632D01*
X219802397Y-84768857D01*
X219560213Y-84699392D01*
X218759605Y-85500000D01*
X218400395Y-85500000D01*
X217599787Y-84699392D01*
X217357603Y-84768857D01*
X217307491Y-84909318D01*
X217225010Y-84709697D01*
X217035432Y-84519787D01*
X217779392Y-84519787D01*
X218580000Y-85320395D01*
X219380608Y-84519787D01*
X219311143Y-84277603D01*
X218787698Y-84090856D01*
X218232632Y-84118638D01*
X217848857Y-84277603D01*
X217779392Y-84519787D01*
X217035432Y-84519787D01*
X216832370Y-84316371D01*
X216319100Y-84103243D01*
X215763339Y-84102758D01*
X215249697Y-84314990D01*
X214856371Y-84707630D01*
X214770051Y-84915512D01*
X214685010Y-84709697D01*
X214292370Y-84316371D01*
X213779100Y-84103243D01*
X213223339Y-84102758D01*
X212709697Y-84314990D01*
X212316371Y-84707630D01*
X212103243Y-85220900D01*
X212102758Y-85776661D01*
X212116143Y-85809055D01*
X210823598Y-87101600D01*
X210658851Y-87348162D01*
X210600999Y-87639001D01*
X210600999Y-114901761D01*
X210658851Y-115192600D01*
X210823598Y-115439162D01*
X212658838Y-117274402D01*
X212905399Y-117439149D01*
X213196239Y-117497001D01*
X217710999Y-117497001D01*
X218001838Y-117439149D01*
X218248400Y-117274402D01*
X218488619Y-117034183D01*
X218518900Y-117046757D01*
X219074661Y-117047242D01*
X219588303Y-116835010D01*
X219981629Y-116442370D01*
X220194757Y-115929100D01*
X220195242Y-115373339D01*
X219983010Y-114859697D01*
X219590370Y-114466371D01*
X219077100Y-114253243D01*
X218521339Y-114252758D01*
X218007697Y-114464990D01*
X217614371Y-114857630D01*
X217528051Y-115065512D01*
X217443010Y-114859697D01*
X217050370Y-114466371D01*
X216537100Y-114253243D01*
X215981339Y-114252758D01*
X215948945Y-114266143D01*
X215878145Y-114195343D01*
X215983458Y-114090213D01*
X216727392Y-114090213D01*
X216796857Y-114332397D01*
X217320302Y-114519144D01*
X217875368Y-114491362D01*
X218259143Y-114332397D01*
X218328608Y-114090213D01*
X217528000Y-113289605D01*
X216727392Y-114090213D01*
X215983458Y-114090213D01*
X216171629Y-113902370D01*
X216251395Y-113710273D01*
X216305603Y-113841143D01*
X216547787Y-113910608D01*
X217348395Y-113110000D01*
X217707605Y-113110000D01*
X218508213Y-113910608D01*
X218750397Y-113841143D01*
X218937144Y-113317698D01*
X218909362Y-112762632D01*
X218750397Y-112378857D01*
X218508213Y-112309392D01*
X217707605Y-113110000D01*
X217348395Y-113110000D01*
X216547787Y-112309392D01*
X216305603Y-112378857D01*
X216255491Y-112519318D01*
X216173010Y-112319697D01*
X215983432Y-112129787D01*
X216727392Y-112129787D01*
X217528000Y-112930395D01*
X218328608Y-112129787D01*
X218259143Y-111887603D01*
X217735698Y-111700856D01*
X217180632Y-111728638D01*
X216796857Y-111887603D01*
X216727392Y-112129787D01*
X215983432Y-112129787D01*
X215780370Y-111926371D01*
X215267100Y-111713243D01*
X214711339Y-111712758D01*
X214197697Y-111924990D01*
X213804371Y-112317630D01*
X213718051Y-112525512D01*
X213633010Y-112319697D01*
X213240370Y-111926371D01*
X213208000Y-111912930D01*
X213208000Y-95780062D01*
X213469673Y-96042192D01*
X213813201Y-96184838D01*
X214185167Y-96185162D01*
X214528943Y-96043117D01*
X214792192Y-95780327D01*
X214821394Y-95710001D01*
X217490000Y-95710001D01*
X217490000Y-106902400D01*
X217547852Y-107193239D01*
X217712599Y-107439801D01*
X224336560Y-114063762D01*
X224336560Y-115363600D01*
X224380838Y-115598917D01*
X224519910Y-115815041D01*
X224732110Y-115960031D01*
X224984000Y-116011040D01*
X227016000Y-116011040D01*
X227251317Y-115966762D01*
X227373000Y-115888461D01*
X227373000Y-119103852D01*
X226960959Y-118691091D01*
X226176541Y-118365372D01*
X225327185Y-118364630D01*
X224542200Y-118688980D01*
X223941091Y-119289041D01*
X223615372Y-120073459D01*
X223614630Y-120922815D01*
X223938980Y-121707800D01*
X224539041Y-122308909D01*
X225323459Y-122634628D01*
X226172815Y-122635370D01*
X226957800Y-122311020D01*
X227373000Y-121896544D01*
X227373000Y-122447394D01*
X225396619Y-124423775D01*
X223932533Y-124715000D01*
X207667466Y-124715000D01*
X207627000Y-124706951D01*
X207627000Y-122447570D01*
X208409609Y-122447570D01*
X208752948Y-123278515D01*
X209388141Y-123914818D01*
X210218486Y-124259607D01*
X211117570Y-124260391D01*
X211948515Y-123917052D01*
X212584818Y-123281859D01*
X212929607Y-122451514D01*
X212929610Y-122447570D01*
X218569609Y-122447570D01*
X218912948Y-123278515D01*
X219548141Y-123914818D01*
X220378486Y-124259607D01*
X221277570Y-124260391D01*
X222108515Y-123917052D01*
X222744818Y-123281859D01*
X223089607Y-122451514D01*
X223090391Y-121552430D01*
X222747052Y-120721485D01*
X222111859Y-120085182D01*
X221281514Y-119740393D01*
X220382430Y-119739609D01*
X219551485Y-120082948D01*
X218915182Y-120718141D01*
X218570393Y-121548486D01*
X218569609Y-122447570D01*
X212929610Y-122447570D01*
X212930391Y-121552430D01*
X212587052Y-120721485D01*
X211951859Y-120085182D01*
X211121514Y-119740393D01*
X210222430Y-119739609D01*
X209391485Y-120082948D01*
X208755182Y-120718141D01*
X208410393Y-121548486D01*
X208409609Y-122447570D01*
X207627000Y-122447570D01*
X207627000Y-81051802D01*
X207940000Y-81364802D01*
X207940000Y-81537537D01*
X207907808Y-81569673D01*
X207765162Y-81913201D01*
X207764838Y-82285167D01*
X207906883Y-82628943D01*
X208169673Y-82892192D01*
X208513201Y-83034838D01*
X208885167Y-83035162D01*
X209228943Y-82893117D01*
X209492192Y-82630327D01*
X209634838Y-82286799D01*
X209635162Y-81914833D01*
X209493117Y-81571057D01*
X209460000Y-81537882D01*
X209460000Y-81050000D01*
X209402148Y-80759161D01*
X209237401Y-80512599D01*
X208460000Y-79735198D01*
X208460000Y-78950000D01*
X208402148Y-78659161D01*
X208237401Y-78412599D01*
X207627000Y-77802198D01*
X207627000Y-77627000D01*
X209794744Y-77627000D01*
X209553182Y-77868141D01*
G36*
X213802990Y-113900303D02*
X214195630Y-114293629D01*
X214228000Y-114307070D01*
X214228000Y-114348707D01*
X213925698Y-114240856D01*
X213370632Y-114268638D01*
X212986857Y-114427603D01*
X212917392Y-114669787D01*
X213718000Y-115470395D01*
X213732143Y-115456253D01*
X213911748Y-115635858D01*
X213897605Y-115650000D01*
X213911748Y-115664143D01*
X213732143Y-115843748D01*
X213718000Y-115829605D01*
X213703858Y-115843748D01*
X213524253Y-115664143D01*
X213538395Y-115650000D01*
X212737787Y-114849392D01*
X212495603Y-114918857D01*
X212484373Y-114950333D01*
X212120999Y-114586959D01*
X212120999Y-114486867D01*
X212168900Y-114506757D01*
X212724661Y-114507242D01*
X213238303Y-114295010D01*
X213631629Y-113902370D01*
X213717949Y-113694488D01*
X213802990Y-113900303D01*
X213802990Y-113900303D01*
G37*
X213802990Y-113900303D02*
X214195630Y-114293629D01*
X214228000Y-114307070D01*
X214228000Y-114348707D01*
X213925698Y-114240856D01*
X213370632Y-114268638D01*
X212986857Y-114427603D01*
X212917392Y-114669787D01*
X213718000Y-115470395D01*
X213732143Y-115456253D01*
X213911748Y-115635858D01*
X213897605Y-115650000D01*
X213911748Y-115664143D01*
X213732143Y-115843748D01*
X213718000Y-115829605D01*
X213703858Y-115843748D01*
X213524253Y-115664143D01*
X213538395Y-115650000D01*
X212737787Y-114849392D01*
X212495603Y-114918857D01*
X212484373Y-114950333D01*
X212120999Y-114586959D01*
X212120999Y-114486867D01*
X212168900Y-114506757D01*
X212724661Y-114507242D01*
X213238303Y-114295010D01*
X213631629Y-113902370D01*
X213717949Y-113694488D01*
X213802990Y-113900303D01*
G36*
X204515000Y-93059404D02*
X204283976Y-93013450D01*
X200125312Y-93013450D01*
X199834472Y-93071302D01*
X199587911Y-93236049D01*
X198910000Y-93913960D01*
X198910000Y-89295558D01*
X199135317Y-89253162D01*
X199351441Y-89114090D01*
X199496431Y-88901890D01*
X199547440Y-88650000D01*
X199547440Y-87350000D01*
X199530506Y-87260001D01*
X201074999Y-87260001D01*
X201365838Y-87202149D01*
X201478307Y-87127000D01*
X204515000Y-87127000D01*
X204515000Y-93059404D01*
X204515000Y-93059404D01*
G37*
X204515000Y-93059404D02*
X204283976Y-93013450D01*
X200125312Y-93013450D01*
X199834472Y-93071302D01*
X199587911Y-93236049D01*
X198910000Y-93913960D01*
X198910000Y-89295558D01*
X199135317Y-89253162D01*
X199351441Y-89114090D01*
X199496431Y-88901890D01*
X199547440Y-88650000D01*
X199547440Y-87350000D01*
X199530506Y-87260001D01*
X201074999Y-87260001D01*
X201365838Y-87202149D01*
X201478307Y-87127000D01*
X204515000Y-87127000D01*
X204515000Y-93059404D01*
M02*
