G04 #@! TF.FileFunction,Paste,Bot*
%FSLAX46Y46*%
G04 Gerber Fmt 4.6, Leading zero omitted, Abs format (unit mm)*
G04 Created by KiCad (PCBNEW (2015-08-02 BZR 6038)-product) date 2015 November 19, Thursday 21:17:08*
%MOMM*%
G01*
G04 APERTURE LIST*
%ADD10C,0.100000*%
%ADD11R,0.800100X0.800100*%
%ADD12R,1.300000X1.500000*%
%ADD13R,1.500000X1.300000*%
%ADD14R,2.032000X1.524000*%
%ADD15R,0.800100X1.800860*%
%ADD16R,0.800000X1.600000*%
%ADD17R,3.250000X2.150000*%
%ADD18R,1.000000X2.150000*%
G04 APERTURE END LIST*
D10*
D11*
X188700000Y-120250760D03*
X186800000Y-120250760D03*
X187750000Y-118251780D03*
D12*
X187000000Y-115850000D03*
X187000000Y-113150000D03*
X199850000Y-96750000D03*
X199850000Y-99450000D03*
X192750000Y-107500000D03*
X192750000Y-110200000D03*
D13*
X195450000Y-88000000D03*
X198150000Y-88000000D03*
D14*
X193610000Y-91390000D03*
X193610000Y-93930000D03*
X193610000Y-96470000D03*
X193610000Y-99010000D03*
X185990000Y-99010000D03*
X185990000Y-96470000D03*
X185990000Y-93930000D03*
X185990000Y-91390000D03*
D15*
X184800000Y-105498860D03*
X186700000Y-105498860D03*
X185750000Y-108501140D03*
X188750000Y-105500000D03*
X190650000Y-105500000D03*
X189700000Y-108502280D03*
D10*
G36*
X198301540Y-81850650D02*
X198301540Y-84149350D01*
X194699820Y-83549910D01*
X194699820Y-82450090D01*
X198301540Y-81850650D01*
X198301540Y-81850650D01*
G37*
G36*
X188898460Y-84149350D02*
X188898460Y-81850650D01*
X192500180Y-82450090D01*
X192500180Y-83549910D01*
X188898460Y-84149350D01*
X188898460Y-84149350D01*
G37*
G36*
X201850650Y-94098460D02*
X204149350Y-94098460D01*
X203549910Y-97700180D01*
X202450090Y-97700180D01*
X201850650Y-94098460D01*
X201850650Y-94098460D01*
G37*
G36*
X204149350Y-103501540D02*
X201850650Y-103501540D01*
X202450090Y-99899820D01*
X203549910Y-99899820D01*
X204149350Y-103501540D01*
X204149350Y-103501540D01*
G37*
G36*
X183500000Y-85800000D02*
X180500000Y-85800000D01*
X181500000Y-83800000D01*
X182500000Y-83800000D01*
X183500000Y-85800000D01*
X183500000Y-85800000D01*
G37*
G36*
X187700000Y-86000000D02*
X184700000Y-86000000D01*
X185700000Y-84000000D01*
X186700000Y-84000000D01*
X187700000Y-86000000D01*
X187700000Y-86000000D01*
G37*
G36*
X191600000Y-88500000D02*
X191600000Y-85500000D01*
X193600000Y-86500000D01*
X193600000Y-87500000D01*
X191600000Y-88500000D01*
X191600000Y-88500000D01*
G37*
D16*
X190480000Y-112950000D03*
X193020000Y-112950000D03*
X193020000Y-120050000D03*
X190480000Y-120050000D03*
D17*
X201900000Y-90900000D03*
D18*
X199600000Y-85100000D03*
X201900000Y-85100000D03*
X204200000Y-85100000D03*
M02*
