G04 #@! TF.FileFunction,Paste,Top*
%FSLAX46Y46*%
G04 Gerber Fmt 4.6, Leading zero omitted, Abs format (unit mm)*
G04 Created by KiCad (PCBNEW (2015-08-02 BZR 6038)-product) date 2015 November 19, Thursday 21:17:08*
%MOMM*%
G01*
G04 APERTURE LIST*
%ADD10C,0.100000*%
%ADD11R,2.999740X1.600200*%
%ADD12R,1.500000X1.300000*%
%ADD13R,1.300000X1.500000*%
%ADD14R,0.800100X0.800100*%
%ADD15R,1.300000X0.900000*%
%ADD16R,1.524000X2.032000*%
%ADD17R,1.600000X1.600000*%
G04 APERTURE END LIST*
D10*
D11*
X195250000Y-85750000D03*
X199649280Y-85750000D03*
D12*
X184400000Y-105500000D03*
X187100000Y-105500000D03*
D13*
X184750000Y-112100000D03*
X184750000Y-109400000D03*
X184750000Y-117350000D03*
X184750000Y-114650000D03*
D12*
X184650000Y-119750000D03*
X187350000Y-119750000D03*
D14*
X215050000Y-102000760D03*
X216950000Y-102000760D03*
X216000000Y-100001780D03*
D13*
X216500000Y-108100000D03*
X216500000Y-105400000D03*
X214000000Y-93600000D03*
X214000000Y-90900000D03*
D12*
X222100000Y-103000000D03*
X219400000Y-103000000D03*
X213900000Y-96500000D03*
X216600000Y-96500000D03*
X224650000Y-103000000D03*
X227350000Y-103000000D03*
D13*
X216750000Y-90900000D03*
X216750000Y-93600000D03*
D15*
X187575000Y-108805000D03*
X187575000Y-110075000D03*
X187575000Y-111345000D03*
X187575000Y-112615000D03*
X187575000Y-113885000D03*
X187575000Y-115155000D03*
X187575000Y-116425000D03*
X187575000Y-117695000D03*
X193925000Y-117695000D03*
X193925000Y-116425000D03*
X193925000Y-115155000D03*
X193925000Y-113885000D03*
X193925000Y-112615000D03*
X193925000Y-111345000D03*
X193925000Y-110075000D03*
X193925000Y-108805000D03*
D16*
X219440000Y-99060000D03*
X221980000Y-99060000D03*
X224520000Y-99060000D03*
X227060000Y-99060000D03*
X227060000Y-91440000D03*
X224520000Y-91440000D03*
X221980000Y-91440000D03*
X219440000Y-91440000D03*
D17*
X190000000Y-124000000D03*
X192540000Y-124000000D03*
X195080000Y-124000000D03*
X187460000Y-124000000D03*
X184920000Y-124000000D03*
M02*
