G04 #@! TF.FileFunction,Profile,NP*
%FSLAX46Y46*%
G04 Gerber Fmt 4.6, Leading zero omitted, Abs format (unit mm)*
G04 Created by KiCad (PCBNEW (2015-08-02 BZR 6038)-product) date 2015 November 19, Thursday 21:17:08*
%MOMM*%
G01*
G04 APERTURE LIST*
%ADD10C,0.100000*%
G04 APERTURE END LIST*
D10*
X223600000Y-75400000D02*
X224000000Y-75400000D01*
X223600000Y-75400000D02*
X207600000Y-75400000D01*
X204400000Y-75400000D02*
X184000000Y-75400000D01*
X205200000Y-77200000D02*
X205200000Y-76200000D01*
X206800000Y-76200000D02*
X206800000Y-77200000D01*
X205200000Y-76200000D02*
G75*
G03X204400000Y-75400000I-800000J0D01*
G01*
X207600000Y-75400000D02*
G75*
G03X206800000Y-76200000I0J-800000D01*
G01*
X229000000Y-80400000D02*
G75*
G03X224000000Y-75400000I-5000000J0D01*
G01*
X229000000Y-120400000D02*
X229000000Y-80400000D01*
X224000000Y-125400000D02*
G75*
G03X229000000Y-120400000I0J5000000D01*
G01*
X207600000Y-125400000D02*
X224000000Y-125400000D01*
X184000000Y-75400000D02*
G75*
G03X179000000Y-80400000I0J-5000000D01*
G01*
X179000000Y-120400000D02*
X179000000Y-80400000D01*
X179000000Y-120400000D02*
G75*
G03X184000000Y-125400000I5000000J0D01*
G01*
X204400000Y-125400000D02*
X184000000Y-125400000D01*
X206800000Y-84000000D02*
X206800000Y-117800000D01*
X205200000Y-117800000D02*
X205200000Y-84000000D01*
X206800000Y-124600000D02*
G75*
G03X207600000Y-125400000I800000J0D01*
G01*
X204400000Y-125400000D02*
G75*
G03X205200000Y-124600000I0J800000D01*
G01*
X206000000Y-123800000D02*
G75*
G03X205200000Y-124600000I0J-800000D01*
G01*
X206800000Y-124600000D02*
G75*
G03X206000000Y-123800000I-800000J0D01*
G01*
X206000000Y-118600000D02*
G75*
G03X206800000Y-117800000I0J800000D01*
G01*
X205200000Y-117800000D02*
G75*
G03X206000000Y-118600000I800000J0D01*
G01*
X206000000Y-83200000D02*
G75*
G03X205200000Y-84000000I0J-800000D01*
G01*
X206800000Y-84000000D02*
G75*
G03X206000000Y-83200000I-800000J0D01*
G01*
X206000000Y-78000000D02*
G75*
G03X206800000Y-77200000I0J800000D01*
G01*
X205200000Y-77200000D02*
G75*
G03X206000000Y-78000000I800000J0D01*
G01*
M02*
