G04 #@! TF.FileFunction,Other,Fab,Bot*
%FSLAX46Y46*%
G04 Gerber Fmt 4.6, Leading zero omitted, Abs format (unit mm)*
G04 Created by KiCad (PCBNEW (2015-08-02 BZR 6038)-product) date 2015 November 19, Thursday 21:17:08*
%MOMM*%
G01*
G04 APERTURE LIST*
%ADD10C,0.100000*%
%ADD11C,0.150000*%
G04 APERTURE END LIST*
D10*
D11*
X189607142Y-121928571D02*
X189464285Y-121976190D01*
X189416666Y-122023810D01*
X189369047Y-122119048D01*
X189369047Y-122261905D01*
X189416666Y-122357143D01*
X189464285Y-122404762D01*
X189559523Y-122452381D01*
X189940476Y-122452381D01*
X189940476Y-121452381D01*
X189607142Y-121452381D01*
X189511904Y-121500000D01*
X189464285Y-121547619D01*
X189416666Y-121642857D01*
X189416666Y-121738095D01*
X189464285Y-121833333D01*
X189511904Y-121880952D01*
X189607142Y-121928571D01*
X189940476Y-121928571D01*
X188369047Y-122357143D02*
X188416666Y-122404762D01*
X188559523Y-122452381D01*
X188654761Y-122452381D01*
X188797619Y-122404762D01*
X188892857Y-122309524D01*
X188940476Y-122214286D01*
X188988095Y-122023810D01*
X188988095Y-121880952D01*
X188940476Y-121690476D01*
X188892857Y-121595238D01*
X188797619Y-121500000D01*
X188654761Y-121452381D01*
X188559523Y-121452381D01*
X188416666Y-121500000D01*
X188369047Y-121547619D01*
X187797619Y-121880952D02*
X187892857Y-121833333D01*
X187940476Y-121785714D01*
X187988095Y-121690476D01*
X187988095Y-121642857D01*
X187940476Y-121547619D01*
X187892857Y-121500000D01*
X187797619Y-121452381D01*
X187607142Y-121452381D01*
X187511904Y-121500000D01*
X187464285Y-121547619D01*
X187416666Y-121642857D01*
X187416666Y-121690476D01*
X187464285Y-121785714D01*
X187511904Y-121833333D01*
X187607142Y-121880952D01*
X187797619Y-121880952D01*
X187892857Y-121928571D01*
X187940476Y-121976190D01*
X187988095Y-122071429D01*
X187988095Y-122261905D01*
X187940476Y-122357143D01*
X187892857Y-122404762D01*
X187797619Y-122452381D01*
X187607142Y-122452381D01*
X187511904Y-122404762D01*
X187464285Y-122357143D01*
X187416666Y-122261905D01*
X187416666Y-122071429D01*
X187464285Y-121976190D01*
X187511904Y-121928571D01*
X187607142Y-121880952D01*
X186511904Y-121452381D02*
X186988095Y-121452381D01*
X187035714Y-121928571D01*
X186988095Y-121880952D01*
X186892857Y-121833333D01*
X186654761Y-121833333D01*
X186559523Y-121880952D01*
X186511904Y-121928571D01*
X186464285Y-122023810D01*
X186464285Y-122261905D01*
X186511904Y-122357143D01*
X186559523Y-122404762D01*
X186654761Y-122452381D01*
X186892857Y-122452381D01*
X186988095Y-122404762D01*
X187035714Y-122357143D01*
X186130952Y-121452381D02*
X185464285Y-121452381D01*
X185892857Y-122452381D01*
X185352381Y-113833334D02*
X185352381Y-113261905D01*
X185352381Y-113547619D02*
X184352381Y-113547619D01*
X184495238Y-113452381D01*
X184590476Y-113357143D01*
X184638095Y-113261905D01*
X184352381Y-114452381D02*
X184352381Y-114547620D01*
X184400000Y-114642858D01*
X184447619Y-114690477D01*
X184542857Y-114738096D01*
X184733333Y-114785715D01*
X184971429Y-114785715D01*
X185161905Y-114738096D01*
X185257143Y-114690477D01*
X185304762Y-114642858D01*
X185352381Y-114547620D01*
X185352381Y-114452381D01*
X185304762Y-114357143D01*
X185257143Y-114309524D01*
X185161905Y-114261905D01*
X184971429Y-114214286D01*
X184733333Y-114214286D01*
X184542857Y-114261905D01*
X184447619Y-114309524D01*
X184400000Y-114357143D01*
X184352381Y-114452381D01*
X184352381Y-115404762D02*
X184352381Y-115500001D01*
X184400000Y-115595239D01*
X184447619Y-115642858D01*
X184542857Y-115690477D01*
X184733333Y-115738096D01*
X184971429Y-115738096D01*
X185161905Y-115690477D01*
X185257143Y-115642858D01*
X185304762Y-115595239D01*
X185352381Y-115500001D01*
X185352381Y-115404762D01*
X185304762Y-115309524D01*
X185257143Y-115261905D01*
X185161905Y-115214286D01*
X184971429Y-115166667D01*
X184733333Y-115166667D01*
X184542857Y-115214286D01*
X184447619Y-115261905D01*
X184400000Y-115309524D01*
X184352381Y-115404762D01*
X200702381Y-101404762D02*
X200702381Y-100833333D01*
X200702381Y-101119047D02*
X199702381Y-101119047D01*
X199845238Y-101023809D01*
X199940476Y-100928571D01*
X199988095Y-100833333D01*
X200702381Y-101833333D02*
X199702381Y-101833333D01*
X200321429Y-101928571D02*
X200702381Y-102214286D01*
X200035714Y-102214286D02*
X200416667Y-101833333D01*
X199702381Y-103119048D02*
X199702381Y-102642857D01*
X200178571Y-102595238D01*
X200130952Y-102642857D01*
X200083333Y-102738095D01*
X200083333Y-102976191D01*
X200130952Y-103071429D01*
X200178571Y-103119048D01*
X200273810Y-103166667D01*
X200511905Y-103166667D01*
X200607143Y-103119048D01*
X200654762Y-103071429D01*
X200702381Y-102976191D01*
X200702381Y-102738095D01*
X200654762Y-102642857D01*
X200607143Y-102595238D01*
X194952381Y-106880953D02*
X194952381Y-106309524D01*
X194952381Y-106595238D02*
X193952381Y-106595238D01*
X194095238Y-106500000D01*
X194190476Y-106404762D01*
X194238095Y-106309524D01*
X194952381Y-107309524D02*
X193952381Y-107309524D01*
X194571429Y-107404762D02*
X194952381Y-107690477D01*
X194285714Y-107690477D02*
X194666667Y-107309524D01*
X197395238Y-91702381D02*
X197966667Y-91702381D01*
X197680953Y-91702381D02*
X197680953Y-90702381D01*
X197776191Y-90845238D01*
X197871429Y-90940476D01*
X197966667Y-90988095D01*
X196776191Y-90702381D02*
X196680952Y-90702381D01*
X196585714Y-90750000D01*
X196538095Y-90797619D01*
X196490476Y-90892857D01*
X196442857Y-91083333D01*
X196442857Y-91321429D01*
X196490476Y-91511905D01*
X196538095Y-91607143D01*
X196585714Y-91654762D01*
X196680952Y-91702381D01*
X196776191Y-91702381D01*
X196871429Y-91654762D01*
X196919048Y-91607143D01*
X196966667Y-91511905D01*
X197014286Y-91321429D01*
X197014286Y-91083333D01*
X196966667Y-90892857D01*
X196919048Y-90797619D01*
X196871429Y-90750000D01*
X196776191Y-90702381D01*
X196014286Y-91702381D02*
X196014286Y-90702381D01*
X195919048Y-91321429D02*
X195633333Y-91702381D01*
X195633333Y-91035714D02*
X196014286Y-91416667D01*
X190252381Y-93688096D02*
X190252381Y-93497619D01*
X190300000Y-93402381D01*
X190347619Y-93354762D01*
X190490476Y-93259524D01*
X190680952Y-93211905D01*
X191061905Y-93211905D01*
X191157143Y-93259524D01*
X191204762Y-93307143D01*
X191252381Y-93402381D01*
X191252381Y-93592858D01*
X191204762Y-93688096D01*
X191157143Y-93735715D01*
X191061905Y-93783334D01*
X190823810Y-93783334D01*
X190728571Y-93735715D01*
X190680952Y-93688096D01*
X190633333Y-93592858D01*
X190633333Y-93402381D01*
X190680952Y-93307143D01*
X190728571Y-93259524D01*
X190823810Y-93211905D01*
X191252381Y-94211905D02*
X190252381Y-94211905D01*
X191252381Y-94783334D01*
X190252381Y-94783334D01*
X191252381Y-95783334D02*
X191252381Y-95211905D01*
X191252381Y-95497619D02*
X190252381Y-95497619D01*
X190395238Y-95402381D01*
X190490476Y-95307143D01*
X190538095Y-95211905D01*
X190252381Y-96116667D02*
X190252381Y-96735715D01*
X190633333Y-96402381D01*
X190633333Y-96545239D01*
X190680952Y-96640477D01*
X190728571Y-96688096D01*
X190823810Y-96735715D01*
X191061905Y-96735715D01*
X191157143Y-96688096D01*
X191204762Y-96640477D01*
X191252381Y-96545239D01*
X191252381Y-96259524D01*
X191204762Y-96164286D01*
X191157143Y-96116667D01*
X190252381Y-97069048D02*
X190252381Y-97735715D01*
X191252381Y-97307143D01*
X187464285Y-102178571D02*
X187321428Y-102226190D01*
X187273809Y-102273810D01*
X187226190Y-102369048D01*
X187226190Y-102511905D01*
X187273809Y-102607143D01*
X187321428Y-102654762D01*
X187416666Y-102702381D01*
X187797619Y-102702381D01*
X187797619Y-101702381D01*
X187464285Y-101702381D01*
X187369047Y-101750000D01*
X187321428Y-101797619D01*
X187273809Y-101892857D01*
X187273809Y-101988095D01*
X187321428Y-102083333D01*
X187369047Y-102130952D01*
X187464285Y-102178571D01*
X187797619Y-102178571D01*
X186845238Y-102416667D02*
X186369047Y-102416667D01*
X186940476Y-102702381D02*
X186607143Y-101702381D01*
X186273809Y-102702381D01*
X186083333Y-101702381D02*
X185750000Y-102702381D01*
X185416666Y-101702381D01*
X184559523Y-102702381D02*
X185130952Y-102702381D01*
X184845238Y-102702381D02*
X184845238Y-101702381D01*
X184940476Y-101845238D01*
X185035714Y-101940476D01*
X185130952Y-101988095D01*
X184083333Y-102702381D02*
X183892857Y-102702381D01*
X183797618Y-102654762D01*
X183749999Y-102607143D01*
X183654761Y-102464286D01*
X183607142Y-102273810D01*
X183607142Y-101892857D01*
X183654761Y-101797619D01*
X183702380Y-101750000D01*
X183797618Y-101702381D01*
X183988095Y-101702381D01*
X184083333Y-101750000D01*
X184130952Y-101797619D01*
X184178571Y-101892857D01*
X184178571Y-102130952D01*
X184130952Y-102226190D01*
X184083333Y-102273810D01*
X183988095Y-102321429D01*
X183797618Y-102321429D01*
X183702380Y-102273810D01*
X183654761Y-102226190D01*
X183607142Y-102130952D01*
X183130952Y-102702381D02*
X182940476Y-102702381D01*
X182845237Y-102654762D01*
X182797618Y-102607143D01*
X182702380Y-102464286D01*
X182654761Y-102273810D01*
X182654761Y-101892857D01*
X182702380Y-101797619D01*
X182749999Y-101750000D01*
X182845237Y-101702381D01*
X183035714Y-101702381D01*
X183130952Y-101750000D01*
X183178571Y-101797619D01*
X183226190Y-101892857D01*
X183226190Y-102130952D01*
X183178571Y-102226190D01*
X183130952Y-102273810D01*
X183035714Y-102321429D01*
X182845237Y-102321429D01*
X182749999Y-102273810D01*
X182702380Y-102226190D01*
X182654761Y-102130952D01*
X193214285Y-101928571D02*
X193071428Y-101976190D01*
X193023809Y-102023810D01*
X192976190Y-102119048D01*
X192976190Y-102261905D01*
X193023809Y-102357143D01*
X193071428Y-102404762D01*
X193166666Y-102452381D01*
X193547619Y-102452381D01*
X193547619Y-101452381D01*
X193214285Y-101452381D01*
X193119047Y-101500000D01*
X193071428Y-101547619D01*
X193023809Y-101642857D01*
X193023809Y-101738095D01*
X193071428Y-101833333D01*
X193119047Y-101880952D01*
X193214285Y-101928571D01*
X193547619Y-101928571D01*
X192595238Y-102166667D02*
X192119047Y-102166667D01*
X192690476Y-102452381D02*
X192357143Y-101452381D01*
X192023809Y-102452381D01*
X191833333Y-101452381D02*
X191500000Y-102452381D01*
X191166666Y-101452381D01*
X190309523Y-102452381D02*
X190880952Y-102452381D01*
X190595238Y-102452381D02*
X190595238Y-101452381D01*
X190690476Y-101595238D01*
X190785714Y-101690476D01*
X190880952Y-101738095D01*
X189833333Y-102452381D02*
X189642857Y-102452381D01*
X189547618Y-102404762D01*
X189499999Y-102357143D01*
X189404761Y-102214286D01*
X189357142Y-102023810D01*
X189357142Y-101642857D01*
X189404761Y-101547619D01*
X189452380Y-101500000D01*
X189547618Y-101452381D01*
X189738095Y-101452381D01*
X189833333Y-101500000D01*
X189880952Y-101547619D01*
X189928571Y-101642857D01*
X189928571Y-101880952D01*
X189880952Y-101976190D01*
X189833333Y-102023810D01*
X189738095Y-102071429D01*
X189547618Y-102071429D01*
X189452380Y-102023810D01*
X189404761Y-101976190D01*
X189357142Y-101880952D01*
X188880952Y-102452381D02*
X188690476Y-102452381D01*
X188595237Y-102404762D01*
X188547618Y-102357143D01*
X188452380Y-102214286D01*
X188404761Y-102023810D01*
X188404761Y-101642857D01*
X188452380Y-101547619D01*
X188499999Y-101500000D01*
X188595237Y-101452381D01*
X188785714Y-101452381D01*
X188880952Y-101500000D01*
X188928571Y-101547619D01*
X188976190Y-101642857D01*
X188976190Y-101880952D01*
X188928571Y-101976190D01*
X188880952Y-102023810D01*
X188785714Y-102071429D01*
X188595237Y-102071429D01*
X188499999Y-102023810D01*
X188452380Y-101976190D01*
X188404761Y-101880952D01*
X196261905Y-81452381D02*
X196261905Y-80452381D01*
X196023810Y-80452381D01*
X195880952Y-80500000D01*
X195785714Y-80595238D01*
X195738095Y-80690476D01*
X195690476Y-80880952D01*
X195690476Y-81023810D01*
X195738095Y-81214286D01*
X195785714Y-81309524D01*
X195880952Y-81404762D01*
X196023810Y-81452381D01*
X196261905Y-81452381D01*
X195500000Y-81547619D02*
X194738095Y-81547619D01*
X194547619Y-81404762D02*
X194404762Y-81452381D01*
X194166666Y-81452381D01*
X194071428Y-81404762D01*
X194023809Y-81357143D01*
X193976190Y-81261905D01*
X193976190Y-81166667D01*
X194023809Y-81071429D01*
X194071428Y-81023810D01*
X194166666Y-80976190D01*
X194357143Y-80928571D01*
X194452381Y-80880952D01*
X194500000Y-80833333D01*
X194547619Y-80738095D01*
X194547619Y-80642857D01*
X194500000Y-80547619D01*
X194452381Y-80500000D01*
X194357143Y-80452381D01*
X194119047Y-80452381D01*
X193976190Y-80500000D01*
X193547619Y-81452381D02*
X193547619Y-80785714D01*
X193547619Y-80880952D02*
X193500000Y-80833333D01*
X193404762Y-80785714D01*
X193261904Y-80785714D01*
X193166666Y-80833333D01*
X193119047Y-80928571D01*
X193119047Y-81452381D01*
X193119047Y-80928571D02*
X193071428Y-80833333D01*
X192976190Y-80785714D01*
X192833333Y-80785714D01*
X192738095Y-80833333D01*
X192690476Y-80928571D01*
X192690476Y-81452381D01*
X191785714Y-81452381D02*
X191785714Y-80928571D01*
X191833333Y-80833333D01*
X191928571Y-80785714D01*
X192119048Y-80785714D01*
X192214286Y-80833333D01*
X191785714Y-81404762D02*
X191880952Y-81452381D01*
X192119048Y-81452381D01*
X192214286Y-81404762D01*
X192261905Y-81309524D01*
X192261905Y-81214286D01*
X192214286Y-81119048D01*
X192119048Y-81071429D01*
X191880952Y-81071429D01*
X191785714Y-81023810D01*
X191166667Y-81452381D02*
X191261905Y-81404762D01*
X191309524Y-81309524D01*
X191309524Y-80452381D01*
X190642857Y-81452381D02*
X190738095Y-81404762D01*
X190785714Y-81309524D01*
X190785714Y-80452381D01*
X204202381Y-104607143D02*
X204202381Y-104035714D01*
X204202381Y-104321428D02*
X203202381Y-104321428D01*
X203345238Y-104226190D01*
X203440476Y-104130952D01*
X203488095Y-104035714D01*
X204202381Y-105035714D02*
X203202381Y-105035714D01*
X204202381Y-105607143D01*
X203202381Y-105607143D01*
X203535714Y-106511905D02*
X204202381Y-106511905D01*
X203154762Y-106273809D02*
X203869048Y-106035714D01*
X203869048Y-106654762D01*
X204202381Y-107559524D02*
X204202381Y-106988095D01*
X204202381Y-107273809D02*
X203202381Y-107273809D01*
X203345238Y-107178571D01*
X203440476Y-107083333D01*
X203488095Y-106988095D01*
X203535714Y-108416667D02*
X204202381Y-108416667D01*
X203154762Y-108178571D02*
X203869048Y-107940476D01*
X203869048Y-108559524D01*
X203630952Y-109083333D02*
X203583333Y-108988095D01*
X203535714Y-108940476D01*
X203440476Y-108892857D01*
X203392857Y-108892857D01*
X203297619Y-108940476D01*
X203250000Y-108988095D01*
X203202381Y-109083333D01*
X203202381Y-109273810D01*
X203250000Y-109369048D01*
X203297619Y-109416667D01*
X203392857Y-109464286D01*
X203440476Y-109464286D01*
X203535714Y-109416667D01*
X203583333Y-109369048D01*
X203630952Y-109273810D01*
X203630952Y-109083333D01*
X203678571Y-108988095D01*
X203726190Y-108940476D01*
X203821429Y-108892857D01*
X204011905Y-108892857D01*
X204107143Y-108940476D01*
X204154762Y-108988095D01*
X204202381Y-109083333D01*
X204202381Y-109273810D01*
X204154762Y-109369048D01*
X204107143Y-109416667D01*
X204011905Y-109464286D01*
X203821429Y-109464286D01*
X203726190Y-109416667D01*
X203678571Y-109369048D01*
X203630952Y-109273810D01*
X194297619Y-117452381D02*
X194773810Y-117452381D01*
X194773810Y-116452381D01*
X194107143Y-116452381D02*
X193535714Y-116452381D01*
X193821429Y-117452381D02*
X193821429Y-116452381D01*
X193345238Y-116452381D02*
X193011905Y-117452381D01*
X192678571Y-116452381D01*
X192345238Y-117071429D02*
X191583333Y-117071429D01*
X190964286Y-116880952D02*
X191059524Y-116833333D01*
X191107143Y-116785714D01*
X191154762Y-116690476D01*
X191154762Y-116642857D01*
X191107143Y-116547619D01*
X191059524Y-116500000D01*
X190964286Y-116452381D01*
X190773809Y-116452381D01*
X190678571Y-116500000D01*
X190630952Y-116547619D01*
X190583333Y-116642857D01*
X190583333Y-116690476D01*
X190630952Y-116785714D01*
X190678571Y-116833333D01*
X190773809Y-116880952D01*
X190964286Y-116880952D01*
X191059524Y-116928571D01*
X191107143Y-116976190D01*
X191154762Y-117071429D01*
X191154762Y-117261905D01*
X191107143Y-117357143D01*
X191059524Y-117404762D01*
X190964286Y-117452381D01*
X190773809Y-117452381D01*
X190678571Y-117404762D01*
X190630952Y-117357143D01*
X190583333Y-117261905D01*
X190583333Y-117071429D01*
X190630952Y-116976190D01*
X190678571Y-116928571D01*
X190773809Y-116880952D01*
X189630952Y-117452381D02*
X190202381Y-117452381D01*
X189916667Y-117452381D02*
X189916667Y-116452381D01*
X190011905Y-116595238D01*
X190107143Y-116690476D01*
X190202381Y-116738095D01*
X189297619Y-116452381D02*
X188630952Y-116452381D01*
X189059524Y-117452381D01*
X204066666Y-88952381D02*
X204542857Y-88952381D01*
X204542857Y-87952381D01*
X203733333Y-88952381D02*
X203733333Y-87952381D01*
X203399999Y-88666667D01*
X203066666Y-87952381D01*
X203066666Y-88952381D01*
X202066666Y-88952381D02*
X202638095Y-88952381D01*
X202352381Y-88952381D02*
X202352381Y-87952381D01*
X202447619Y-88095238D01*
X202542857Y-88190476D01*
X202638095Y-88238095D01*
X201114285Y-88952381D02*
X201685714Y-88952381D01*
X201400000Y-88952381D02*
X201400000Y-87952381D01*
X201495238Y-88095238D01*
X201590476Y-88190476D01*
X201685714Y-88238095D01*
X200161904Y-88952381D02*
X200733333Y-88952381D01*
X200447619Y-88952381D02*
X200447619Y-87952381D01*
X200542857Y-88095238D01*
X200638095Y-88190476D01*
X200733333Y-88238095D01*
X199828571Y-87952381D02*
X199161904Y-87952381D01*
X199590476Y-88952381D01*
M02*
