M48
;DRILL file {KiCad (2015-08-02 BZR 6038)-product} date 2015 November 19, Thursday 21:17:18
;FORMAT={-:-/ absolute / inch / decimal}
FMAT,2
INCH,TZ
T1C0.016
T2C0.030
T3C0.032
T4C0.039
T5C0.040
T6C0.063
T7C0.118
T8C0.128
%
G90
G05
M72
T1
X7.3228Y-3.5354
X7.3937Y-3.6949
X7.5Y-4.3504
X7.5413Y-3.544
X7.6319Y-3.2815
X7.685Y-3.7953
X7.6929Y-3.7323
X7.8012Y-3.811
X7.8445Y-3.5335
X7.8445Y-3.5728
X7.8445Y-3.6122
X7.8543Y-3.6417
X7.874Y-3.5039
X7.8937Y-3.6516
X7.9134Y-3.5039
X7.9291Y-4.
X7.9331Y-3.6516
X7.9528Y-3.5039
X7.9724Y-3.6516
X7.9921Y-3.5039
X8.0315Y-3.5039
X8.0413Y-3.5335
X8.0413Y-3.5728
X8.063Y-3.4252
X8.2165Y-3.2323
X8.4252Y-3.75
X8.6319Y-3.6811
T2
X7.1508Y-3.6567
X7.1508Y-3.7567
X7.1508Y-3.8567
X7.1508Y-3.9567
X7.1508Y-4.0567
X7.1508Y-4.1567
X7.1508Y-4.2567
X7.1508Y-4.3567
X7.1508Y-4.4567
X7.1508Y-4.5567
X7.1508Y-4.6567
X7.1508Y-4.7567
X7.7508Y-3.6567
X7.7508Y-3.7567
X7.7508Y-3.8567
X7.7508Y-3.9567
X7.7508Y-4.0567
X7.7508Y-4.1567
X7.7508Y-4.2567
X7.7508Y-4.3567
X7.7508Y-4.4567
X7.7508Y-4.5567
X7.7508Y-4.6567
X7.7508Y-4.7567
T3
X8.3641Y-4.4531
X8.4055Y-3.3661
X8.4141Y-4.5531
X8.4555Y-3.4661
X8.4641Y-4.4531
X8.5055Y-3.3661
X8.5141Y-4.5531
X8.5555Y-3.4661
X8.5641Y-4.4531
X8.6055Y-3.3661
X8.6141Y-4.5531
X8.6555Y-3.4661
T4
X7.1654Y-3.4331
X7.3307Y-3.4409
X7.4882Y-3.4252
X8.1102Y-3.1102
X8.1102Y-3.1732
X8.1102Y-3.2362
X8.1102Y-4.7087
X8.1102Y-4.7717
X8.1102Y-4.8346
T5
X8.8976Y-4.2079
X8.8976Y-4.3079
X8.8976Y-4.4079
X8.8976Y-4.5079
T6
X7.4607Y-3.1004
X7.6575Y-3.1004
T7
X7.2244Y-3.1201
X7.9331Y-3.1201
X7.9331Y-4.7835
X8.878Y-3.4055
X8.8878Y-4.7441
T8
X8.2941Y-4.8031
X8.3255Y-3.1161
X8.6941Y-4.8031
X8.7255Y-3.1161
T0
M30
